<?xml version="1.0" encoding="UTF-8" standalone="no"?>
<svg
   xmlns:dc="http://purl.org/dc/elements/1.1/"
   xmlns:cc="http://creativecommons.org/ns#"
   xmlns:rdf="http://www.w3.org/1999/02/22-rdf-syntax-ns#"
   xmlns:svg="http://www.w3.org/2000/svg"
   xmlns="http://www.w3.org/2000/svg"
   xmlns:sodipodi="http://sodipodi.sourceforge.net/DTD/sodipodi-0.dtd"
   xmlns:inkscape="http://www.inkscape.org/namespaces/inkscape"
   viewBox="0 0 174.97607 200"
   id="svg2"
   version="1.1"
   inkscape:version="0.48.5 r10040"
   width="100%"
   height="100%"
   sodipodi:docname="logo-drupal.svg"
   inkscape:export-filename="C:\Users\BLJ\Documents\_MCLibre.org\Varios\apuntes webapps\logos webapps\logo-drupal.png"
   inkscape:export-xdpi="90"
   inkscape:export-ydpi="90">
  <metadata
     id="metadata19">
    <rdf:RDF>
      <cc:Work
         rdf:about="">
        <dc:format>image/svg+xml</dc:format>
        <dc:type
           rdf:resource="http://purl.org/dc/dcmitype/StillImage" />
        <dc:title>Drupal Icon</dc:title>
      </cc:Work>
    </rdf:RDF>
  </metadata>
  <defs
     id="defs17" />
  <sodipodi:namedview
     pagecolor="#ffffff"
     bordercolor="#666666"
     borderopacity="1"
     objecttolerance="10"
     gridtolerance="10"
     guidetolerance="10"
     inkscape:pageopacity="0"
     inkscape:pageshadow="2"
     inkscape:window-width="1280"
     inkscape:window-height="962"
     id="namedview15"
     showgrid="false"
     fit-margin-top="0"
     fit-margin-left="0"
     fit-margin-right="0"
     fit-margin-bottom="0"
     inkscape:zoom="3.3863638"
     inkscape:cx="82.320255"
     inkscape:cy="99.999994"
     inkscape:window-x="1272"
     inkscape:window-y="-8"
     inkscape:window-maximized="1"
     inkscape:current-layer="svg2" />
  <title
     id="title4">Drupal Icon</title>
  <path
     d="M 131.05013,37.204249 C 120.83927,30.846549 111.20638,28.341999 101.5735,21.984299 95.60111,17.938489 87.31683,8.3055994 80.38115,0.02131937 79.03255,13.314699 74.986739,18.709119 70.362954,22.562269 c -9.825542,7.70631 -15.990588,10.0182 -24.467526,14.64198 -7.128334,3.6605 -45.85253,26.77942 -45.85253,76.485111 0,49.70568 41.806719,86.31064 88.237222,86.31064 46.4305,0 86.69596,-33.7151 86.69596,-84.76938 0,-51.054291 -37.76091,-74.173211 -43.92595,-78.026371 z"
     id="path6"
     style="fill:#00598e"
     inkscape:connector-curvature="0" />
  <path
     d="m 115.40195,156.82336 c 3.08253,0 6.35771,0.19265 8.6696,1.73392 2.31189,1.54126 3.6605,5.0091 4.43113,6.93567 0.77063,1.92658 0,3.08253 -1.54126,3.85316 -1.34861,0.77063 -1.54127,0.38531 -2.88987,-2.11924 -1.3486,-2.50455 -2.50455,-5.0091 -9.24757,-5.0091 -6.74302,0 -8.86225,2.31189 -12.13743,5.0091 -3.27518,2.69721 -4.43113,3.6605 -5.58708,2.11924 -1.15594,-1.54126 -0.77063,-3.08253 1.34861,-5.0091 2.11923,-1.92658 5.58707,-5.0091 8.86225,-6.35771 3.27518,-1.3486 5.0091,-1.15594 8.09162,-1.15594 l 0,0 z"
     id="path8"
     style="fill:#ffffff"
     inkscape:connector-curvature="0" />
  <path
     d="m 83.42078,178.78633 c 3.85315,3.08253 9.63288,5.58708 21.96297,5.58708 12.3301,0 20.99969,-3.46784 24.85285,-6.35771 1.73392,-1.3486 2.50455,-0.19265 2.6972,0.57798 0.19266,0.77063 0.57798,1.92657 -0.77063,3.27518 -0.96329,0.96329 -9.82554,7.12833 -20.22905,8.09162 -10.40352,0.96329 -24.46753,1.54126 -32.944468,-6.16505 -1.348604,-1.3486 -0.963289,-3.27518 0,-4.04581 0.963288,-0.77063 1.733918,-1.3486 2.889868,-1.3486 1.15594,0 0.96328,0 1.54126,0.38531 l 0,0 z"
     id="path10"
     style="fill:#ffffff"
     inkscape:connector-curvature="0" />
  <path
     d="m 36.219645,164.14435 c 14.641984,-0.19266 17.339192,-2.69721 30.247257,-8.47694 69.742078,-31.21054 82.650148,-59.723878 85.154698,-66.274241 2.50455,-6.55036 6.16505,-17.14654 2.31189,-28.89866 -0.74391,-2.26873 -1.28592,-4.0905 -1.6774,-5.55624 -9.26787,-10.36319 -18.46894,-16.01808 -21.24886,-17.75534 -10.0182,-6.3577 -19.84374,-8.86225 -29.47663,-15.21995 C 95.55821,18.109819 87.27393,8.2842794 80.33826,-6.3222338e-7 78.989652,13.293379 75.136498,18.880449 70.320056,22.540949 60.494514,30.247259 54.329468,32.559149 45.85253,37.182929 38.724195,41.036089 0,63.962349 0,113.66804 c 0,15.86985 4.262359,30.4042 11.575644,42.83833 l 1.910394,-0.0683 c 4.045812,3.6605 10.403515,7.89897 22.733607,7.70631 z"
     id="path12"
     style="fill:#0073ba"
     inkscape:connector-curvature="0" />
  <path
     d="m 131.00723,37.182929 c -10.0182,-6.3577 -19.84374,-8.86225 -29.47663,-15.21995 C 95.55821,18.109819 87.27393,8.2842794 80.33826,-6.3222337e-7 78.989652,13.293379 75.136498,18.880449 70.320056,22.540949 60.494514,30.247259 54.329468,32.559149 45.85253,37.182929 38.724195,41.036089 0,63.962349 0,113.66804 c 0,15.86985 4.262359,30.4042 11.575644,42.83833 15.592429,26.50996 45.055441,43.47231 76.661576,43.47231 46.4305,0 86.69596,-33.7151 86.69596,-84.76938 0,-28.037091 -11.38787,-47.647591 -22.67709,-60.271031 -9.26787,-10.36319 -18.46945,-16.01808 -21.24886,-17.75534 z m 23.41792,22.55303 c 12.64914,15.81437 19.0631,34.478273 19.0631,55.473341 0,12.18316 -2.32037,23.69175 -6.89689,34.20701 -4.34122,9.97479 -10.59258,18.81187 -18.58068,26.26669 -15.79022,14.73549 -37.01776,22.85075 -59.77346,22.85075 -11.257887,0 -22.305136,-2.15032 -32.835034,-6.39161 C 45.05955,187.97636 35.739028,182.01142 27.699808,174.41249 10.769051,158.41034 1.444933,136.83731 1.444933,113.66804 c 0,-20.636468 6.698322,-38.973371 19.908731,-54.500811 10.092437,-11.86258 20.975285,-18.43708 25.186011,-20.71301 2.044227,-1.11511 3.961813,-2.0992 5.816464,-3.05093 5.813125,-2.98363 11.303869,-5.80182 18.855793,-11.72515 4.02706,-3.06043 8.316904,-7.90795 10.143808,-20.2167196 6.36387,7.5691296 13.74857,16.0750996 19.39164,19.7158096 5.0091,3.30601 10.1469,5.62253 15.11567,7.86301 4.70033,2.11923 9.5607,4.31065 14.37021,7.36286 0.008,0.005 0.18032,0.11251 0.18032,0.11251 14.05939,8.778 21.54992,18.1427 24.01157,21.22035 z"
     id="path14"
     style="fill:#004975"
     inkscape:connector-curvature="0" />
  <path
     d="m 81.30154,3.8531494 c 2.69721,7.8989696 2.3119,11.9447796 2.3119,13.6786996 0,1.73392 -0.96329,6.3577 -4.045815,8.6696 -1.348604,0.96328 -1.733919,1.73391 -1.733919,1.92657 0,0.77063 1.733919,1.34861 1.733919,3.08253 0,2.11923 -0.963289,6.3577 -11.174146,16.56856 -10.210857,10.21085 -24.852842,19.26577 -36.219645,24.85284 -11.366804,5.58707 -16.761219,5.20176 -18.302481,2.50455 -1.541261,-2.69721 0.577974,-8.6696 7.706308,-16.56856 7.128334,-7.89897 29.669284,-19.26577 29.669284,-19.26577 l 28.128022,-19.65109 1.541263,-7.51365"
     id="path16"
     style="fill:#93c5e4"
     inkscape:connector-curvature="0" />
  <path
     d="M 81.30154,3.6604994 C 79.567625,16.375899 75.714471,20.229059 70.512713,24.274869 c -8.669595,6.55036 -17.146534,10.59617 -19.073111,11.55946 -5.009099,2.50455 -23.118922,12.52275 -32.559149,26.97208 -2.889865,4.43112 0,6.16504 0.577973,6.55036 0.577973,0.38531 7.128335,1.15594 21.192346,-7.32099 14.064011,-8.47694 20.229057,-13.48604 28.128022,-21.77032 4.238469,-4.43113 4.816442,-6.93568 4.816442,-8.09163 0,-1.3486 -0.963288,-1.92657 -2.504549,-2.31189 -0.770631,-0.19266 -0.963289,-0.57797 0,-1.15594 0.963288,-0.57798 5.009099,-2.50455 5.972388,-3.27519 0.963288,-0.77063 5.587075,-3.85315 5.779735,-8.86225 0.19265,-5.0091 -0.19266,-8.4769396 -1.54127,-12.9080596 l 0,0 z"
     id="path18"
     style="fill:#ffffff"
     inkscape:connector-curvature="0" />
  <path
     d="m 37.953564,143.72263 c 0.192658,-15.0273 14.256669,-29.09131 31.981176,-29.28396 22.54095,-0.19266 38.14622,22.34829 49.51303,22.15563 9.63288,-0.19266 28.12802,-19.07311 37.18293,-19.07311 9.63288,0 12.33009,10.0182 12.33009,15.99059 0,5.97239 -1.92658,16.76122 -6.55036,23.50423 -4.62378,6.74302 -7.51365,9.24757 -12.90806,8.86226 -6.93568,-0.57797 -20.80704,-22.15564 -29.66929,-22.54095 -11.17414,-0.38532 -35.44901,23.31158 -54.522124,23.31158 -11.559461,0 -15.0273,-1.73392 -18.880453,-4.23847 -5.779731,-4.04581 -8.669596,-10.21086 -8.476939,-18.6878 l 0,0 z"
     id="path20"
     style="fill:#ffffff"
     inkscape:connector-curvature="0" />
  <path
     d="m 153.93349,60.494509 c 3.85316,11.75212 0.19266,22.3483 -2.31189,28.89866 -2.50455,6.550363 -15.41262,35.063701 -85.154698,66.274241 -12.908065,5.77973 -15.605273,8.28428 -30.247257,8.47694 -12.330092,0.19266 -18.687795,-4.04581 -22.733607,-7.70631 l -1.910394,0.0683 c 15.592429,26.50996 45.055441,43.47231 76.661576,43.47231 46.4305,0 86.69596,-33.7151 86.69596,-84.76938 0,-28.037091 -11.38787,-47.647591 -22.67709,-60.271031 0.39148,1.46574 0.93349,3.28751 1.6774,5.55624 z"
     id="path22"
     style="fill:none"
     inkscape:connector-curvature="0" />
</svg>
