<?xml version="1.0" encoding="UTF-8" standalone="no"?>
<svg
   xmlns:dc="http://purl.org/dc/elements/1.1/"
   xmlns:cc="http://creativecommons.org/ns#"
   xmlns:rdf="http://www.w3.org/1999/02/22-rdf-syntax-ns#"
   xmlns:svg="http://www.w3.org/2000/svg"
   xmlns="http://www.w3.org/2000/svg"
   xmlns:xlink="http://www.w3.org/1999/xlink"
   xmlns:sodipodi="http://sodipodi.sourceforge.net/DTD/sodipodi-0.dtd"
   xmlns:inkscape="http://www.inkscape.org/namespaces/inkscape"
   viewBox="0 0 277.82319 200"
   height="200"
   width="277.82318"
   xml:space="preserve"
   version="1.1"
   id="svg2"
   inkscape:version="0.48.5 r10040"
   sodipodi:docname="logo_opencart.svg"
   inkscape:export-filename="C:\Users\BLJ\Documents\_MCLibre.org\Varios\apuntes webapps\logos webapps\logo_opencart.png"
   inkscape:export-xdpi="90"
   inkscape:export-ydpi="90"><sodipodi:namedview
     pagecolor="#ffffff"
     bordercolor="#666666"
     borderopacity="1"
     objecttolerance="10"
     gridtolerance="10"
     guidetolerance="10"
     inkscape:pageopacity="0"
     inkscape:pageshadow="2"
     inkscape:window-width="1280"
     inkscape:window-height="962"
     id="namedview112"
     showgrid="false"
     fit-margin-top="0"
     fit-margin-left="0"
     fit-margin-right="0"
     fit-margin-bottom="0"
     inkscape:zoom="3.3863636"
     inkscape:cx="133.7438"
     inkscape:cy="99.999997"
     inkscape:window-x="1272"
     inkscape:window-y="-8"
     inkscape:window-maximized="1"
     inkscape:current-layer="svg2" /><metadata
     id="metadata8"><rdf:RDF><cc:Work
         rdf:about=""><dc:format>image/svg+xml</dc:format><dc:type
           rdf:resource="http://purl.org/dc/dcmitype/StillImage" /><dc:title /></cc:Work></rdf:RDF></metadata><defs
     id="defs6"><clipPath
       id="clipPath16"
       clipPathUnits="userSpaceOnUse"><path
         id="path18"
         d="m 19.769,107.039 c -2.234,-2.544 -3.356,-5.696 -3.356,-9.45 l 0,0 c 0,-3.744 1.122,-6.898 3.356,-9.45 l 0,0 c 2.332,-2.675 5.352,-4.018 9.071,-4.018 l 0,0 c 3.709,0 6.738,1.343 9.069,4.018 l 0,0 c 2.235,2.552 3.348,5.706 3.348,9.45 l 0,0 c 0,3.754 -1.113,6.906 -3.348,9.45 l 0,0 c -2.331,2.649 -5.36,3.973 -9.069,3.973 l 0,0 c -3.683,0 -6.713,-1.324 -9.071,-3.973 m 5.255,-13.777 c -0.821,1.192 -1.228,2.64 -1.228,4.327 l 0,0 c 0,1.695 0.407,3.126 1.228,4.284 l 0,0 c 0.91,1.316 2.181,1.969 3.816,1.969 l 0,0 c 1.633,0 2.905,-0.653 3.815,-1.969 l 0,0 c 0.812,-1.158 1.218,-2.589 1.218,-4.284 l 0,0 c 0,-1.687 -0.406,-3.135 -1.218,-4.327 l 0,0 c -0.91,-1.315 -2.182,-1.97 -3.815,-1.97 l 0,0 c -1.635,0 -2.906,0.655 -3.816,1.97"
         inkscape:connector-curvature="0" /></clipPath><linearGradient
       id="linearGradient24"
       spreadMethod="pad"
       gradientTransform="matrix(24.84375,0,0,-24.84375,16.413086,97.566895)"
       gradientUnits="userSpaceOnUse"
       y2="0"
       x2="1"
       y1="0"
       x1="0"><stop
         id="stop26"
         offset="0"
         style="stop-opacity:1;stop-color:#38bced" /><stop
         id="stop28"
         offset="1"
         style="stop-opacity:1;stop-color:#4ac7ee" /></linearGradient><clipPath
       id="clipPath36"
       clipPathUnits="userSpaceOnUse"><path
         id="path38"
         d="m 50.238,108.177 c -0.724,1.565 -1.872,2.349 -3.444,2.349 l 0,0 c -1.042,0 -1.916,-0.379 -2.623,-1.129 l 0,0 c -0.706,-0.759 -1.06,-1.661 -1.06,-2.703 l 0,0 0,-28.552 c 0,-1.077 0.345,-1.988 1.033,-2.746 l 0,0 c 0.698,-0.752 1.572,-1.132 2.642,-1.132 l 0,0 c 2.613,0 3.92,2.19 3.92,6.58 l 0,0 c 0,0.796 -0.035,1.802 -0.105,3.038 l 0,0 c -0.071,1.228 -0.106,1.997 -0.106,2.315 l 0,0 c 1.66,-1.378 3.69,-2.076 6.084,-2.076 l 0,0 c 3.392,0 6.183,1.439 8.346,4.301 l 0,0 c 2.022,2.614 3.029,5.669 3.029,9.167 l 0,0 c 0,3.497 -1.015,6.553 -3.029,9.175 l 0,0 c -2.172,2.836 -4.954,4.248 -8.355,4.248 l 0,0 c -2.675,0 -4.787,-0.945 -6.332,-2.835 m 1.475,-14.915 c -0.813,1.192 -1.218,2.64 -1.218,4.327 l 0,0 c 0,1.695 0.405,3.126 1.218,4.284 l 0,0 c 0.91,1.316 2.182,1.969 3.815,1.969 l 0,0 c 1.634,0 2.905,-0.653 3.815,-1.969 l 0,0 c 0.813,-1.158 1.228,-2.589 1.228,-4.284 l 0,0 c 0,-1.687 -0.415,-3.135 -1.228,-4.327 l 0,0 c -0.91,-1.315 -2.181,-1.97 -3.815,-1.97 l 0,0 c -1.633,0 -2.905,0.655 -3.815,1.97"
         inkscape:connector-curvature="0" /></clipPath><linearGradient
       id="linearGradient44"
       spreadMethod="pad"
       gradientTransform="matrix(24.84375,0,0,-24.84375,43.11084,92.638672)"
       gradientUnits="userSpaceOnUse"
       y2="0"
       x2="1"
       y1="0"
       x1="0"><stop
         id="stop46"
         offset="0"
         style="stop-opacity:1;stop-color:#38bced" /><stop
         id="stop48"
         offset="1"
         style="stop-opacity:1;stop-color:#4ac7ee" /></linearGradient><clipPath
       id="clipPath56"
       clipPathUnits="userSpaceOnUse"><path
         id="path58"
         d="m 73.686,107.065 c -2.473,-2.632 -3.709,-5.783 -3.709,-9.476 l 0,0 c 0,-3.877 1.192,-7.083 3.568,-9.636 l 0,0 c 2.375,-2.552 5.484,-3.832 9.335,-3.832 l 0,0 c 2.393,0 4.733,0.433 7.038,1.28 l 0,0 c 3.021,1.13 4.532,2.704 4.532,4.725 l 0,0 c 0,0.875 -0.302,1.634 -0.893,2.262 l 0,0 c -0.601,0.635 -1.325,0.945 -2.181,0.945 l 0,0 c -0.469,0 -1.555,-0.39 -3.241,-1.185 l 0,0 c -1.687,-0.785 -3.126,-1.183 -4.329,-1.183 l 0,0 c -1.545,0 -2.852,0.3 -3.92,0.894 l 0,0 c -1.325,0.758 -1.987,1.845 -1.987,3.258 l 0,0 13.327,0 c 1.227,0 2.136,0.237 2.72,0.705 l 0,0 c 0.582,0.478 0.874,1.326 0.874,2.561 l 0,0 c 0,3.437 -1.149,6.403 -3.427,8.894 l 0,0 c -2.279,2.491 -5.122,3.735 -8.523,3.735 l 0,0 c -3.656,0 -6.72,-1.315 -9.184,-3.947 m 5.723,-3.744 c 1.007,0.927 2.093,1.386 3.259,1.386 l 0,0 c 1.13,0 2.198,-0.459 3.206,-1.386 l 0,0 c 1.007,-0.927 1.528,-1.952 1.563,-3.083 l 0,0 -9.538,0 c 0,1.131 0.504,2.156 1.51,3.083"
         inkscape:connector-curvature="0" /></clipPath><linearGradient
       id="linearGradient64"
       spreadMethod="pad"
       gradientTransform="matrix(24.842773,0,0,-24.842773,69.977051,97.566895)"
       gradientUnits="userSpaceOnUse"
       y2="0"
       x2="1"
       y1="0"
       x1="0"><stop
         id="stop66"
         offset="0"
         style="stop-opacity:1;stop-color:#38bced" /><stop
         id="stop68"
         offset="1"
         style="stop-opacity:1;stop-color:#4ac7ee" /></linearGradient><clipPath
       id="clipPath76"
       clipPathUnits="userSpaceOnUse"><path
         id="path78"
         d="m 104.146,108.177 c -0.689,1.565 -1.916,2.349 -3.683,2.349 l 0,0 c -1.068,0 -1.952,-0.37 -2.64,-1.112 l 0,0 c -0.698,-0.734 -1.042,-1.642 -1.042,-2.712 l 0,0 0,-18.218 c 0,-1.078 0.344,-1.987 1.042,-2.746 l 0,0 c 0.688,-0.752 1.563,-1.132 2.631,-1.132 l 0,0 c 2.544,0 3.816,2.05 3.816,6.138 l 0,0 c 0,0.786 -0.045,2.023 -0.133,3.726 l 0,0 c -0.079,1.697 -0.123,2.942 -0.123,3.728 l 0,0 c 0,4.337 1.395,6.509 4.195,6.509 l 0,0 c 2.8,0 4.204,-2.172 4.204,-6.509 l 0,0 c 0,-0.786 -0.053,-2.031 -0.169,-3.728 l 0,0 c -0.105,-1.703 -0.159,-2.94 -0.159,-3.726 l 0,0 c 0,-4.088 1.29,-6.138 3.869,-6.138 l 0,0 c 1.069,0 1.943,0.38 2.641,1.132 l 0,0 c 0.688,0.759 1.033,1.668 1.033,2.746 l 0,0 0,13.795 c 0,2.764 -0.831,4.936 -2.499,6.518 l 0,0 c -1.635,1.475 -3.86,2.215 -6.659,2.215 l 0,0 c -3.022,0 -5.131,-0.945 -6.324,-2.835"
         inkscape:connector-curvature="0" /></clipPath><linearGradient
       id="linearGradient84"
       spreadMethod="pad"
       gradientTransform="matrix(22.847656,0,0,-22.847656,96.780273,97.80957)"
       gradientUnits="userSpaceOnUse"
       y2="0"
       x2="1"
       y1="0"
       x1="0"><stop
         id="stop86"
         offset="0"
         style="stop-opacity:1;stop-color:#38bced" /><stop
         id="stop88"
         offset="1"
         style="stop-opacity:1;stop-color:#4ac7ee" /></linearGradient><clipPath
       id="clipPath96"
       clipPathUnits="userSpaceOnUse"><path
         id="path98"
         d="m 125.051,107.109 c -2.287,-2.597 -3.427,-5.766 -3.427,-9.52 l 0,0 c 0,-3.744 1.122,-6.898 3.355,-9.45 l 0,0 c 2.332,-2.675 5.352,-4.018 9.071,-4.018 l 0,0 c 1.926,0 3.753,0.398 5.484,1.183 l 0,0 c 2.174,0.973 3.258,2.297 3.258,3.965 l 0,0 c 0,0.823 -0.299,1.573 -0.891,2.27 l 0,0 c -0.601,0.689 -1.307,1.042 -2.128,1.042 l 0,0 c -0.565,0 -1.475,-0.22 -2.739,-0.643 l 0,0 c -1.263,-0.434 -2.251,-0.646 -2.975,-0.646 l 0,0 c -1.634,0 -2.916,0.671 -3.824,2.023 l 0,0 c -0.822,1.155 -1.228,2.587 -1.228,4.274 l 0,0 c 0,1.793 0.459,3.241 1.369,4.372 l 0,0 c 0.981,1.254 2.35,1.881 4.107,1.881 l 0,0 c 0.663,0 1.563,-0.194 2.693,-0.602 l 0,0 c 1.13,-0.396 1.995,-0.599 2.597,-0.599 l 0,0 c 0.883,0 1.607,0.353 2.171,1.042 l 0,0 c 0.566,0.698 0.848,1.502 0.848,2.411 l 0,0 c 0,1.802 -1.068,3.125 -3.213,3.973 l 0,0 c -1.537,0.628 -3.383,0.945 -5.529,0.945 l 0,0 c -3.719,0 -6.712,-1.298 -8.999,-3.903"
         inkscape:connector-curvature="0" /></clipPath><linearGradient
       id="linearGradient104"
       spreadMethod="pad"
       gradientTransform="matrix(21.167969,0,0,-21.167969,121.62402,97.566895)"
       gradientUnits="userSpaceOnUse"
       y2="0"
       x2="1"
       y1="0"
       x1="0"><stop
         id="stop106"
         offset="0"
         style="stop-opacity:1;stop-color:#38bced" /><stop
         id="stop108"
         offset="1"
         style="stop-opacity:1;stop-color:#4ac7ee" /></linearGradient><linearGradient
       id="linearGradient124"
       spreadMethod="pad"
       gradientTransform="matrix(24.841797,0,0,-24.841797,144.79004,97.566895)"
       gradientUnits="userSpaceOnUse"
       y2="0"
       x2="1"
       y1="0"
       x1="0"><stop
         id="stop126"
         offset="0"
         style="stop-opacity:1;stop-color:#38bced" /><stop
         id="stop128"
         offset="1"
         style="stop-opacity:1;stop-color:#4ac7ee" /></linearGradient><linearGradient
       id="linearGradient144"
       spreadMethod="pad"
       gradientTransform="matrix(16.25,0,0,-16.25,172.21973,97.80957)"
       gradientUnits="userSpaceOnUse"
       y2="0"
       x2="1"
       y1="0"
       x1="0"><stop
         id="stop146"
         offset="0"
         style="stop-opacity:1;stop-color:#38bced" /><stop
         id="stop148"
         offset="1"
         style="stop-opacity:1;stop-color:#4ac7ee" /></linearGradient><linearGradient
       id="linearGradient164"
       spreadMethod="pad"
       gradientTransform="matrix(18,0,0,-18,189.73145,101.79688)"
       gradientUnits="userSpaceOnUse"
       y2="0"
       x2="1"
       y1="0"
       x1="0"><stop
         id="stop166"
         offset="0"
         style="stop-opacity:1;stop-color:#38bced" /><stop
         id="stop168"
         offset="1"
         style="stop-opacity:1;stop-color:#4ac7ee" /></linearGradient><linearGradient
       id="linearGradient184"
       spreadMethod="pad"
       gradientTransform="matrix(8.7958984,0,0,-8.7958984,118.20605,117.05811)"
       gradientUnits="userSpaceOnUse"
       y2="0"
       x2="1"
       y1="0"
       x1="0"><stop
         id="stop186"
         offset="0"
         style="stop-opacity:1;stop-color:#38bced" /><stop
         id="stop188"
         offset="1"
         style="stop-opacity:1;stop-color:#4ac7ee" /></linearGradient><linearGradient
       id="linearGradient204"
       spreadMethod="pad"
       gradientTransform="matrix(53.858398,0,0,-53.858398,213.18848,108.96924)"
       gradientUnits="userSpaceOnUse"
       y2="0"
       x2="1"
       y1="0"
       x1="0"><stop
         id="stop206"
         offset="0"
         style="stop-opacity:1;stop-color:#38bced" /><stop
         id="stop208"
         offset="1"
         style="stop-opacity:1;stop-color:#4ac7ee" /></linearGradient><linearGradient
       id="linearGradient224"
       spreadMethod="pad"
       gradientTransform="matrix(7.6914062,0,0,-7.6914062,223.60254,88.064453)"
       gradientUnits="userSpaceOnUse"
       y2="0"
       x2="1"
       y1="0"
       x1="0"><stop
         id="stop226"
         offset="0"
         style="stop-opacity:1;stop-color:#38bced" /><stop
         id="stop228"
         offset="1"
         style="stop-opacity:1;stop-color:#4ac7ee" /></linearGradient><linearGradient
       id="linearGradient244"
       spreadMethod="pad"
       gradientTransform="matrix(7.6914062,0,0,-7.6914062,241.12402,88.064453)"
       gradientUnits="userSpaceOnUse"
       y2="0"
       x2="1"
       y1="0"
       x1="0"><stop
         id="stop246"
         offset="0"
         style="stop-opacity:1;stop-color:#38bced" /><stop
         id="stop248"
         offset="1"
         style="stop-opacity:1;stop-color:#4ac7ee" /></linearGradient><linearGradient
       inkscape:collect="always"
       xlink:href="#linearGradient204"
       id="linearGradient3166"
       gradientUnits="userSpaceOnUse"
       gradientTransform="matrix(53.858398,0,0,-53.858398,213.18848,108.96924)"
       spreadMethod="pad"
       x1="0"
       y1="0"
       x2="1"
       y2="0" /><linearGradient
       inkscape:collect="always"
       xlink:href="#linearGradient224"
       id="linearGradient3168"
       gradientUnits="userSpaceOnUse"
       gradientTransform="matrix(7.6914062,0,0,-7.6914062,223.60254,88.064453)"
       spreadMethod="pad"
       x1="0"
       y1="0"
       x2="1"
       y2="0" /><linearGradient
       inkscape:collect="always"
       xlink:href="#linearGradient244"
       id="linearGradient3170"
       gradientUnits="userSpaceOnUse"
       gradientTransform="matrix(7.6914062,0,0,-7.6914062,241.12402,88.064453)"
       spreadMethod="pad"
       x1="0"
       y1="0"
       x2="1"
       y2="0" /></defs><g
     id="g3149"
     transform="matrix(3.8687714,0,0,3.8687714,-1099.7008,-383.08059)"><g
       transform="matrix(1.3333333,0,0,-1.3333333,0,263.00533)"
       id="g192"><g
         id="g194"><g
           id="g200"><g
             id="g202"><path
               id="path210"
               style="fill:url(#linearGradient3166);stroke:none"
               d="m 244.577,110.846 c 28.059,0.433 10.941,-7.234 5.961,-15.897 l 0,0 c 15.711,14.024 26.892,19.685 1.457,19.685 l 0,0 c -25.443,0 -31.898,1.087 -38.807,8.356 l 0,0 c 2.906,-4.365 4.497,-12.552 31.389,-12.144"
               inkscape:connector-curvature="0" /></g></g></g></g><g
       transform="matrix(1.3333333,0,0,-1.3333333,0,263.00533)"
       id="g212"><g
         id="g214"><g
           id="g220"><g
             id="g222"><path
               id="path230"
               style="fill:url(#linearGradient3168);stroke:none"
               d="m 223.602,88.06 c 0,-2.121 1.721,-3.842 3.85,-3.842 l 0,0 c 2.121,0 3.842,1.721 3.842,3.842 l 0,0 c 0,2.128 -1.721,3.85 -3.842,3.85 l 0,0 c -2.129,0 -3.85,-1.722 -3.85,-3.85"
               inkscape:connector-curvature="0" /></g></g></g></g><g
       transform="matrix(1.3333333,0,0,-1.3333333,0,263.00533)"
       id="g232"><g
         id="g234"><g
           id="g240"><g
             id="g242"><path
               id="path250"
               style="fill:url(#linearGradient3170);stroke:none"
               d="m 241.124,88.06 c 0,-2.121 1.723,-3.842 3.85,-3.842 l 0,0 c 2.121,0 3.842,1.721 3.842,3.842 l 0,0 c 0,2.128 -1.721,3.85 -3.842,3.85 l 0,0 c -2.127,0 -3.85,-1.722 -3.85,-3.85"
               inkscape:connector-curvature="0" /></g></g></g></g></g></svg>
