<?xml version="1.0" encoding="UTF-8" standalone="no"?>
<svg
   xmlns:dc="http://purl.org/dc/elements/1.1/"
   xmlns:cc="http://creativecommons.org/ns#"
   xmlns:rdf="http://www.w3.org/1999/02/22-rdf-syntax-ns#"
   xmlns:svg="http://www.w3.org/2000/svg"
   xmlns="http://www.w3.org/2000/svg"
   xmlns:sodipodi="http://sodipodi.sourceforge.net/DTD/sodipodi-0.dtd"
   xmlns:inkscape="http://www.inkscape.org/namespaces/inkscape"
   version="1.1"
   width="357.41129"
   height="200"
   id="svg8944"
   inkscape:version="0.48.5 r10040"
   sodipodi:docname="logo-owncloud.svg"
   inkscape:export-filename="C:\Users\BLJ\Documents\_MCLibre.org\Varios\apuntes webapps\logos webapps\logo-owncloud.png"
   inkscape:export-xdpi="90"
   inkscape:export-ydpi="90">
  <metadata
     id="metadata26">
    <rdf:RDF>
      <cc:Work
         rdf:about="">
        <dc:format>image/svg+xml</dc:format>
        <dc:type
           rdf:resource="http://purl.org/dc/dcmitype/StillImage" />
        <dc:title></dc:title>
      </cc:Work>
    </rdf:RDF>
  </metadata>
  <sodipodi:namedview
     pagecolor="#ffffff"
     bordercolor="#666666"
     borderopacity="1"
     objecttolerance="10"
     gridtolerance="10"
     guidetolerance="10"
     inkscape:pageopacity="0"
     inkscape:pageshadow="2"
     inkscape:window-width="1280"
     inkscape:window-height="962"
     id="namedview24"
     showgrid="false"
     fit-margin-top="0"
     fit-margin-left="0"
     fit-margin-right="0"
     fit-margin-bottom="0"
     inkscape:zoom="1.9318801"
     inkscape:cx="78.083308"
     inkscape:cy="35.290842"
     inkscape:window-x="1272"
     inkscape:window-y="-8"
     inkscape:window-maximized="1"
     inkscape:current-layer="svg8944" />
  <defs
     id="defs8946" />
  <g
     id="g3003"
     transform="matrix(1.3105464,0,0,1.3105464,-275.86434,-50.112962)">
    <rect
       style="fill:#1d2d44;fill-opacity:1"
       id="rect236"
       y="38.23822"
       x="210.49567"
       height="152.60811"
       width="272.7193" />
    <circle
       style="fill:#ffffff;fill-opacity:1;stroke:#1d2d44;stroke-width:3.05216217;stroke-opacity:1"
       id="circle265"
       transform="translate(2.0703125e-7,-1.1660156e-5)"
       r="20.332001"
       cy="78.911003"
       cx="288.49399"
       sodipodi:cx="288.49399"
       sodipodi:cy="78.911003"
       sodipodi:rx="20.332001"
       sodipodi:ry="20.332001"
       d="m 308.82599,78.911003 c 0,11.229054 -9.10295,20.332001 -20.332,20.332001 -11.22906,0 -20.332,-9.102947 -20.332,-20.332001 0,-11.229054 9.10294,-20.332001 20.332,-20.332001 11.22905,0 20.332,9.102947 20.332,20.332001 z" />
    <circle
       style="fill:#ffffff;fill-opacity:1;stroke:#1d2d44;stroke-width:3.05216217;stroke-opacity:1"
       id="circle272"
       transform="translate(2.0703125e-7,-1.1660156e-5)"
       r="37.242001"
       cy="149.577"
       cx="251.211"
       sodipodi:cx="251.211"
       sodipodi:cy="149.577"
       sodipodi:rx="37.242001"
       sodipodi:ry="37.242001"
       d="m 288.453,149.577 c 0,20.56818 -16.67381,37.242 -37.242,37.242 -20.56819,0 -37.242,-16.67382 -37.242,-37.242 0,-20.56819 16.67381,-37.242 37.242,-37.242 20.56819,0 37.242,16.67381 37.242,37.242 z" />
    <circle
       style="fill:#ffffff;fill-opacity:1;stroke:#1d2d44;stroke-width:3.05216217;stroke-opacity:1"
       id="circle279"
       transform="translate(2.0703125e-7,-1.1660156e-5)"
       r="40.261002"
       cy="124.796"
       cx="293.22501"
       sodipodi:cx="293.22501"
       sodipodi:cy="124.796"
       sodipodi:rx="40.261002"
       sodipodi:ry="40.261002"
       d="m 333.48601,124.796 c 0,22.23553 -18.02547,40.261 -40.261,40.261 -22.23554,0 -40.26101,-18.02547 -40.26101,-40.261 0,-22.23554 18.02547,-40.261004 40.26101,-40.261004 22.23553,0 40.261,18.025464 40.261,40.261004 z" />
    <circle
       style="fill:#ffffff;fill-opacity:1;stroke:#1d2d44;stroke-width:3.05216217;stroke-opacity:1"
       id="circle286"
       transform="translate(2.0703125e-7,-1.1660156e-5)"
       r="37.242001"
       cy="108.472"
       cx="375.33401"
       sodipodi:cx="375.33401"
       sodipodi:cy="108.472"
       sodipodi:rx="37.242001"
       sodipodi:ry="37.242001"
       d="m 412.57602,108.472 c 0,20.56819 -16.67382,37.242 -37.24201,37.242 -20.56818,0 -37.242,-16.67381 -37.242,-37.242 0,-20.568189 16.67382,-37.242 37.242,-37.242 20.56819,0 37.24201,16.673811 37.24201,37.242 z" />
    <circle
       style="fill:#ffffff;fill-opacity:1;stroke:#1d2d44;stroke-width:3.05216217;stroke-opacity:1"
       id="circle293"
       transform="translate(2.0703125e-7,-1.1660156e-5)"
       r="37.241001"
       cy="79.503998"
       cx="334.49301"
       sodipodi:cx="334.49301"
       sodipodi:cy="79.503998"
       sodipodi:rx="37.241001"
       sodipodi:ry="37.241001"
       d="m 371.73401,79.503998 c 0,20.567632 -16.67336,37.241002 -37.241,37.241002 -20.56764,0 -37.241,-16.67337 -37.241,-37.241002 0,-20.567637 16.67336,-37.241001 37.241,-37.241001 20.56764,0 37.241,16.673364 37.241,37.241001 z" />
    <circle
       style="fill:#ffffff;fill-opacity:1;stroke:#1d2d44;stroke-width:3.05216217;stroke-opacity:1"
       id="circle300"
       transform="translate(2.0703125e-7,-1.1660156e-5)"
       r="21.299999"
       cy="163.95799"
       cx="458.427"
       sodipodi:cx="458.427"
       sodipodi:cy="163.95799"
       sodipodi:rx="21.299999"
       sodipodi:ry="21.299999"
       d="m 479.727,163.95799 c 0,11.76367 -9.53633,21.3 -21.3,21.3 -11.76366,0 -21.3,-9.53633 -21.3,-21.3 0,-11.76366 9.53634,-21.3 21.3,-21.3 11.76367,0 21.3,9.53634 21.3,21.3 z" />
    <circle
       style="fill:#ffffff;fill-opacity:1;stroke:#1d2d44;stroke-width:3.05216217;stroke-opacity:1"
       id="circle307"
       transform="translate(2.0703125e-7,-1.1660156e-5)"
       r="40.261002"
       cy="147.563"
       cx="413.16299"
       sodipodi:cx="413.16299"
       sodipodi:cy="147.563"
       sodipodi:rx="40.261002"
       sodipodi:ry="40.261002"
       d="m 453.424,147.563 c 0,22.23554 -18.02547,40.26101 -40.26101,40.26101 -22.23553,0 -40.261,-18.02547 -40.261,-40.26101 0,-22.23553 18.02547,-40.261 40.261,-40.261 22.23554,0 40.26101,18.02547 40.26101,40.261 z" />
    <circle
       style="fill:#ffffff;fill-opacity:1;stroke:#1d2d44;stroke-width:3.05216217;stroke-opacity:1"
       id="circle314"
       transform="translate(2.0703125e-7,-1.1660156e-5)"
       r="21.299"
       cy="166.011"
       cx="290.76199"
       sodipodi:cx="290.76199"
       sodipodi:cy="166.011"
       sodipodi:rx="21.299"
       sodipodi:ry="21.299"
       d="m 312.06099,166.011 c 0,11.76311 -9.53588,21.299 -21.299,21.299 -11.76311,0 -21.299,-9.53589 -21.299,-21.299 0,-11.76311 9.53589,-21.299 21.299,-21.299 11.76312,0 21.299,9.53589 21.299,21.299 z" />
    <path
       style="fill:#ffffff;fill-opacity:1;stroke:#1d2d44;stroke-width:3.05216217;stroke-opacity:1"
       id="path321"
       d="m 398.107,135.66899 c 0,28.348 -22.984,51.328 -51.334,51.328 -28.35,0 -51.333,-22.98 -51.333,-51.328 0,-28.351 22.984,-51.333002 51.333,-51.333002 28.349,0 51.334,22.982002 51.334,51.333002 z"
       inkscape:connector-curvature="0" />
  </g>
</svg>
