<?xml version="1.0" encoding="UTF-8" standalone="no"?>
<!-- Created with Inkscape (http://www.inkscape.org/) -->

<svg
   xmlns:dc="http://purl.org/dc/elements/1.1/"
   xmlns:cc="http://creativecommons.org/ns#"
   xmlns:rdf="http://www.w3.org/1999/02/22-rdf-syntax-ns#"
   xmlns:svg="http://www.w3.org/2000/svg"
   xmlns="http://www.w3.org/2000/svg"
   xmlns:sodipodi="http://sodipodi.sourceforge.net/DTD/sodipodi-0.dtd"
   xmlns:inkscape="http://www.inkscape.org/namespaces/inkscape"
   width="307.34464"
   height="317.93491"
   id="svg2"
   version="1.1"
   inkscape:version="0.48.0 r9654"
   sodipodi:docname="OJS-LOGO.svg">
  <defs
     id="defs4">
    <inkscape:path-effect
       effect="skeletal"
       id="path-effect4212"
       is_visible="true"
       pattern="m 0,1.6979328 c 0,0 157.90527,-2.91177 225.26397,-1.10915997 13.82,0.36983 44.9139,1.38423997 78.6339,1.51026997 40.1184,0.14994 93.1454,-1.99510997 169.9933,-1.71893997 173.3809,0.62311997 243.0916,1.31782997 243.0916,1.31782997 0,0 -69.8269,2.08053 -243.0983,4.72436 -76.8424,1.17249 -130.2954,-1.75388 -170.3492,-1.46 -33.9874,0.24937 -64.6294,2.29306 -78.2713,2.38625 C 159.29407,7.7992028 0,1.6979328 0,1.6979328 z"
       copytype="single_stretched"
       prop_scale="1"
       scale_y_rel="false"
       spacing="0"
       normal_offset="0"
       tang_offset="0"
       prop_units="false"
       vertical_pattern="false"
       fuse_tolerance="0" />
    <inkscape:path-effect
       effect="skeletal"
       id="path-effect4173"
       is_visible="true"
       pattern="m 0,1.6979328 c 0,0 157.90527,-2.91177 225.26397,-1.10915997 13.82,0.36983 44.9139,1.38423997 78.6339,1.51026997 40.1184,0.14994 93.1454,-1.99510997 169.9933,-1.71893997 173.3809,0.62311997 243.0916,1.31782997 243.0916,1.31782997 0,0 -69.8269,2.08053 -243.0983,4.72436 -76.8424,1.17249 -130.2954,-1.75388 -170.3492,-1.46 -33.9874,0.24937 -64.6294,2.29306 -78.2713,2.38625 C 159.29407,7.7992028 0,1.6979328 0,1.6979328 z"
       copytype="single_stretched"
       prop_scale="1"
       scale_y_rel="false"
       spacing="0"
       normal_offset="0"
       tang_offset="0"
       prop_units="false"
       vertical_pattern="false"
       fuse_tolerance="0" />
    <inkscape:path-effect
       effect="skeletal"
       id="path-effect4086"
       is_visible="true"
       pattern="M 0,0 1,0"
       copytype="single_stretched"
       prop_scale="1"
       scale_y_rel="false"
       spacing="0"
       normal_offset="0"
       tang_offset="0"
       prop_units="false"
       vertical_pattern="false"
       fuse_tolerance="0" />
    <inkscape:path-effect
       fuse_tolerance="0"
       vertical_pattern="false"
       prop_units="false"
       tang_offset="0"
       normal_offset="0"
       spacing="0"
       scale_y_rel="false"
       prop_scale="1"
       copytype="single_stretched"
       pattern="m -79.300397,132.64786 c 0,0 157.90525,-5.74204 225.264007,-2.18728 13.81995,0.72932 44.91382,2.72975 78.63383,2.97828 40.11846,0.29568 93.14544,-3.93439 169.99329,-3.38977 173.38097,1.2288 243.0916,2.59877 243.0916,2.59877 0,0 -69.82689,4.10283 -243.0983,9.31649 -76.84233,2.31216 -130.29541,-3.45867 -170.34912,-2.87913 -33.98744,0.49175 -64.62945,4.52193 -78.2713,4.7057 -65.969907,0.88871 -225.264007,-11.14306 -225.264007,-11.14306 z"
       is_visible="true"
       id="path-effect3977"
       effect="skeletal" />
    <inkscape:path-effect
       effect="skeletal"
       id="path-effect3901"
       is_visible="true"
       pattern="m 0,3.3483431 c 0,0 157.90525,-5.74204 225.26401,-2.18728 13.81995,0.72932 44.91382,2.72975 78.63383,2.97828 40.11846,0.29568 93.14544,-3.93438999 169.99329,-3.38976999 173.38097,1.22879999 243.0916,2.59876999 243.0916,2.59876999 0,0 -69.82689,4.10283 -243.0983,9.3164899 C 397.0421,14.976993 343.58902,9.2061631 303.53531,9.7857031 269.54787,10.277453 238.90586,14.307633 225.26401,14.491403 159.2941,15.380113 0,3.3483431 0,3.3483431 z"
       copytype="single_stretched"
       prop_scale="1"
       scale_y_rel="false"
       spacing="0"
       normal_offset="0"
       tang_offset="0"
       prop_units="false"
       vertical_pattern="false"
       fuse_tolerance="0" />
    <inkscape:path-effect
       effect="skeletal"
       id="path-effect3837"
       is_visible="true"
       pattern="m 0,3.3483431 c 0,0 157.90525,-5.74204 225.26401,-2.18728 13.81995,0.72932 44.91382,2.72975 78.63383,2.97828 40.11846,0.29568 93.14544,-3.93438999 169.99329,-3.38976999 173.38097,1.22879999 243.0916,2.59876999 243.0916,2.59876999 0,0 -69.82689,4.10283 -243.0983,9.3164899 C 397.0421,14.976993 343.58902,9.2061631 303.53531,9.7857031 269.54787,10.277453 238.90586,14.307633 225.26401,14.491403 159.2941,15.380113 0,3.3483431 0,3.3483431 z"
       copytype="single_stretched"
       prop_scale="1"
       scale_y_rel="false"
       spacing="0"
       normal_offset="0"
       tang_offset="0"
       prop_units="false"
       vertical_pattern="false"
       fuse_tolerance="0" />
    <inkscape:path-effect
       effect="skeletal"
       id="path-effect3825"
       is_visible="true"
       pattern="m -69.700526,95.71943 c 0,0 177.786836,-4.34435 275.771636,-2.18195 97.98479,2.1624 273.35395,2.18195 273.35395,2.18195 0,0 -177.38946,5.38646 -273.35395,5.92707 -95.96449,0.5406 -275.771636,-5.92707 -275.771636,-5.92707 z"
       copytype="single_stretched"
       prop_scale="1"
       scale_y_rel="false"
       spacing="0"
       normal_offset="0"
       tang_offset="0"
       prop_units="false"
       vertical_pattern="false"
       fuse_tolerance="0" />
    <inkscape:path-effect
       effect="skeletal"
       id="path-effect3817"
       is_visible="true"
       pattern="m -712.15754,132.64786 c 0,0 157.90525,-5.74204 225.26401,-2.18728 13.81995,0.72932 44.91382,2.72975 78.63383,2.97828 40.11846,0.29568 93.14544,-3.93439 169.99329,-3.38977 173.380966,1.2288 243.0915957,2.59877 243.0915957,2.59877 0,0 -69.8268897,4.10283 -243.0982957,9.31649 -76.84233,2.31216 -130.29541,-3.45867 -170.34912,-2.87913 -33.98744,0.49175 -64.62945,4.52193 -78.2713,4.7057 -65.96991,0.88871 -225.26401,-11.14306 -225.26401,-11.14306 z"
       copytype="single_stretched"
       prop_scale="1"
       scale_y_rel="false"
       spacing="0"
       normal_offset="0"
       tang_offset="0"
       prop_units="false"
       vertical_pattern="false"
       fuse_tolerance="0" />
    <inkscape:path-effect
       effect="skeletal"
       id="path-effect3809"
       is_visible="true"
       pattern="m 0,3.3483431 c 0,0 157.90525,-5.74204 225.26401,-2.18728 13.81995,0.72932 44.91382,2.72975 78.63383,2.97828 40.11846,0.29568 93.14544,-3.93438999 169.99329,-3.38976999 173.38097,1.22879999 243.0916,2.59876999 243.0916,2.59876999 0,0 -69.82689,4.10283 -243.0983,9.3164899 C 397.0421,14.976993 343.58902,9.2061631 303.53531,9.7857031 269.54787,10.277453 238.90586,14.307633 225.26401,14.491403 159.2941,15.380113 0,3.3483431 0,3.3483431 z"
       copytype="single_stretched"
       prop_scale="1"
       scale_y_rel="false"
       spacing="0"
       normal_offset="0"
       tang_offset="0"
       prop_units="false"
       vertical_pattern="false"
       fuse_tolerance="0" />
    <inkscape:path-effect
       effect="skeletal"
       id="path-effect3801"
       is_visible="true"
       pattern="m 0,3.3483431 c 0,0 157.90525,-5.74204 225.26401,-2.18728 13.81995,0.72932 44.91382,2.72975 78.63383,2.97828 40.11846,0.29568 93.14544,-3.93438999 169.99329,-3.38976999 173.38097,1.22879999 243.0916,2.59876999 243.0916,2.59876999 0,0 -69.82689,4.10283 -243.0983,9.3164899 C 397.0421,14.976993 343.58902,9.2061631 303.53531,9.7857031 269.54787,10.277453 238.90586,14.307633 225.26401,14.491403 159.2941,15.380113 0,3.3483431 0,3.3483431 z"
       copytype="single_stretched"
       prop_scale="1"
       scale_y_rel="false"
       spacing="0"
       normal_offset="0"
       tang_offset="0"
       prop_units="false"
       vertical_pattern="false"
       fuse_tolerance="0" />
    <inkscape:path-effect
       effect="skeletal"
       id="path-effect3759"
       is_visible="true"
       pattern="m 313.14729,216.93774 c 0,0 177.78684,-4.34435 275.77164,-2.18195 97.98479,2.1624 273.35396,2.18195 273.35396,2.18195 0,0 -177.38947,5.38646 -273.35396,5.92707 -95.96449,0.5406 -275.77164,-5.92707 -275.77164,-5.92707 z"
       copytype="single_stretched"
       prop_scale="1"
       scale_y_rel="false"
       spacing="0"
       normal_offset="0"
       tang_offset="0"
       prop_units="false"
       vertical_pattern="false"
       fuse_tolerance="0" />
    <inkscape:path-effect
       effect="skeletal"
       id="path-effect3801-4"
       is_visible="true"
       pattern="m 77.837781,5.527169 c 0,0 157.905229,-5.74203999 225.263989,-2.18728 13.81995,0.72932 44.91382,2.72975 78.63383,2.97828 40.11846,0.29568 93.14544,-3.93439 169.99329,-3.38977 173.38097,1.2288 243.0916,2.59877 243.0916,2.59877 0,0 -69.82689,4.10283 -243.0983,9.31649 -76.84233,2.31216 -130.29541,-3.45867 -170.34912,-2.87913 -33.98744,0.49175 -64.62945,4.52193 -78.2713,4.7057 C 237.13186,17.558939 77.837781,5.527169 77.837781,5.527169 z"
       copytype="single_stretched"
       prop_scale="1"
       scale_y_rel="false"
       spacing="0"
       normal_offset="0"
       tang_offset="0"
       prop_units="false"
       vertical_pattern="false"
       fuse_tolerance="0" />
  </defs>
  <sodipodi:namedview
     id="base"
     pagecolor="#ffffff"
     bordercolor="#666666"
     borderopacity="1.0"
     inkscape:pageopacity="0.0"
     inkscape:pageshadow="2"
     inkscape:zoom="0.70710678"
     inkscape:cx="503.25633"
     inkscape:cy="132.49657"
     inkscape:document-units="px"
     inkscape:current-layer="layer1"
     showgrid="false"
     inkscape:window-width="1280"
     inkscape:window-height="961"
     inkscape:window-x="-4"
     inkscape:window-y="-4"
     inkscape:window-maximized="1"
     fit-margin-top="0"
     fit-margin-left="0"
     fit-margin-right="0"
     fit-margin-bottom="0" />
  <metadata
     id="metadata7">
    <rdf:RDF>
      <cc:Work
         rdf:about="">
        <dc:format>image/svg+xml</dc:format>
        <dc:type
           rdf:resource="http://purl.org/dc/dcmitype/StillImage" />
        <dc:title></dc:title>
      </cc:Work>
    </rdf:RDF>
  </metadata>
  <g
     inkscape:label="Layer 1"
     inkscape:groupmode="layer"
     id="layer1"
     transform="translate(-152.9756,-186.51944)">
    <path
       sodipodi:nodetypes="ccssssc"
       inkscape:connector-curvature="0"
       id="path4037"
       d="M 280.35455,343.30004 168.55006,311.168 c 0,0 -11.2744,-4.50977 -12.77765,-8.26789 -1.50326,-3.75814 0.75163,-32.31996 3.75813,-40.58785 3.00651,-8.2679 22.5488,-30.06507 27.81019,-31.56832 5.26139,-1.50325 72.9078,42.84272 84.18216,54.86875 11.27442,12.02603 21.04555,32.13204 23.30048,39.64831"
       style="color:#000000;fill:#fff1f1;fill-opacity:1;fill-rule:nonzero;stroke:none;stroke-width:1px;marker:none;visibility:visible;display:inline;overflow:visible;enable-background:accumulate"
       inkscape:export-filename="D:\Downloads\ojs-logo.png"
       inkscape:export-xdpi="22.55176"
       inkscape:export-ydpi="22.55176" />
    <path
       sodipodi:nodetypes="cssssc"
       inkscape:connector-curvature="0"
       id="path4035"
       d="m 344.23621,305.65406 c 0,0 3.57022,-32.31995 2.06694,-39.08458 -1.50324,-6.76465 -24.05201,-76.66593 -28.56181,-78.16918 -4.50975,-1.50326 -30.81668,10.52277 -35.32643,15.03253 -4.5098,4.50976 -25.55532,39.83621 -25.55532,43.59435 0,3.75813 61.44545,56.372 64.45197,63.13664"
       style="fill:#fff1f1;fill-opacity:1;stroke:none"
       inkscape:export-filename="D:\Downloads\ojs-logo.png"
       inkscape:export-xdpi="22.55176"
       inkscape:export-ydpi="22.55176" />
    <path
       style="color:#000000;fill:#ffd6d6;fill-opacity:1;fill-rule:nonzero;stroke:none;stroke-width:1px;marker:none;visibility:visible;display:inline;overflow:visible;enable-background:accumulate"
       d="m 320.69014,188.27785 c -6.62262,0.0991 -30.02048,10.93147 -34.24832,15.15937 -4.50985,4.50976 -25.55068,39.82917 -25.55068,43.58731 0,3.75813 61.44549,56.372 64.45201,63.13664 l 1.98949,-0.3946 c -0.22382,-0.3903 -0.47395,-0.79021 -0.95363,-1.38112 -0.61521,-0.75786 -1.43299,-1.68264 -2.41698,-2.72934 -1.96786,-2.0934 -4.60308,-4.70706 -7.69477,-7.67834 -6.18329,-5.94254 -14.14698,-13.26856 -22.01559,-20.50297 -7.86862,-7.2344 -15.64911,-14.3772 -21.45662,-19.94394 -2.90371,-2.78337 -5.31816,-5.17624 -7.00419,-6.98778 -0.84304,-0.90577 -1.50581,-1.67553 -1.95661,-2.26897 -0.45079,-0.59345 -0.69056,-1.0147 -0.69056,-1.24958 0,-0.46977 0.33647,-1.4278 0.92075,-2.76223 0.58427,-1.33443 1.42809,-3.04291 2.44988,-4.99832 2.04347,-3.91081 4.81506,-8.81282 7.72761,-13.74537 2.9126,-4.93255 5.95899,-9.88859 8.56622,-13.89335 1.30361,-2.00238 2.49505,-3.77428 3.50214,-5.17918 1.00703,-1.4049 1.83675,-2.44513 2.40045,-3.00886 0.56376,-0.56372 1.45456,-1.2484 2.61428,-2.0059 1.15971,-0.7575 2.57434,-1.5972 4.15976,-2.46627 3.17093,-1.73814 7.03242,-3.61955 10.88454,-5.31072 1.92604,-0.84558 3.84797,-1.64066 5.68883,-2.35118 1.8409,-0.71052 3.59373,-1.33179 5.1792,-1.82504 1.58547,-0.49326 3.00004,-0.8585 4.15976,-1.05228 0.13569,-0.0227 0.23324,-0.0149 0.36177,-0.0329 -0.28017,-0.091 -0.63384,-0.1216 -1.06874,-0.1151 z"
       id="path4270"
       inkscape:connector-curvature="0"
       inkscape:export-filename="D:\Downloads\ojs-logo.png"
       inkscape:export-xdpi="22.55176"
       inkscape:export-ydpi="22.55176" />
    <path
       style="color:#000000;fill:#ffd6d6;fill-opacity:1;fill-rule:nonzero;stroke:none;stroke-width:1px;marker:none;visibility:visible;display:inline;overflow:visible;enable-background:accumulate"
       d="m 171.81165,243.45665 c -5.20936,6.08986 -9.86737,12.4937 -11.21339,16.19521 -3.00651,8.26789 -5.26838,36.83675 -3.76515,40.59489 1.50323,3.75813 12.77528,8.27024 12.77528,8.27024 l 108.88137,36.37919 2.58139,-3.20616 -108.79913,-36.36275 c 0,0 -11.2721,-4.51211 -12.77534,-8.27024 -1.50323,-3.75814 0.74223,-32.327 3.74874,-40.59489 1.11179,-3.0575 4.49018,-7.95813 8.56623,-13.00549 z"
       id="path4064"
       inkscape:connector-curvature="0"
       sodipodi:nodetypes="cssccccssc"
       inkscape:export-filename="D:\Downloads\ojs-logo.png"
       inkscape:export-xdpi="22.55176"
       inkscape:export-ydpi="22.55176" />
    <path
       style="fill:#000000;fill-opacity:1;stroke:#000000;stroke-width:0.52613872px;stroke-linecap:butt;stroke-linejoin:miter;stroke-opacity:1"
       d="m 279.27804,347.04578 c 0,0 -19.61434,-4.14547 -43.24611,-9.91066 -23.63177,-5.76518 -51.2827,-13.15069 -67.11562,-19.5479 -0.67102,-0.27112 -1.42735,-0.58084 -2.26214,-0.92372 -6e-5,-3e-5 -6e-5,-3e-5 -6e-5,-3e-5 0,0 -1e-5,0 -1e-5,0 -0.039,-0.0157 -0.0782,-0.0315 -0.11695,-0.0472 0,0 0,0 0,0 -0.10736,-0.0434 -0.2138,-0.0865 -0.31931,-0.12934 -1e-5,0 -1e-5,0 -1e-5,0 -0.13432,-0.0705 -0.26623,-0.14103 -0.39557,-0.21133 -0.44078,-0.23953 -0.89259,-0.49243 -1.35349,-0.75739 0,0 0,-1e-5 0,-1e-5 -1.2716,-0.73036 -2.67114,-1.57611 -4.15983,-2.55986 -1.43057,-0.93752 -3.03314,-2.05928 -4.68029,-3.49517 -1.12175,-0.76512 -2.63046,-2.33212 -3.81023,-4.98146 -0.51738,-1.74258 -0.57474,-3.03722 -0.48213,-3.79872 0.009,-1.56471 0.10622,-3.10009 0.22723,-4.60019 0.3082,-3.8952 0.76494,-7.94524 1.23544,-12.06036 0.12142,-1.06657 0.24417,-2.14116 0.36882,-3.22188 0.35333,-3.06334 0.68452,-6.28573 1.08792,-9.68936 0.33707,-3.01836 0.66544,-6.39106 1.75576,-10.07861 0.52876,-1.6543 1.22422,-3.13742 1.91874,-4.45018 0.89396,-1.72234 1.8838,-3.40414 2.91871,-5.05219 2.28667,-3.64702 4.89604,-7.332 7.80168,-11.03445 2.49768,-3.19323 5.27561,-6.49448 8.54479,-9.74531 1.14567,-1.14646 2.43999,-2.34845 3.95946,-3.53271 0.71704,-0.70313 2.1459,-1.63855 4.46888,-2.48336 1.74798,-0.34528 2.85189,-0.39267 3.27234,-0.20916 0.86457,0.12804 1.5353,0.28395 2.00791,0.43544 1.46067,0.4355 2.71605,0.93796 3.77265,1.40839 3.35207,1.45943 6.56721,3.17202 9.68866,4.93982 2.61278,1.47466 5.25243,3.04077 7.91784,4.69925 6.5429,4.07115 12.59829,8.09012 18.27169,11.92755 10.16587,6.8717 19.18369,13.30409 27.09366,19.28754 3.76015,2.84339 7.30507,5.61434 10.58015,8.3539 0,0 0,0 0,0 2.39076,1.98142 4.84718,4.09544 7.05204,6.51267 3.83847,4.28963 6.79699,8.48549 9.24215,12.3466 2.44516,3.86111 4.37178,7.39311 5.97973,10.50705 2.2771,4.38112 3.92276,8.04415 5.11978,10.9292 1.10218,2.63831 1.86107,4.73437 2.31055,6.14296 0.44949,1.40858 0.62349,2.12548 0.62349,2.12548 0,0 -0.27315,-0.69139 -0.90134,-2.02731 -0.62819,-1.33593 -1.64152,-3.29847 -3.06617,-5.77577 -1.54166,-2.70032 -3.60111,-6.10834 -6.33044,-10.15252 -1.93979,-2.88005 -4.21302,-6.12677 -6.96486,-9.60281 -2.75184,-3.47603 -5.97834,-7.18798 -9.94446,-10.80705 -2.0709,-1.89004 -4.48004,-3.56165 -7.03732,-5.32192 -1e-5,0 -1e-5,0 -1e-5,0 -3.41322,-2.34336 -7.10884,-4.71321 -11.06374,-7.17986 -8.31506,-5.18519 -17.73034,-10.75506 -28.30932,-16.74381 -5.91982,-3.35019 -12.17173,-6.84161 -18.81348,-10.32214 -2.70314,-1.41655 -5.32625,-2.80366 -7.87952,-4.15497 -3.10079,-1.63658 -5.97193,-3.18326 -8.73276,-4.45424 -0.92121,-0.41369 -1.65782,-0.75759 -2.25127,-0.94231 -0.20528,-0.0538 -0.2305,-0.0808 -0.0834,-0.0496 -0.0385,0.11501 0.55383,0.0329 1.78882,-0.17058 0.33068,-0.25088 0.0903,0.0361 -0.7731,0.4997 -1.01931,0.68006 -2.05633,1.52192 -3.15305,2.4331 -3.07109,2.56653 -5.9287,5.27988 -8.67582,7.97208 -3.16908,3.11419 -6.08324,6.12783 -8.67867,9.13706 -1.1724,1.36131 -2.26086,2.68496 -3.22423,4.01523 -0.76218,1.0786 -1.42735,2.02438 -1.85443,2.93792 -1.24538,2.60957 -1.88715,5.61329 -2.50943,8.59506 -0.67446,3.29573 -1.1147,6.47368 -1.33036,9.52079 -0.0706,0.99774 -0.12159,1.99208 -0.15555,2.98086 -0.13849,4.07316 0.0118,8.0122 0.43493,11.66025 0.16616,1.42486 0.36461,2.74931 0.64769,3.94319 0.26716,0.94959 0.32352,1.3515 0.44271,1.02257 -0.16822,-0.30501 0.53219,-0.33783 1.45654,0.36067 1.25257,0.59009 2.62771,1.03047 4.00698,1.488 1.40326,0.44937 2.72764,0.81742 3.93297,1.1554 0,0 0,0 0,0 0.43588,0.12165 0.84723,0.23494 1.23454,0.34089 0.11382,0.0311 0.22127,0.0599 0.32274,0.0863 0,0 0,0 -1e-5,0 -0.0567,-0.0218 -0.11482,-0.0441 -0.17415,-0.067 0,0 0,0 0,-10e-6 -0.0215,-0.008 -0.0429,-0.0165 -0.0647,-0.025 0,0 0,0 0,0 0,0 0,0 0,0 0.89395,0.15839 1.69439,0.32476 2.39123,0.50497 16.1213,4.16912 42.50993,14.63965 64.9929,24.1109 22.48298,9.47126 41.0412,17.93667 41.0412,17.93667 z"
       id="path3788"
       inkscape:connector-curvature="0"
       inkscape:path-effect="#path-effect3837"
       inkscape:original-d="M 280.35455,343.30004 168.55006,311.168 c 0,0 -11.2744,-4.50977 -12.77765,-8.26789 -1.50326,-3.75814 0.75163,-32.31996 3.75813,-40.58785 3.00651,-8.2679 22.5488,-30.06507 27.81019,-31.56832 5.26139,-1.50325 72.9078,42.84272 84.18216,54.86875 11.27442,12.02603 21.04555,32.13204 23.30048,39.64831"
       sodipodi:nodetypes="ccssssc"
       inkscape:export-filename="D:\Downloads\ojs-logo.png"
       inkscape:export-xdpi="22.55176"
       inkscape:export-ydpi="22.55176" />
    <path
       style="fill:#000000;fill-opacity:1;stroke:#000000;stroke-width:0.52613872px;stroke-linecap:butt;stroke-linejoin:miter;stroke-opacity:1"
       d="m 340.36194,305.23047 c 0,0 2e-4,-0.008 5.7e-4,-0.0248 3.6e-4,-0.0159 8.9e-4,-0.0394 0.002,-0.0705 0,0 0,0 0,0 10e-4,-0.0617 0.003,-0.15314 0.006,-0.27366 0,0 0,0 0,0 0.005,-0.2372 0.0134,-0.58626 0.0237,-1.04058 0,0 0,0 0,0 0,0 0,0 0,0 0.0201,-0.88172 0.0487,-2.15534 0.0828,-3.76323 0,0 0,0 0,0 0.0626,-2.95186 0.14704,-7.02146 0.20139,-11.82983 0,0 0,0 0,0 0.044,-3.91863 0.0855,-8.29577 -0.0373,-12.88848 0,0 0,0 0,0 -0.0462,-1.68847 -0.10879,-3.35218 -0.25106,-4.9614 0,0 0,0 0,0 -0.12795,-1.17733 -0.18129,-2.01574 -0.3689,-2.41246 0,0 0,0 0,0 0,0 0,-10e-6 0,-10e-6 0,0 0,0 0,0 -0.11965,-0.41123 -0.30616,-0.93959 -0.52102,-1.60316 0,0 0,0 0,0 -0.33733,-1.01424 -0.69487,-2.05087 -1.062,-3.11303 0,0 0,0 0,0 -1.07024,-3.09448 -2.18162,-6.24213 -3.28657,-9.40744 0,0 0,0 0,0 -3.16361,-9.06066 -6.24568,-18.09999 -8.64805,-26.03585 0,0 0,0 0,0 -1.37118,-4.52408 -2.50368,-8.67023 -3.31093,-12.25408 -0.66302,-2.94353 -1.67368,-7.82279 -3.32642,-13.62932 -0.78219,-2.72833 -1.63954,-5.5972 -2.82258,-8.40442 -0.35525,-0.82351 -0.66682,-1.55811 -1.02206,-2.14843 0,0 0,0 0,0 -0.12137,-0.18787 -0.16778,-0.29403 -0.16285,-0.29605 -0.10148,0.004 0.18833,0.13005 0.84243,0.44766 0,0 10e-6,0 10e-6,0 0.27176,-0.11772 -0.13787,0.0445 -1.06303,0.0465 -0.80613,0.0971 -1.64816,0.27933 -2.52463,0.51096 -0.40422,0.10683 -0.81785,0.22624 -1.24152,0.3545 -3.31118,1.01361 -6.73814,2.56916 -10.37248,4.4655 -3.295,1.72526 -6.69669,3.70839 -10.13931,6.00623 -1.26323,0.84464 -2.49619,1.70391 -3.64502,2.61673 -0.8143,0.6706 -1.43594,1.15563 -1.65905,1.55207 -0.41664,0.51265 -0.87569,1.39301 -1.61545,2.54008 -0.99236,1.63152 -1.98201,3.36732 -3.02157,5.19434 -2.47722,4.35933 -5.06666,9.02811 -7.88553,14.00275 -1.88096,3.32248 -3.84962,6.73598 -5.85638,10.27417 -0.60201,1.06142 -1.18805,2.11387 -1.75718,3.15819 -0.8783,1.61835 -1.68363,3.12199 -2.34367,4.55757 -0.22376,0.49686 -0.40071,0.87749 -0.49944,1.15772 -0.0391,0.43668 -0.0602,0.11737 0.0655,-0.93151 -0.32083,-1.99457 -0.4946,-2.83992 -0.61936,-2.54791 0,0 0,0 0,0 -0.11503,-0.16366 -0.10205,-0.1609 0.009,0.0177 1e-5,0 1e-5,0 1e-5,0 0.35552,0.51383 0.88493,1.10745 1.51239,1.82007 2.11554,2.37173 4.37511,4.6265 6.62102,6.87121 7.75783,7.7443 14.80897,14.43239 20.9192,20.33501 4.59755,4.4411 8.69129,8.40531 12.27253,11.93118 3.58124,3.52586 6.652,6.61148 9.24172,9.26559 0,0 0,0 0,0 3.24611,3.32522 5.78022,6.0407 7.59101,8.11208 1.02881,1.17403 1.87712,2.21056 2.49998,3.03441 0.44716,0.52366 0.92803,1.26895 1.23007,1.81827 0.30204,0.54932 0.45276,0.89611 0.45276,0.89611 0,0 -0.18198,-0.33589 -0.53499,-0.84709 -0.35301,-0.5112 -0.89833,-1.17822 -1.43955,-1.63049 -0.73447,-0.71884 -1.71627,-1.6069 -2.91089,-2.61072 -2.10048,-1.77035 -4.98526,-4.06827 -8.66827,-6.92058 0,0 0,0 0,0 -2.93453,-2.27392 -6.38778,-4.92543 -10.38629,-7.97582 -3.99851,-3.05039 -8.54377,-6.49727 -13.63902,-10.40584 -6.75425,-5.18058 -14.51901,-11.10837 -23.16184,-18.18596 -2.47884,-2.02693 -5.0779,-4.17157 -7.69781,-6.60429 -0.74862,-0.68697 -1.56746,-1.47829 -2.40441,-2.44484 -10e-6,0 -10e-6,-1e-5 -10e-6,-1e-5 -0.25185,-0.27775 -0.56645,-0.69013 -0.921,-1.25946 0,-1e-5 -1e-5,-2e-5 -1e-5,-2e-5 -0.24485,-0.0494 -0.53624,-0.92749 -0.77833,-2.66865 0.0685,-1.37898 0.24293,-2.22943 0.39252,-2.51561 0.22567,-0.80727 0.47185,-1.5257 0.70222,-2.15507 0.68471,-1.89211 1.45661,-3.71543 2.22716,-5.47802 0.50564,-1.15886 1.02672,-2.32332 1.56198,-3.49352 1.7812,-3.89414 3.68663,-7.50979 5.61579,-10.89387 2.89152,-5.07642 5.90631,-9.71386 8.97784,-13.93971 1.2797,-1.76161 2.59546,-3.49008 3.96721,-5.14885 0.78618,-0.97504 1.80409,-2.20254 3.16061,-3.4487 1.3433,-1.1612 2.56717,-1.89038 3.57568,-2.39845 1.61347,-0.8708 3.18271,-1.59303 4.68816,-2.23995 4.11158,-1.7715 8.01739,-3.15697 11.6651,-4.41729 4.00641,-1.38809 7.77863,-2.64997 11.34427,-3.80909 0.5021,-0.16457 1.0085,-0.32916 1.52001,-0.48941 0.94756,-0.29684 1.92522,-0.57769 2.94305,-0.8117 0.83331,-0.30084 2.17114,-0.50114 3.98203,-0.12628 0,0 0,1e-5 10e-6,1e-5 0.92648,0.38587 1.47482,0.74638 1.65146,1.00475 0.42305,0.39777 0.74353,0.75925 0.97797,1.05587 0,0 0,0 0,0 0.7626,0.93521 1.38178,1.849 1.92421,2.66339 1.92896,2.87059 3.63192,5.63866 5.19056,8.09481 3.38509,5.3349 6.19818,9.69479 7.32845,12.53261 1.37061,3.44126 2.72134,7.60591 4.02511,12.21981 0,0 0,0 0,0 2.2775,8.04847 4.41576,17.5421 6.23603,27.1602 0,0 0,0 0,0 0.63304,3.34528 1.23371,6.71765 1.76835,10.05803 0,0 0,0 0,0 0.18288,1.14301 0.36091,2.29104 0.52229,3.44001 0.0941,0.67892 0.20085,1.4082 0.2757,2.17806 0,0 0,0 0,0 0,0 1e-5,0 1e-5,10e-6 0,0 0,0 0,0 0.14554,1.51525 0.0239,2.85414 -0.12183,4.06546 0,0 0,0 0,0 -0.20554,1.87743 -0.50005,3.679 -0.81416,5.42052 0,0 0,0 0,0 -0.85598,4.7511 -1.87068,9.12409 -2.81014,12.99858 0,0 0,0 0,0 -1.15486,4.76035 -2.223,8.74885 -3.01674,11.63436 0,0 0,0 0,0 -0.43229,1.57129 -0.78427,2.81296 -1.03068,3.67149 0,0 0,0 0,0 0,0 0,0 0,0 -0.12694,0.4423 -0.22577,0.78181 -0.2933,1.01238 0,0 0,0 0,0 -0.0342,0.11714 -0.0604,0.20595 -0.0781,0.2659 0,0 0,0 0,0 -0.009,0.0302 -0.0157,0.053 -0.0203,0.0685 -0.005,0.0159 -0.007,0.0241 -0.007,0.0241 z"
       id="path3899"
       inkscape:connector-curvature="0"
       inkscape:path-effect="#path-effect3901"
       inkscape:original-d="m 344.23621,305.65406 c 0,0 3.57022,-32.31995 2.06694,-39.08458 -1.50324,-6.76465 -24.05201,-76.66593 -28.56181,-78.16918 -4.50975,-1.50326 -30.81668,10.52277 -35.32643,15.03253 -4.5098,4.50976 -25.55532,39.83621 -25.55532,43.59435 0,3.75813 61.44545,56.372 64.45197,63.13664"
       sodipodi:nodetypes="cssssc"
       inkscape:export-filename="D:\Downloads\ojs-logo.png"
       inkscape:export-xdpi="22.55176"
       inkscape:export-ydpi="22.55176" />
    <path
       style="fill:#295f9a;fill-opacity:1;stroke:none"
       d="m 294.51368,313.75019 c -19.075,10.16962 -40.35399,34.78766 -43.00241,66.56829 -3.24354,38.92262 51.68617,74.56046 86.48404,71.8837 16.0899,-1.23769 31.42079,-7.56982 43.93258,-17.55988 -0.86166,0.4815 -1.83854,-14.2839 -2.56492,-13.89142 -1.92593,1.04066 -3.90253,1.98384 -5.91464,2.82451 -2.01212,0.84067 -4.06269,1.57797 -6.14578,2.208 -2.08309,0.63002 -4.19727,1.15407 -6.33613,1.5628 -2.13891,0.40873 -4.30634,0.69782 -6.48571,0.8746 -1.79861,0.14588 -3.66193,0.16512 -5.57476,0.0573 -1.91283,-0.10778 -3.87827,-0.3417 -5.87386,-0.68821 -1.99554,-0.34651 -4.01754,-0.8061 -6.06417,-1.37641 -2.04668,-0.57032 -4.12056,-1.24241 -6.1866,-2.02161 -2.0661,-0.77919 -4.13272,-1.66498 -6.1866,-2.63812 -2.05389,-0.97315 -4.09494,-2.04513 -6.105,-3.1973 -2.01006,-1.15216 -3.98003,-2.38284 -5.9147,-3.6991 -1.93455,-1.31627 -3.82876,-2.70683 -5.6563,-4.17226 -1.82749,-1.46542 -3.58674,-3.00271 -5.27559,-4.60238 -1.6888,-1.59966 -3.30837,-3.27052 -4.82685,-4.98949 -1.51849,-1.71898 -2.93928,-3.49591 -4.25589,-5.31927 -1.3165,-1.82335 -2.52015,-3.6932 -3.6031,-5.60601 -1.083,-1.91281 -2.0512,-3.86242 -2.86898,-5.84975 -0.40886,-0.99367 -0.77827,-2.00141 -1.11489,-3.01091 -0.33673,-1.0095 -0.63694,-2.01611 -0.89749,-3.03958 -0.26044,-1.02346 -0.48589,-2.06136 -0.66619,-3.09693 -0.18031,-1.03556 -0.31169,-2.0798 -0.40792,-3.1256 -0.0962,-1.0458 -0.155,-2.08578 -0.16316,-3.13994 -0.008,-1.05417 0.0247,-2.12229 0.10876,-3.18296 0.16768,-2.12133 0.43038,-4.1954 0.77505,-6.23687 0.34468,-2.04146 0.77253,-4.05094 1.2781,-6.00746 0.50557,-1.95653 1.09011,-3.86853 1.74036,-5.73506 0.65031,-1.86652 1.36949,-3.67683 2.14838,-5.4483 0.77885,-1.77146 1.62414,-3.50455 2.51542,-5.17589 0.89123,-1.67133 1.82702,-3.27997 2.81458,-4.84612 0.98746,-1.56614 2.01879,-3.08914 3.08643,-4.54503 1.06764,-1.45588 2.17248,-2.84602 3.30405,-4.18659 1.13162,-1.34056 2.28781,-2.6223 3.4672,-3.84248 1.17945,-1.22018 2.37852,-2.38931 3.58958,-3.48405 0.63189,-0.57114 -13.92326,-1.64966 -13.15289,-2.26427 z"
       id="path3986"
       inkscape:connector-curvature="0"
       sodipodi:nodetypes="cssccsssssssssssssscscccssscccccscscscc"
       inkscape:export-filename="D:\Downloads\ojs-logo.png"
       inkscape:export-xdpi="22.55176"
       inkscape:export-ydpi="22.55176" />
    <path
       style="color:#000000;fill:#5a7997;fill-opacity:1;fill-rule:nonzero;stroke:none;stroke-width:0.69999999;marker:none;visibility:visible;display:inline;overflow:visible;enable-background:accumulate"
       d="m 294.79559,312.85763 c -0.77037,0.61461 -1.55422,1.18652 -2.31827,1.84149 -1.46446,1.2554 -2.72656,3.91146 -4.15276,5.31071 -1.42621,1.39926 -2.82432,2.8691 -4.1927,4.40641 -1.36833,1.53731 -2.7043,3.13146 -3.99534,4.80102 -1.29104,1.66955 -2.53814,3.41607 -3.73227,5.21206 -1.19418,1.79599 -2.32574,3.64072 -3.40348,5.55734 -1.07775,1.91662 -2.09993,3.90406 -3.04172,5.9355 -0.94184,2.03144 -1.81149,4.10744 -2.59786,6.2479 -0.78631,2.14046 -1.49318,4.33306 -2.10455,6.57673 -0.61132,2.24367 -1.12872,4.54806 -1.54548,6.88913 -0.41681,2.34107 -0.73449,4.71954 -0.93721,7.1522 -0.10133,1.21633 -0.14143,2.44121 -0.13153,3.65009 0.01,1.20887 0.0809,2.40148 0.1973,3.60076 0.11638,1.19928 0.27522,2.39677 0.49325,3.58432 0.21803,1.18754 0.49068,2.37777 0.80563,3.55143 0.315,1.17367 0.67808,2.32802 1.08521,3.48567 0.40707,1.15766 0.85376,2.31329 1.34817,3.45279 0.98888,2.27899 2.1597,4.51473 3.46926,6.70827 1.30955,2.19353 2.76506,4.3378 4.35706,6.42875 1.59204,2.09095 3.31009,4.12867 5.14632,6.09992 1.83622,1.97125 3.79467,3.88733 5.83682,5.72176 2.04221,1.83443 4.16954,3.59734 6.37943,5.27783 2.20994,1.6805 4.50043,3.27514 6.83981,4.78458 2.33942,1.50943 4.72156,2.92073 7.15222,4.24199 2.43066,1.32126 4.89877,2.55056 7.38236,3.66653 2.48363,1.11596 4.98269,2.13174 7.48106,3.0253 2.49837,0.89355 5.00616,1.66428 7.48106,2.31829 2.47485,0.65402 4.91992,1.18106 7.333,1.57842 2.41314,0.39736 4.78981,0.66561 7.10288,0.78921 2.31311,0.12359 4.5663,0.10153 6.7412,-0.0658 2.63538,-0.20272 5.25634,-0.53424 7.84273,-1.00295 2.58639,-0.46871 5.14295,-1.06967 7.6619,-1.79216 2.51894,-0.72249 4.99858,-1.568 7.4317,-2.53204 2.43313,-0.96405 4.82328,-2.04566 7.15218,-3.23905 0.87838,-0.45007 1.70326,-0.99826 2.56492,-1.47976 20.27749,-16.19058 33.13022,-42.02603 29.5953,-71.63707 -4.77239,-39.97806 -56.95562,-71.05128 -104.52771,-54.83352 -3.76941,0.79355 -7.91318,2.40053 -12.19989,4.68592 z"
       id="path3975"
       inkscape:connector-curvature="0"
       sodipodi:nodetypes="ccscscscccccssscccscssssssssssssssccscc"
       inkscape:export-filename="D:\Downloads\ojs-logo.png"
       inkscape:export-xdpi="22.55176"
       inkscape:export-ydpi="22.55176" />
    <path
       style="color:#000000;fill:#c7d6e5;fill-opacity:1;fill-rule:nonzero;stroke:none;stroke-width:0.69999999;marker:none;visibility:visible;display:inline;overflow:visible;enable-background:accumulate"
       d="m 333.59132,303.78174 c -8.90106,-0.0313 -17.99552,1.34914 -26.91526,4.38997 -3.76941,0.79355 -7.91312,2.40053 -12.19989,4.68592 -0.77032,0.61461 -1.55421,1.18652 -2.31827,1.84149 -5.90502,3.60436 -13.16021,8.22642 5.4258,0.0329 2.04295,-0.78661 4.01791,-1.37894 5.90259,-1.77572 1.48666,-0.5068 2.97816,-0.9655 4.47218,-1.38111 1.49408,-0.41561 2.99037,-0.79129 4.48865,-1.11805 2.99657,-0.65352 5.99919,-1.1347 8.99366,-1.44688 2.99452,-0.31217 5.99382,-0.45435 8.96082,-0.44393 2.967,0.0104 5.91512,0.17897 8.82929,0.49326 2.91413,0.31429 5.79605,0.78171 8.63194,1.38111 2.83589,0.59941 5.62027,1.33743 8.35245,2.20321 2.73219,0.86578 5.40408,1.84612 8.0072,2.95953 2.60307,1.1134 5.13107,2.35712 7.57966,3.69941 2.4486,1.34229 4.8177,2.78821 7.08646,4.34065 2.26871,1.55243 4.4475,3.20515 6.51097,4.94899 2.06341,1.74383 4.00407,3.57508 5.83682,5.49157 1.83275,1.91649 3.55323,3.91442 5.12985,5.98483 1.57663,2.07041 3.01262,4.22318 4.30776,6.42876 1.29515,2.20557 2.44807,4.46847 3.43632,6.79047 0.9883,2.32201 1.81034,4.69963 2.46633,7.11932 0.32794,1.20984 0.61479,2.43578 0.85497,3.66653 0.24013,1.23075 0.44275,2.46654 0.59191,3.71585 0.22093,1.85069 0.38171,3.68826 0.47679,5.50802 0.0951,1.81976 0.12501,3.62339 0.0987,5.40936 -0.0263,1.78596 -0.11959,3.54497 -0.26307,5.29427 -0.14348,1.7493 -0.33573,3.48584 -0.59191,5.19562 -0.25617,1.70978 -0.5727,3.3967 -0.93721,5.06408 -0.36445,1.66739 -0.7811,3.31043 -1.24958,4.93255 -0.46842,1.62213 -0.99393,3.22702 -1.56195,4.80102 -0.56802,1.574 -1.17823,3.13003 -1.84148,4.65304 -0.66325,1.52301 -1.36691,3.01947 -2.12102,4.48862 -0.75407,1.46915 -1.55995,2.89533 -2.40046,4.30776 -0.19909,0.3345 -0.42107,0.65529 -0.62484,0.98651 10.8897,-15.14543 16.72579,-34.31586 14.20574,-55.42542 -3.87753,-32.48217 -39.05059,-59.08793 -77.62187,-59.22349 z"
       id="path4005"
       inkscape:connector-curvature="0"
       sodipodi:nodetypes="scccccssssssssssssssccccscssccsscccss"
       inkscape:export-filename="D:\Downloads\ojs-logo.png"
       inkscape:export-xdpi="22.55176"
       inkscape:export-ydpi="22.55176" />
    <path
       sodipodi:nodetypes="csssc"
       inkscape:connector-curvature="0"
       id="path3784"
       d="m 307.43244,305.80473 c 0,0 0.91067,-0.37828 2.63057,-0.9961 1.71989,-0.61782 4.25355,-1.47037 7.51944,-2.31286 3.2659,-0.84248 7.26769,-1.6708 11.88007,-2.20045 4.61238,-0.52965 9.83672,-0.75698 15.46513,-0.41574 5.46367,0.3302 11.30081,1.18931 17.24813,2.72694 5.94732,1.53764 12.00186,3.7552 17.86164,6.6967 5.11106,2.5546 10.0822,5.6831 14.66993,9.34266 4.58772,3.65956 8.78899,7.84999 12.40437,12.45392 3.67838,4.67693 6.66687,9.81754 8.82817,15.1055 2.16131,5.28795 3.49375,10.71993 4.01983,15.97899 0.69817,7.38127 0.26219,14.19669 -0.7929,19.9101 -0.7116,3.85344 -2.08129,9.54354 -4.69631,16.07638 -1.78155,4.43502 -4.1348,9.22748 -7.11277,14.04496 -2.97796,4.81748 -6.57959,9.65684 -10.72842,14.2284 0,0 0,0 0,0 -1.18436,1.30541 -2.41234,2.58889 -3.67994,3.84601 -2.91299,2.88891 -6.10116,5.77214 -9.65149,8.57087 -3.55033,2.79873 -7.46369,5.51367 -11.81117,8.01091 -4.34747,2.49724 -9.13037,4.77754 -14.3875,6.64092 -5.25712,1.86337 -10.99035,3.31056 -17.18255,4.06433 -4.97662,0.56099 -10.14494,0.48168 -15.39191,-0.20757 -5.24698,-0.68925 -10.57244,-1.99048 -15.81666,-3.79528 -10e-6,0 -10e-6,-10e-6 -10e-6,-10e-6 -8.53302,-2.87749 -17.18991,-7.08539 -25.48349,-12.8303 -1.76226,-1.2207 -3.47124,-2.47705 -5.12689,-3.76396 -4.7861,-3.69164 -9.17275,-7.70902 -13.04195,-11.98602 -3.8692,-4.27699 -7.22171,-8.81355 -9.99595,-13.54598 -2.84645,-4.86912 -5.00886,-10.00765 -6.36026,-15.24175 -1.41559,-5.49941 -1.83922,-11.05628 -1.34126,-16.36603 1.06074,-10.9202 4.16142,-20.51945 8.06741,-28.61493 2.24941,-4.66133 4.75792,-8.83468 7.36213,-12.56589 2.60421,-3.73121 5.3049,-7.02083 7.98535,-9.92612 3.32382,-3.61022 6.63019,-6.6459 9.77922,-9.1928 3.14904,-2.5469 6.14149,-4.60702 8.88258,-6.28835 2.84153,-1.76203 5.46683,-3.12537 7.7674,-4.15371 2.30057,-1.02834 4.27733,-1.72841 5.87067,-2.2193 1.59333,-0.49088 2.80395,-0.77628 3.60902,-0.95307 0.80506,-0.17679 1.20505,-0.24624 1.20505,-0.24624 0,0 -0.39259,0.11168 -1.17622,0.36788 -0.78362,0.2562 -1.9581,0.65821 -3.48475,1.29391 -1.52665,0.63569 -3.40492,1.5088 -5.56424,2.72524 -2.15932,1.21644 -4.59879,2.78296 -7.22668,4.74568 -5.0569,3.7526 -10.96199,9.04226 -16.79066,16.47661 -2.34637,2.99127 -4.67589,6.33217 -6.87393,10.05604 -2.19804,3.72388 -4.26528,7.83135 -6.04563,12.33697 -3.08742,7.81363 -5.30902,16.87502 -5.59257,26.80592 -0.1236,4.39755 0.5569,8.97107 2.01937,13.45002 1.39704,4.28661 3.52589,8.50094 6.22544,12.54432 2.63954,3.96204 5.81677,7.73241 9.46834,11.28618 3.65157,3.55377 7.77823,6.89083 12.26123,9.99413 1.56014,1.07238 3.16331,2.11345 4.80859,3.11869 7.7282,4.72177 15.42794,8.35981 22.94562,11.08128 10e-6,0 10e-6,0 10e-6,0 4.66087,1.65264 9.20118,3.00411 13.58203,3.89482 4.38084,0.89072 8.60437,1.32155 12.66422,1.19773 5.44598,-0.12881 10.65187,-0.84165 15.55105,-1.97957 4.89918,-1.13791 9.49173,-2.70269 13.72327,-4.58093 8.46307,-3.75648 15.47491,-8.76023 20.71489,-14.3405 1.08721,-1.1578 2.11706,-2.35229 3.0867,-3.57359 0,0 0,0 0,0 3.5941,-4.52797 6.35255,-9.4207 8.34008,-14.17217 1.98752,-4.75147 3.21059,-9.35671 3.94665,-13.45465 1.09925,-6.07121 1.16345,-11.03737 1.44858,-14.31394 0.42083,-4.83584 0.62493,-10.53863 0.10846,-16.79239 -0.29292,-3.93371 -1.15836,-8.11795 -2.65332,-12.36244 -1.49496,-4.24449 -3.61822,-8.54654 -6.30565,-12.64357 -2.66454,-4.0524 -5.89296,-7.9085 -9.54629,-11.44608 -3.65332,-3.53757 -7.72884,-6.75531 -12.02813,-9.56272 -4.92672,-3.21103 -10.15845,-5.8781 -15.42981,-7.968 -5.27136,-2.08989 -10.57943,-3.60226 -15.66043,-4.60348 -5.22091,-1.02879 -10.20327,-1.51055 -14.69164,-1.63493 -4.48838,-0.12438 -8.48293,0.1051 -11.79151,0.45074 -3.30859,0.34563 -5.9333,0.80222 -7.72745,1.14934 -1.79415,0.34713 -2.7603,0.57833 -2.7603,0.57833 z"
       style="fill:#000000;fill-opacity:1;stroke:#000000;stroke-width:0.36829707;stroke-linecap:butt;stroke-linejoin:miter;stroke-miterlimit:4;stroke-opacity:1;stroke-dasharray:none"
       inkscape:path-effect="#path-effect3817"
       inkscape:original-d="m 308.69002,309.49362 c 47.57209,-16.21776 99.5618,13.54055 104.33425,53.5186 5.71602,47.88192 -31.35429,85.95411 -73.52047,89.19767 -34.79786,2.67677 -89.73823,-32.97611 -86.4947,-71.89873 3.24354,-38.92261 35.13846,-66.4928 55.68092,-70.81754 z"
       inkscape:export-filename="D:\Downloads\ojs-logo.png"
       inkscape:export-xdpi="22.55176"
       inkscape:export-ydpi="22.55176" />
    <path
       style="fill:#d9dee6;fill-opacity:1;stroke:none"
       d="m 379.98633,314.63908 c 30.73208,-2.46382 41.76689,10.90801 44.11289,30.56012 2.80985,23.53744 -22.85362,43.31565 -43.58138,44.91009 -17.10566,1.31583 -36.67213,-17.27311 -35.07772,-36.4064 1.59446,-19.13329 24.25973,-38.23913 34.54621,-39.06381 z"
       id="path3973"
       inkscape:connector-curvature="0"
       sodipodi:nodetypes="sssss"
       inkscape:export-filename="D:\Downloads\ojs-logo.png"
       inkscape:export-xdpi="22.55176"
       inkscape:export-ydpi="22.55176" />
    <path
       style="color:#000000;fill:#ffffff;fill-opacity:1;fill-rule:nonzero;stroke:none;marker:none;visibility:visible;display:inline;overflow:visible;enable-background:accumulate"
       d="m 383.44533,314.92461 c -1.76956,0.0326 -3.60374,0.12552 -5.52446,0.27951 -6.76898,0.54267 -18.87496,9.01702 -26.83307,20.19057 1.07927,-1.28216 2.13496,-2.5925 3.28837,-3.76518 1.78781,-1.81781 3.64966,-3.50224 5.50798,-4.99832 1.85833,-1.49607 3.70986,-2.81011 5.50799,-3.91316 1.79819,-1.10305 3.53902,-1.99197 5.14632,-2.63069 0.80368,-0.31936 1.57042,-0.56641 2.30186,-0.75632 0.73144,-0.18991 1.42878,-0.32662 2.07167,-0.37817 1.92077,-0.15399 3.77136,-0.23046 5.54087,-0.26306 1.76956,-0.0326 3.45684,-0.0184 5.08056,0.0658 1.62371,0.0841 3.18619,0.23132 4.66948,0.42749 1.48329,0.19617 2.89376,0.45277 4.24199,0.75632 1.34823,0.30356 2.62885,0.64601 3.84739,1.05228 1.21854,0.40627 2.37504,0.87679 3.4692,1.38112 1.09421,0.50432 2.11581,1.04647 3.09106,1.64418 0.97531,0.59771 1.90058,1.23726 2.76223,1.92369 0.86171,0.68644 1.6635,1.41627 2.41698,2.18677 0.75348,0.77049 1.45388,1.5835 2.10455,2.43339 0.65068,0.84989 1.25537,1.73897 1.80861,2.66358 0.55323,0.92461 1.05148,1.88265 1.51264,2.87732 0.46116,0.99467 0.89155,2.03099 1.26605,3.09106 0.37445,1.06007 0.69335,2.15113 0.98651,3.27193 0.58623,2.24159 1.02208,4.59703 1.31535,7.05355 0.17557,1.47108 0.23597,2.93532 0.1973,4.37352 -0.0389,1.4382 -0.17441,2.86017 -0.41107,4.25844 -0.23666,1.39826 -0.56818,2.77561 -0.98651,4.1269 -0.41833,1.35129 -0.92901,2.66521 -1.51265,3.96248 -0.58365,1.29727 -1.24032,2.5783 -1.97302,3.81451 -0.64468,1.0877 -1.35633,2.13797 -2.10456,3.17327 6.83633,-7.63917 11.02493,-17.19122 9.79934,-27.45786 -2.19937,-18.42387 -12.04563,-31.33397 -38.58896,-30.84488 z"
       id="path4145"
       inkscape:connector-curvature="0"
       inkscape:export-filename="D:\Downloads\ojs-logo.png"
       inkscape:export-xdpi="22.55176"
       inkscape:export-ydpi="22.55176" />
    <path
       sodipodi:nodetypes="sssss"
       inkscape:connector-curvature="0"
       id="path3782"
       d="m 378.53405,313.22369 c 0,0 0.52718,-0.10368 1.51034,-0.27058 0.98315,-0.1669 2.42326,-0.39741 4.26037,-0.61228 3.67422,-0.42974 8.95598,-0.83492 15.27681,-0.0743 5.02253,0.58618 10.7803,2.1656 16.22589,5.65272 4.43448,2.937 8.15679,7.06561 10.64032,11.79533 2.68923,5.20782 4.00336,10.63542 4.44184,15.50806 0.32186,3.40925 0.10233,6.64363 -0.47912,9.53929 -0.58145,2.89565 -1.52207,5.45199 -2.61949,7.57745 -0.41224,0.79843 -0.94348,1.73831 -1.60225,2.77147 -1.30804,2.03697 -3.08895,4.42943 -5.30173,6.86578 -2.21279,2.43636 -4.85809,4.91509 -7.77091,7.26966 0,0 0,0 0,0 -1.6364,1.33852 -3.3633,2.66436 -5.15274,3.9581 -3.32079,2.40087 -6.97254,5.02727 -11.40457,7.43483 -4.43204,2.40755 -9.66247,4.60764 -15.97577,5.6598 -5.0907,0.73141 -10.64378,0.10909 -15.86514,-2.00302 -4.90381,-1.94532 -9.66896,-5.04094 -13.71694,-9.25406 -0.27961,-0.2816 -0.55617,-0.56914 -0.82938,-0.86257 -4.1058,-4.40964 -7.09217,-9.49164 -8.89547,-14.65911 -1.8033,-5.16747 -2.42877,-10.42519 -1.99248,-15.4267 0.36469,-3.20479 1.12701,-6.13183 2.10911,-8.78926 0.9821,-2.65743 2.18473,-5.04553 3.48064,-7.18335 1.62247,-2.70557 3.36668,-5.07081 5.12565,-7.15826 1.75897,-2.08745 3.53346,-3.89711 5.25438,-5.48324 4.39922,-4.08354 8.56409,-6.81461 11.99152,-8.64645 1.47948,-0.48233 2.92612,-0.87323 4.24551,-1.143 1.31938,-0.26977 2.51221,-0.42339 3.52232,-0.50246 2.02022,-0.15816 3.29043,-0.0503 3.67679,-0.0243 0.10444,1.30273 0.15596,1.94532 0.15596,1.94532 0,0 -0.0518,-0.64646 -0.15504,-1.93381 -0.38323,0.008 -1.64863,1.4e-4 -3.52167,0.40301 -0.93652,0.20144 -2.01755,0.51544 -3.18569,1.00419 -1.16814,0.48876 -2.42157,1.15725 -3.71484,2.00329 -2.96879,2.31118 -6.44415,5.5423 -9.95875,9.98565 -2.7367,3.45647 -5.54783,7.66828 -7.68367,12.77374 -0.83979,2.01489 -1.56982,4.17288 -2.07894,6.43412 -0.50912,2.26124 -0.798,4.62614 -0.7118,7.02739 0.0734,3.68489 1.08197,7.45196 2.9746,11.07964 1.89262,3.62767 4.67521,7.11973 8.04861,10.09758 0.22396,0.19771 0.44781,0.39243 0.67142,0.58421 3.3907,2.80439 6.76926,4.97978 10.1166,6.53986 3.53849,1.61141 6.94343,2.65973 10.13562,2.77749 5.02821,0.21069 9.78595,-0.46031 14.03196,-1.73521 4.246,-1.27489 7.96645,-3.17004 10.82813,-5.54403 1.51592,-1.25757 2.86125,-2.66223 4.02725,-4.11948 0,0 0,0 0,0 2.08408,-2.64313 3.53505,-5.47535 4.46275,-8.01718 0.9277,-2.54184 1.34274,-4.78842 1.646,-6.49216 0.14874,-0.84409 0.27857,-1.55791 0.44819,-2.12499 0.89504,-2.99235 1.97128,-6.74402 1.96195,-10.99363 -0.0749,-3.85709 -0.3213,-7.91044 -1.51224,-11.74445 -1.01021,-3.37483 -2.82922,-6.7385 -5.41469,-9.47049 -3.18273,-3.41311 -7.57026,-5.89919 -11.80156,-7.61573 -5.36751,-2.17609 -10.47087,-3.25343 -14.10474,-3.9076 -3.63386,-0.65417 -5.82091,-0.8963 -5.82091,-0.8963 z"
       style="fill:#000000;fill-opacity:1;stroke:#000000;stroke-width:0.52613872px;stroke-linecap:butt;stroke-linejoin:miter;stroke-opacity:1"
       inkscape:path-effect="#path-effect3801"
       inkscape:original-d="m 378.84551,317.10858 c 30.73208,-2.46383 42.56409,9.31356 44.91009,28.96568 2.80985,23.53743 -22.85362,43.31564 -43.58138,44.91008 -17.10566,1.31583 -36.67213,-17.27311 -35.07772,-36.4064 1.59446,-19.13329 23.46252,-36.64468 33.74901,-37.46936 z"
       inkscape:export-filename="D:\Downloads\ojs-logo.png"
       inkscape:export-xdpi="22.55176"
       inkscape:export-ydpi="22.55176" />
    <path
       style="color:#000000;fill:#5a7997;fill-opacity:1;fill-rule:nonzero;stroke:none;stroke-width:0.69999999;marker:none;visibility:visible;display:inline;overflow:visible;enable-background:accumulate"
       d="m 391.60106,467.25177 -5.58055,-20.72773 -4.25183,-12.75553 -13.8185,-18.07033 14.34996,-1.59444 6.90925,18.60181 8.50372,14.61571 3.72032,5.84628 2.39167,7.97221"
       id="path4220"
       inkscape:connector-curvature="0"
       inkscape:export-filename="D:\Downloads\ojs-logo.png"
       inkscape:export-xdpi="22.55176"
       inkscape:export-ydpi="22.55176" />
    <path
       style="color:#000000;fill:#295f9a;fill-opacity:1;fill-rule:nonzero;stroke:none;stroke-width:0.69999999;marker:none;visibility:visible;display:inline;overflow:visible;enable-background:accumulate"
       d="m 365.82479,413.50895 16.46856,20.26193 4.25846,12.75887 5.57381,20.71671 3.05813,-1.52909 -5.17916,-19.18762 -4.24199,-12.75887 -16.15277,-18.73392 z"
       id="path4239"
       inkscape:connector-curvature="0"
       sodipodi:nodetypes="ccccccccc"
       inkscape:export-filename="D:\Downloads\ojs-logo.png"
       inkscape:export-xdpi="22.55176"
       inkscape:export-ydpi="22.55176" />
    <path
       style="color:#000000;fill:#c7d6e5;fill-opacity:1;fill-rule:nonzero;stroke:none;stroke-width:0.69999999;marker:none;visibility:visible;display:inline;overflow:visible;enable-background:accumulate"
       d="m 383.13075,414.29436 -0.84324,0.86437 6.15393,18.80006 8.50045,14.61679 3.73227,5.83685 2.31833,7.7441 1.6606,-0.82209 -2.38404,-7.97429 -3.73233,-5.85329 -8.5004,-14.61679 z"
       id="path4263"
       inkscape:connector-curvature="0"
       sodipodi:nodetypes="ccccccccccc"
       inkscape:export-filename="D:\Downloads\ojs-logo.png"
       inkscape:export-xdpi="22.55176"
       inkscape:export-ydpi="22.55176" />
    <path
       style="fill:#000000;fill-opacity:1;stroke:#000000;stroke-width:0.52613872px;stroke-linecap:butt;stroke-linejoin:miter;stroke-opacity:1"
       d="m 391.82903,468.58664 c 0,0 7.56567,-3.71357 10.18763,-3.92825 2.6219,-0.21468 6.36754,-0.52138 6.36754,-0.52138 0,0 -3.84871,-14.76771 -10.37614,-11.59375 -6.52738,3.17396 -6.17903,16.04338 -6.17903,16.04338 z"
       id="path3887"
       inkscape:connector-curvature="0"
       sodipodi:nodetypes="cscsc"
       inkscape:export-filename="D:\Downloads\ojs-logo.png"
       inkscape:export-xdpi="22.55176"
       inkscape:export-ydpi="22.55176" />
    <path
       style="fill:none;stroke:#000000;stroke-width:2.63069344;stroke-linecap:butt;stroke-linejoin:miter;stroke-miterlimit:4;stroke-opacity:1;stroke-dasharray:none"
       d="m 324.50601,438.69199 c 0,0 -23.30047,25.55531 -22.54883,33.07158 0.43696,4.36934 7.73182,12.04065 13.76368,17.69841 4.34433,4.07488 -2.33037,14.28025 -2.33037,14.28025"
       id="path3889"
       inkscape:connector-curvature="0"
       sodipodi:nodetypes="cssc"
       inkscape:export-filename="D:\Downloads\ojs-logo.png"
       inkscape:export-xdpi="22.55176"
       inkscape:export-ydpi="22.55176" />
    <path
       style="fill:none;stroke:#000000;stroke-width:2.63069344;stroke-linecap:butt;stroke-linejoin:miter;stroke-miterlimit:4;stroke-opacity:1;stroke-dasharray:none"
       d="m 295.9442,422.90783 c 0,0 -19.54232,5.26139 -22.54883,14.28091 -1.67281,5.01836 1.37038,19.24222 -1.02318,28.2809 -1.90841,7.20658 -9.49959,10.05206 -9.49959,10.05206"
       id="path3891"
       inkscape:connector-curvature="0"
       sodipodi:nodetypes="cssc"
       inkscape:export-filename="D:\Downloads\ojs-logo.png"
       inkscape:export-xdpi="22.55176"
       inkscape:export-ydpi="22.55176" />
    <path
       style="fill:none;stroke:#000000;stroke-width:2.63069344;stroke-linecap:butt;stroke-linejoin:miter;stroke-miterlimit:4;stroke-opacity:1;stroke-dasharray:none"
       d="m 280.16004,398.10415 c -9.01954,2.25488 -25.55533,3.00651 -30.06509,11.2744 -2.60244,4.77113 -5.42747,17.51766 -11.39763,24.29917 -4.37553,4.97017 -12.65443,5.01427 -12.65443,5.01427"
       id="path3893"
       inkscape:connector-curvature="0"
       sodipodi:nodetypes="cssc"
       inkscape:export-filename="D:\Downloads\ojs-logo.png"
       inkscape:export-xdpi="22.55176"
       inkscape:export-ydpi="22.55176" />
    <path
       style="fill:none;stroke:#000000;stroke-width:2.63069344;stroke-linecap:butt;stroke-linejoin:miter;stroke-miterlimit:4;stroke-opacity:1;stroke-dasharray:none"
       d="m 408.52794,402.61391 c 0,0 26.30693,0.75163 31.56832,5.26139 2.87808,2.46691 4.1818,10.55648 4.77234,17.37918 0.48905,5.64988 8.72701,8.03934 8.72701,8.03934"
       id="path3895"
       inkscape:connector-curvature="0"
       sodipodi:nodetypes="cssc"
       inkscape:export-filename="D:\Downloads\ojs-logo.png"
       inkscape:export-xdpi="22.55176"
       inkscape:export-ydpi="22.55176" />
    <path
       style="fill:none;stroke:#000000;stroke-width:2.63069344;stroke-linecap:butt;stroke-linejoin:miter;stroke-miterlimit:4;stroke-opacity:1;stroke-dasharray:none"
       d="m 415.29256,379.31348 c 0,0 15.78416,-0.75163 21.79719,3.00651 3.90963,2.4435 9.40799,12.19525 12.77633,18.71873 1.81218,3.50969 10.44853,3.42755 10.44853,3.42755"
       id="path3897"
       inkscape:connector-curvature="0"
       sodipodi:nodetypes="cssc"
       inkscape:export-filename="D:\Downloads\ojs-logo.png"
       inkscape:export-xdpi="22.55176"
       inkscape:export-ydpi="22.55176" />
    <path
       sodipodi:nodetypes="csssc"
       inkscape:connector-curvature="0"
       id="path3835"
       d="m 321.17987,325.08078 c 23.38512,-7.9722 48.94179,6.65616 51.28784,26.30828 2.80984,23.53743 -15.41292,42.25268 -36.14068,43.84712 -17.10566,1.31583 -44.11289,-16.21015 -42.51843,-35.34344 1.59447,-19.13329 17.27314,-32.68604 27.37127,-34.81196 z"
       style="fill:#d9dee6;fill-opacity:1;stroke:none"
       inkscape:export-filename="D:\Downloads\ojs-logo.png"
       inkscape:export-xdpi="22.55176"
       inkscape:export-ydpi="22.55176" />
    <path
       style="fill:#ffffff;fill-opacity:1;stroke:none"
       d="m 332.1397,322.87071 c -4.37011,0.0216 -8.8345,0.70842 -13.21923,2.20321 -6.81702,1.43516 -16.07985,8.16587 -21.93341,18.21755 0.68461,-0.89634 1.3254,-1.86007 2.0552,-2.68002 1.34534,-1.5114 2.75292,-2.87622 4.1927,-4.11046 1.43978,-1.23424 2.91612,-2.33768 4.37353,-3.27192 1.4574,-0.93425 2.90949,-1.70689 4.30776,-2.3183 1.39826,-0.61141 2.73308,-1.04961 3.99539,-1.31535 1.46156,-0.49826 2.93406,-0.90715 4.40641,-1.23314 1.47229,-0.32598 2.95211,-0.57759 4.42283,-0.73988 1.47071,-0.16229 2.93327,-0.23945 4.38999,-0.24663 1.45667,-0.007 2.91034,0.058 4.34065,0.1973 1.43025,0.13935 2.83404,0.3475 4.22552,0.62479 1.39148,0.27729 2.77018,0.62919 4.11046,1.03584 1.34029,0.40665 2.6529,0.87012 3.92957,1.39756 1.27673,0.52743 2.51521,1.11963 3.71591,1.75927 1.20065,0.63964 2.35689,1.32842 3.4692,2.07167 1.11231,0.74325 2.17816,1.52934 3.18972,2.36763 1.01155,0.83828 1.97896,1.7224 2.87734,2.64713 0.89833,0.92474 1.72632,1.89116 2.49916,2.89377 0.7728,1.0026 1.48613,2.05205 2.12097,3.12394 0.63484,1.0719 1.19255,2.17222 1.67707,3.30481 0.48452,1.1326 0.89491,2.30095 1.2167,3.48567 0.32178,1.18472 0.56039,2.38895 0.70702,3.6172 0.17557,1.47109 0.26365,2.92668 0.27949,4.35709 0.0158,1.43041 -0.0458,2.82538 -0.18089,4.20911 -0.1349,1.38373 -0.34815,2.74653 -0.62474,4.07758 -0.27664,1.33104 -0.61016,2.6408 -1.01944,3.91315 -0.40923,1.27236 -0.88108,2.5082 -1.41395,3.71586 -0.50309,1.14006 -1.07169,2.24404 -1.67712,3.32125 5.7649,-7.57787 8.93331,-17.32755 7.64548,-28.11554 -1.90615,-15.96735 -19.14224,-28.60352 -38.07929,-28.51014 z"
       id="path4109"
       inkscape:connector-curvature="0"
       inkscape:export-filename="D:\Downloads\ojs-logo.png"
       inkscape:export-xdpi="22.55176"
       inkscape:export-ydpi="22.55176" />
    <path
       style="fill:#000000;fill-opacity:1;stroke:#000000;stroke-width:0.52613872px;stroke-linecap:butt;stroke-linejoin:miter;stroke-opacity:1"
       d="m 320.18809,322.98633 c 0,0 1.01391,-0.49437 2.90371,-1.18029 1.8898,-0.68593 4.67271,-1.54677 8.18889,-2.09726 3.51617,-0.55048 7.77177,-0.77641 12.40081,-0.2402 4.62904,0.5362 9.62337,1.84571 14.42779,4.12607 2.73418,1.28839 5.40574,2.9032 7.88386,4.8272 2.47813,1.924 4.76124,4.15723 6.73842,6.63558 2.02154,2.52719 3.65399,5.33488 4.82151,8.24655 1.16753,2.91166 1.86932,5.92539 2.11738,8.8514 0.27861,3.99569 -0.12858,7.62828 -0.90942,10.61735 -0.61874,2.36859 -1.86613,6.02064 -3.98202,10.04946 -2.11588,4.02882 -5.10604,8.40415 -8.87836,12.40842 -0.62991,0.66594 -1.27847,1.32209 -1.94365,1.96732 -3.00262,2.91257 -6.42618,5.97334 -10.78695,8.72835 -2.18038,1.37751 -4.59351,2.66976 -7.27948,3.76037 -2.68598,1.09062 -5.64603,1.97978 -8.88526,2.50619 0,0 0,0 0,0 -2.68489,0.38497 -5.46956,0.43699 -8.27436,0.15653 -2.80481,-0.28045 -5.62924,-0.89459 -8.36592,-1.80186 0,0 -1e-5,-10e-6 -1e-5,-10e-6 -4.49477,-1.43127 -9.04917,-3.61193 -13.35244,-6.66031 -0.88902,-0.62977 -1.75086,-1.27689 -2.58563,-1.93893 -4.9481,-3.8668 -9.06308,-8.49974 -11.99106,-13.575 -1.58307,-2.69808 -2.726,-5.59442 -3.39838,-8.53166 -0.67238,-2.93725 -0.8749,-5.916 -0.6162,-8.82552 0.70115,-6.2001 2.60676,-11.48565 4.90617,-15.86852 2.29941,-4.38288 5.00262,-7.87242 7.65182,-10.64127 3.48811,-3.67154 6.92241,-6.14929 9.80671,-7.8467 0,0 0,0 10e-6,0 2.81439,-0.95026 5.27619,-1.43224 7.04753,-1.65653 1.77134,-0.2243 2.8632,-0.23062 3.21006,-0.23758 0.26925,1.27895 0.40205,1.90974 0.40205,1.90974 0,0 -0.13361,-0.63463 -0.39964,-1.8983 -0.33985,0.039 -1.41617,0.13671 -3.05511,0.58242 -1.63894,0.4457 -3.82574,1.28077 -6.19494,2.87577 0,0 0,0 -10e-6,0 -2.45719,2.08627 -5.26369,4.95325 -7.93397,8.83709 -2.01505,2.92506 -3.95191,6.45438 -5.40208,10.58996 -1.45018,4.13558 -2.4207,8.88877 -2.25358,14.00268 0.0573,1.98723 0.50135,4.00102 1.28486,5.98167 0.7835,1.98066 1.90726,3.92861 3.27006,5.75641 2.65721,3.53319 6.33822,6.63154 10.67948,9.32191 0.74063,0.45181 1.49847,0.88802 2.2728,1.30672 3.74086,2.02276 7.33279,3.63102 10.80345,4.90712 0,0 0,0 0,0 4.31091,1.51546 8.1456,2.63649 11.67975,2.74262 0,0 0,0 0,0 4.95901,0.19899 9.68571,-0.5895 13.79806,-2.09035 4.11234,-1.50085 7.60063,-3.73715 10.0269,-6.44498 0.51298,-0.57251 0.98967,-1.16909 1.42869,-1.78241 1.38685,-1.93198 2.3779,-4.03943 3.03598,-6.10004 0.65809,-2.06061 0.98668,-4.07332 1.12533,-5.89385 0.13866,-1.82054 0.0903,-3.44987 0.0226,-4.82284 -0.0676,-1.37297 -0.15275,-2.49274 -0.0944,-3.34233 0.14725,-2.14496 0.31078,-4.63454 0.19813,-7.38588 -0.015,-1.60914 -0.25182,-3.3785 -0.75347,-5.24635 -0.50164,-1.86786 -1.26773,-3.83298 -2.29419,-5.77507 0,0 0,0 0,0 -2.05714,-3.86012 -5.28316,-7.59636 -9.12338,-10.67595 -3.35685,-2.68558 -7.19006,-4.82914 -11.02507,-6.33846 -3.83501,-1.50933 -7.66121,-2.38337 -11.00514,-2.8004 -3.34393,-0.41702 -6.20331,-0.39058 -8.20376,-0.27866 -2.00044,0.11193 -3.14494,0.28261 -3.14494,0.28261 z"
       id="path3780"
       inkscape:connector-curvature="0"
       sodipodi:nodetypes="csssc"
       inkscape:path-effect="#path-effect3809"
       inkscape:original-d="m 321.44567,326.67522 c 23.38513,-7.9722 48.94179,6.65616 51.28784,26.30828 2.80985,23.53743 -15.41291,42.25268 -36.14067,43.84712 -17.10567,1.31583 -44.11289,-16.21014 -42.51843,-35.34344 1.59446,-19.13329 17.27313,-32.68603 27.37126,-34.81196 z"
       inkscape:export-filename="D:\Downloads\ojs-logo.png"
       inkscape:export-xdpi="22.55176"
       inkscape:export-ydpi="22.55176" />
    <path
       sodipodi:nodetypes="sssss"
       inkscape:connector-curvature="0"
       id="path3885"
       d="m 399.66866,328.76393 c -5.39645,0 -7.8874,6.62488 -7.8874,12.02133 0,5.39646 2.11513,10.34661 7.51158,10.34661 5.39644,0 10.51809,-5.51387 10.51809,-10.91033 0,-5.39645 -4.74583,-11.45761 -10.14227,-11.45761 z"
       style="color:#000000;fill:#000000;fill-opacity:1;fill-rule:nonzero;stroke:none;stroke-width:0.69999999;marker:none;visibility:visible;display:inline;overflow:visible;enable-background:accumulate"
       inkscape:export-filename="D:\Downloads\ojs-logo.png"
       inkscape:export-xdpi="22.55176"
       inkscape:export-ydpi="22.55176" />
    <path
       style="color:#000000;fill:#000000;fill-opacity:1;fill-rule:nonzero;stroke:none;stroke-width:0.69999999;marker:none;visibility:visible;display:inline;overflow:visible;enable-background:accumulate"
       d="m 350.24919,350.74901 c -5.39645,0 -11.26968,5.87325 -11.26968,11.26971 0,5.39645 3.61836,10.91033 9.0148,10.91033 5.39645,0 10.51809,-5.51388 10.51809,-10.91033 0,-5.39646 -2.86677,-11.26971 -8.26321,-11.26971 z"
       id="path3880"
       inkscape:connector-curvature="0"
       sodipodi:nodetypes="sssss"
       inkscape:export-filename="D:\Downloads\ojs-logo.png"
       inkscape:export-xdpi="22.55176"
       inkscape:export-ydpi="22.55176" />
    <path
       style="fill:#000000;fill-opacity:1;stroke:none"
       d="m 390.83983,469.28044 c 0,0 -3.95157,-7.83623 -5.61342,-14.27277 -0.52068,-1.76941 -0.87622,-3.41996 -0.91146,-4.77717 -0.0328,-1.26457 0.0415,-4.19416 -0.92786,-7.01556 -0.12785,-0.37211 -0.28893,-0.74637 -0.47797,-1.12525 -0.67723,-1.3533 -1.69164,-2.77235 -2.8426,-4.32158 -1.15097,-1.54922 -2.4216,-3.21922 -3.77417,-5.06139 0,0 0,0 0,0 -0.38659,-0.53572 -0.76907,-1.09995 -1.1441,-1.69646 -3.49314,-5.55607 -6.10546,-9.7157 -7.93944,-12.67912 0,0 0,0 0,0 -1.18349,-1.9123 -2.04369,-3.32336 -2.62128,-4.28159 0,0 0,0 0,0 -0.31232,-0.51814 -0.54146,-0.90296 -0.69495,-1.16253 0,0 0,0 0,0 -0.0794,-0.13442 -0.13814,-0.23469 -0.17759,-0.3023 0,0 0,0 0,0 0,0 0,0 0,0 0.54927,-0.45419 0.96024,-0.79431 1.23867,-1.02477 0,0 0,0 0,0 0.2759,-0.22838 0.42158,-0.34917 0.44078,-0.36507 0,0 0,0 0,0 0,0 0,0 0,0 0,0 0,0 0,0 0,0 0,0 0,0 0,0 0,0 0,0 0,0 0,0 0,0 0,0 0,0 0,0 0,0 0,0 0,0 0,0 0,0 0,0 0,0 0,0 0,0 0,0 0,0 0,0 0,0 0,0 0,0 0,0 0,0 0,0 0,0 0,0 0,0 0.001,-0.001 0.002,-0.002 0.002,-0.002 0,0 -7.7e-4,5.4e-4 -0.002,0.002 0,0 0,0 0,0 0,0 0,0 0,0 0,0 0,0 0,0 0,0 0,0 0,0 0,0 0,0 0,0 0,0 0,0 0,0 0,0 0,0 0,0 0,0 0,0 0,0 0,0 0,0 0,0 0,0 0,0 0,0 0,0 0,0 0,0 0,0 0,0 0,0 0,0 0,0 0,0 0,0 0,0 0,0 -0.0192,0.0159 -0.16562,0.13723 -0.43773,0.36282 0,0 0,0 0,0 -0.27463,0.22768 -0.67722,0.56163 -1.19893,0.99554 0,0 0,0 0,0 0,0 0,0 0,10e-6 0.0662,0.048 0.16406,0.11962 0.29409,0.21717 0,0 0,0 0,0 0.2508,0.18863 0.61988,0.47193 1.10901,0.86248 0,0 0,0 0,0 0.90488,0.72251 2.21944,1.80983 3.94849,3.33991 0,0 0,0 0,0 2.68075,2.37227 6.3617,5.80357 11.02134,10.61938 0.49993,0.51669 0.95144,1.04024 1.36146,1.56665 0,0 0,0 0,0 1.67863,2.19168 2.47572,4.48656 2.96944,6.52358 0.49372,2.03701 0.69455,3.84591 1.14189,5.32012 0.13086,0.42907 0.28135,0.83108 0.46304,1.20435 0.67806,1.39306 1.72232,2.57494 2.66199,3.56962 0.93967,0.99468 1.77394,1.7972 2.01749,2.37932 0.5233,1.25077 0.85539,3.0081 1.02756,4.96496 0.36691,6.82742 -0.93375,16.15965 -0.93375,16.15965 z"
       id="path4158"
       inkscape:connector-curvature="0"
       inkscape:path-effect="#path-effect4212"
       inkscape:original-d="m 392.9304,468.71538 c 0,0 -6.05633,-26.70555 -13.7489,-37.97995 -7.69262,-11.2744 -13.78483,-19.54229 -13.78483,-19.54229"
       sodipodi:nodetypes="csc"
       inkscape:export-filename="D:\Downloads\ojs-logo.png"
       inkscape:export-xdpi="22.55176"
       inkscape:export-ydpi="22.55176" />
    <path
       style="fill:#000000;fill-opacity:1;stroke:none"
       d="m 381.05038,408.12986 c 0,0 3.88325,5.69452 6.27626,11.11022 0.98723,2.15985 1.7437,4.25687 1.91278,5.9371 0.0829,0.82383 0.1621,2.39239 0.56139,4.13846 0,0 0,0 0,0 0.18656,0.80134 0.43019,1.63496 0.76769,2.44114 0.6107,1.45872 1.80233,2.90061 3.25909,4.38051 1.7025,1.79799 3.63778,3.94551 5.29463,6.91329 1.66987,2.99111 3.0848,5.57565 4.27255,7.77982 0,0 0,0 0,0 0,0 0,0 0,0 1.70968,3.17276 2.94864,5.55741 3.7996,7.23214 0,0 0,0 0,0 0.50824,1.00022 0.87807,1.74721 1.12713,2.25762 0,0 0,0 0,0 0,0 0,0 0,0 0,0 0,0 0,0 0.13521,0.27709 0.23482,0.48445 0.30166,0.62475 0,0 0,0 0,0 0,0 0,0 0,0 0.0348,0.073 0.0607,0.1279 0.0781,0.16497 0,0 0,0 0,0 0,0 0,0 0,0 -0.5915,0.38853 -1.03616,0.68068 -1.33769,0.87879 -0.29876,0.19629 -0.45696,0.30033 -0.47723,0.31365 0,0 0,0 0,0 0,0 0,0 0,0 0,0 0,0 0,0 0,0 0,0 0,0 0,0 0,0 0,0 0,0 0,0 0,0 0,0 0,0 0,0 0,0 0,0 0,0 0,0 0,0 0,0 0,0 0,0 0,0 0,0 0,0 0,0 0,0 0,0 0,0 0,0 0,0 0,0 0,0 0,0 0,0 0,0 0,0 0,0 0,0 0,0 0,0 0,0 0,0 0,0 0,0 0,0 0,0 0,0 0,0 0,0 0,0 0,0 0,0 0,0 0,0 0,0 0,0 0,0 0,0 -0.001,9.8e-4 -0.002,0.001 -0.002,0.001 0,0 7.6e-4,-4.5e-4 0.002,-0.001 0,0 0,0 0,0 0,0 0,0 0,0 0,0 0,0 0,0 0,0 0,0 0,0 0,0 0,0 0,0 0,0 0,0 0,0 0,0 0,0 0,0 0,0 0,0 0,0 0,0 0,0 0,0 0,0 0,0 0,0 0,0 0,0 0,0 0,0 0,0 0,0 0,0 0,0 0,0 0,0 0,0 0,0 0,0 0,0 0,0 0,0 0,0 0,0 0,0 0,0 0,0 0,0 0,0 0,0 0,0 0,0 0,0 0,0 0,0 0,0 0,0 0,0 0,0 0,0 0,0 0,0 0.0203,-0.0133 0.17891,-0.11763 0.47546,-0.31256 0.29931,-0.19675 0.73907,-0.48588 1.3144,-0.86445 0,0 0,0 0,0 0,0 0,0 0,0 -0.0332,-0.0274 -0.0821,-0.0681 -0.14684,-0.12267 0,0 0,0 0,0 0,0 0,0 0,0 -0.12439,-0.10489 -0.30711,-0.2611 -0.54842,-0.47284 0,0 0,0 0,0 0,0 0,0 0,0 0,0 0,0 0,0 -0.44461,-0.39012 -1.08812,-0.96873 -1.9321,-1.76205 0,0 0,0 0,0 -1.41367,-1.32882 -3.38978,-3.26007 -5.93572,-5.91705 0,0 0,0 0,0 0,0 0,0 0,-1e-5 -1.76944,-1.84662 -3.81412,-4.04381 -6.13652,-6.63294 -2.29838,-2.56237 -3.35696,-5.25414 -4.13358,-7.62741 -0.77449,-2.27834 -1.0573,-4.22808 -1.87812,-5.63615 -0.44979,-0.77158 -1.03176,-1.44986 -1.64095,-2.04328 -1e-5,0 -1e-5,0 -1e-5,0 -1.38028,-1.35018 -2.90084,-2.32545 -3.28354,-3.03918 -0.77462,-1.44465 -1.2932,-3.72517 -1.61373,-6.21572 -0.70734,-6.10394 -0.37632,-13.52615 -0.37632,-13.52615 z"
       id="path4160"
       inkscape:connector-curvature="0"
       inkscape:path-effect="#path-effect4173"
       inkscape:original-d="m 379.04097,408.93826 c 0,0 8.40843,21.79717 12.57303,28.56181 4.1646,6.76464 15.27012,24.80368 15.27012,24.80368"
       inkscape:export-filename="D:\Downloads\ojs-logo.png"
       inkscape:export-xdpi="22.55176"
       inkscape:export-ydpi="22.55176" />
    <path
       sodipodi:nodetypes="sssss"
       inkscape:connector-curvature="0"
       id="path4311"
       d="m 355.59781,352.56021 c -1.77067,0 -2.7485,3.70691 -2.7485,5.47757 0,1.77067 1.18718,3.57986 2.95785,3.57986 1.77072,0 3.45115,-1.80919 3.45115,-3.57986 0,-1.77066 -1.88989,-5.47757 -3.6605,-5.47757 z"
       style="color:#000000;fill:#ffffff;fill-opacity:1;fill-rule:nonzero;stroke:none;stroke-width:0.69999999;marker:none;visibility:visible;display:inline;overflow:visible;enable-background:accumulate"
       inkscape:export-filename="D:\Downloads\ojs-logo.png"
       inkscape:export-xdpi="22.55176"
       inkscape:export-ydpi="22.55176" />
    <path
       style="color:#000000;fill:#ffffff;fill-opacity:1;fill-rule:nonzero;stroke:none;stroke-width:0.69999999;marker:none;visibility:visible;display:inline;overflow:visible;enable-background:accumulate"
       d="m 407.28546,333.18188 c -2.05078,0 -2.5373,3.23317 -2.5373,5.28388 0,2.05072 1.72394,3.67624 3.77473,3.67624 2.05062,0 2.61675,-2.5554 2.61675,-4.60611 0,-2.05072 -1.80355,-4.35401 -3.85418,-4.35401 z"
       id="path4313"
       inkscape:connector-curvature="0"
       sodipodi:nodetypes="sssss"
       inkscape:export-filename="D:\Downloads\ojs-logo.png"
       inkscape:export-xdpi="22.55176"
       inkscape:export-ydpi="22.55176" />
    <path
       style="color:#000000;fill:#5a9761;fill-opacity:1;fill-rule:nonzero;stroke:#000000;stroke-width:1.57841611;stroke-miterlimit:4;stroke-opacity:1;stroke-dasharray:none;marker:none;visibility:visible;display:inline;overflow:visible;enable-background:accumulate"
       d="m 291.66543,405.36095 c -3.64861,0 -5.28711,4.91809 -4.45424,8.0945 0.99093,3.77928 2.95269,5.94739 6.60136,5.94739 3.64867,0 6.62182,-2.6636 6.62182,-5.94739 0,-3.2838 -5.12027,-8.0945 -8.76894,-8.0945 z"
       id="path4317"
       inkscape:connector-curvature="0"
       sodipodi:nodetypes="sssss"
       inkscape:export-filename="D:\Downloads\ojs-logo.png"
       inkscape:export-xdpi="22.55176"
       inkscape:export-ydpi="22.55176" />
    <path
       sodipodi:nodetypes="sssss"
       inkscape:connector-curvature="0"
       id="path4320"
       d="m 310.6372,410.18906 c -1.6858,0 -3.49387,1.22124 -3.10906,2.68885 0.45785,1.74616 1.36428,2.7479 3.05003,2.7479 1.6858,0 3.05955,-1.23067 3.05955,-2.7479 0,-1.51722 -1.31472,-2.68885 -3.00052,-2.68885 z"
       style="color:#000000;fill:#5a9761;fill-opacity:1;fill-rule:nonzero;stroke:#000000;stroke-width:1.57841611;stroke-linecap:butt;stroke-linejoin:miter;stroke-miterlimit:4;stroke-opacity:1;stroke-dasharray:none;stroke-dashoffset:0;marker:none;visibility:visible;display:inline;overflow:visible;enable-background:accumulate"
       inkscape:export-filename="D:\Downloads\ojs-logo.png"
       inkscape:export-xdpi="22.55176"
       inkscape:export-ydpi="22.55176" />
    <path
       style="color:#000000;fill:#5a9761;fill-opacity:1;fill-rule:nonzero;stroke:#000000;stroke-width:1.57841611;stroke-linecap:butt;stroke-linejoin:miter;stroke-miterlimit:4;stroke-opacity:1;stroke-dasharray:none;stroke-dashoffset:0;marker:none;visibility:visible;display:inline;overflow:visible;enable-background:accumulate"
       d="m 305.30989,419.28875 c -1.68575,0 -3.32872,2.54253 -2.9439,4.01014 0.45784,1.74616 1.36427,2.7479 3.05002,2.7479 1.6858,0 3.05955,-1.23067 3.05955,-2.7479 0,-1.51722 -1.47982,-4.01014 -3.16567,-4.01014 z"
       id="path4339"
       inkscape:connector-curvature="0"
       sodipodi:nodetypes="sssss"
       inkscape:export-filename="D:\Downloads\ojs-logo.png"
       inkscape:export-xdpi="22.55176"
       inkscape:export-ydpi="22.55176" />
    <text
       xml:space="preserve"
       style="font-size:131.92442321999999000px;font-style:normal;font-weight:normal;line-height:125%;letter-spacing:0px;word-spacing:0px;fill:#5a7997;fill-opacity:1;stroke:#000000;stroke-width:6.99999995;stroke-miterlimit:4;stroke-opacity:1;stroke-dasharray:none;font-family:Sans"
       x="526.1925"
       y="274.32852"
       id="text3029"
       sodipodi:linespacing="125%"
       transform="scale(0.89403201,1.1185282)"
       inkscape:export-filename="D:\Downloads\ojs-logo.png"
       inkscape:export-xdpi="22.55176"
       inkscape:export-ydpi="22.55176"><tspan
         sodipodi:role="line"
         x="526.1925"
         y="274.32852"
         id="tspan3033"
         style="font-weight:bold;stroke-width:6.99999995;-inkscape-font-specification:Sans Bold;stroke-miterlimit:4;stroke-dasharray:none">REVISTAS</tspan><tspan
         sodipodi:role="line"
         x="526.1925"
         y="439.23404"
         id="tspan3037"
         style="font-weight:bold;stroke-width:6.99999995;-inkscape-font-specification:Sans Bold;stroke-miterlimit:4;stroke-dasharray:none">INFORMÁTICAS</tspan></text>
  </g>
</svg>
