<?xml version="1.0" encoding="UTF-8" standalone="no"?>
<!-- Generated by IcoMoon.io -->

<svg
   xmlns:dc="http://purl.org/dc/elements/1.1/"
   xmlns:cc="http://creativecommons.org/ns#"
   xmlns:rdf="http://www.w3.org/1999/02/22-rdf-syntax-ns#"
   xmlns:svg="http://www.w3.org/2000/svg"
   xmlns="http://www.w3.org/2000/svg"
   xmlns:sodipodi="http://sodipodi.sourceforge.net/DTD/sodipodi-0.dtd"
   xmlns:inkscape="http://www.inkscape.org/namespaces/inkscape"
   version="1.1"
   width="48"
   height="48"
   viewBox="0 0 48 48"
   id="svg2"
   inkscape:version="0.92.0 r15299"
   sodipodi:docname="favicon_webapps.svg"
   inkscape:export-filename="C:\Users\BLJ\Documents\_MCLibre.org\Varios\apuntes\SVG iconos\iconos\webapps\favicon-webapps-48.png"
   inkscape:export-xdpi="48"
   inkscape:export-ydpi="48">
  <metadata
     id="metadata10">
    <rdf:RDF>
      <cc:Work
         rdf:about="">
        <dc:format>image/svg+xml</dc:format>
        <dc:type
           rdf:resource="http://purl.org/dc/dcmitype/StillImage" />
        <dc:title></dc:title>
      </cc:Work>
    </rdf:RDF>
  </metadata>
  <defs
     id="defs8" />
  <sodipodi:namedview
     pagecolor="#ffffff"
     bordercolor="#666666"
     borderopacity="1"
     objecttolerance="10"
     gridtolerance="10"
     guidetolerance="10"
     inkscape:pageopacity="0"
     inkscape:pageshadow="2"
     inkscape:window-width="1920"
     inkscape:window-height="1018"
     id="namedview6"
     showgrid="false"
     inkscape:zoom="9.2875315"
     inkscape:cx="18.293424"
     inkscape:cy="15.626721"
     inkscape:window-x="-8"
     inkscape:window-y="-8"
     inkscape:window-maximized="1"
     inkscape:current-layer="svg2"
     fit-margin-top="0"
     fit-margin-left="0"
     fit-margin-right="0"
     fit-margin-bottom="0" />
  <g
     id="g818"
     transform="translate(-1.7117311e-7,-8.3732789)">
    <path
       inkscape:connector-curvature="0"
       style="fill:#008000;fill-opacity:1"
       id="path4"
       d="m 39.139007,47.997192 c 0,0 7.750299,0.0084 8.837026,-7.573389 0.516686,-8.292258 -7.491956,-9.92656 -7.491956,-9.92656 0,0 0.912626,-12.276922 -10.336539,-13.675345 -9.640136,-0.982828 -12.57177,7.974944 -12.57177,7.974944 0,0 -2.903554,-2.79123 -6.843289,-0.51107 -3.5269479,2.176261 -2.9035543,6.160925 -2.9035543,6.160925 0,0 -7.8289247,1.521979 -7.8289247,9.50254 C 0.17690899,47.918566 8.5056718,48 8.5056718,48" />
    <path
       sodipodi:nodetypes="ccccccccccssccc"
       style="fill:#ffffff"
       inkscape:connector-curvature="0"
       id="path4-9"
       d="M 34.864097,28.666452 21.545377,41.98517 c -0.334162,0.331354 -0.873313,0.331354 -1.210282,0 l -0.269576,-0.266767 v 0.0028 l -7.329087,-7.379631 c -0.334161,-0.334162 -0.334161,-0.876121 0,-1.210282 l 1.816827,-1.81402 c 0.334162,-0.334161 0.876121,-0.334161 1.210283,0 l 5.180906,5.217419 10.889732,-10.88973 c 0.334161,-0.334161 0.876121,-0.334161 1.210282,0 l 1.816827,1.816827 c 0.33697,0.334161 0.33697,0.873312 0.0028,1.210282 z" />
  </g>
</svg>
