<svg xmlns="http://www.w3.org/2000/svg" width="32" height="32"><g style="stroke-width:1.5"><path d="M39.14 31.25s7.75 0 8.84-7.57c.51-8.3-7.5-9.93-7.5-9.93S41.4 1.47 30.15.08C20.5-.91 17.58 8.05 17.58 8.05s-2.9-2.8-6.85-.51c-3.52 2.18-2.9 6.16-2.9 6.16S0 15.22 0 23.2c.18 7.97 8.5 8.05 8.5 8.05" style="fill:green;fill-opacity:1;stroke-width:1.5" transform="translate(0 5) scale(.66667)"/><path d="M34.86 11.92 21.55 25.24a.86.86 0 0 1-1.21 0l-.27-.27-7.33-7.37a.86.86 0 0 1 0-1.22l1.81-1.8a.86.86 0 0 1 1.21 0l5.18 5.2L31.84 8.9a.86.86 0 0 1 1.2 0l1.82 1.82c.34.33.34.87 0 1.2z" style="fill:#fff;stroke-width:1.5" transform="translate(0 5) scale(.66667)"/></g></svg>