<?xml version="1.0" encoding="UTF-8" standalone="no"?>
<!-- Generated by IcoMoon.io -->

<svg
   xmlns:dc="http://purl.org/dc/elements/1.1/"
   xmlns:cc="http://creativecommons.org/ns#"
   xmlns:rdf="http://www.w3.org/1999/02/22-rdf-syntax-ns#"
   xmlns:svg="http://www.w3.org/2000/svg"
   xmlns="http://www.w3.org/2000/svg"
   xmlns:sodipodi="http://sodipodi.sourceforge.net/DTD/sodipodi-0.dtd"
   xmlns:inkscape="http://www.inkscape.org/namespaces/inkscape"
   version="1.1"
   width="48"
   height="31.253443"
   viewBox="0 0 48 31.253443"
   id="svg2"
   inkscape:version="0.91 r13725"
   sodipodi:docname="icono-webapps_1.svg">
  <metadata
     id="metadata10">
    <rdf:RDF>
      <cc:Work
         rdf:about="">
        <dc:format>image/svg+xml</dc:format>
        <dc:type
           rdf:resource="http://purl.org/dc/dcmitype/StillImage" />
        <dc:title></dc:title>
      </cc:Work>
    </rdf:RDF>
  </metadata>
  <defs
     id="defs8" />
  <sodipodi:namedview
     pagecolor="#ffffff"
     bordercolor="#666666"
     borderopacity="1"
     objecttolerance="10"
     gridtolerance="10"
     guidetolerance="10"
     inkscape:pageopacity="0"
     inkscape:pageshadow="2"
     inkscape:window-width="1920"
     inkscape:window-height="1018"
     id="namedview6"
     showgrid="false"
     inkscape:zoom="14.75"
     inkscape:cx="8.7637119"
     inkscape:cy="6.001"
     inkscape:window-x="-8"
     inkscape:window-y="-8"
     inkscape:window-maximized="1"
     inkscape:current-layer="svg2"
     fit-margin-top="0"
     fit-margin-left="0"
     fit-margin-right="0"
     fit-margin-bottom="0" />
  <path
     d="m 39.139007,31.250635 c 0,0 7.750299,0.0084 8.837026,-7.573389 0.516686,-8.292258 -7.491956,-9.92656 -7.491956,-9.92656 0,0 0.912626,-12.2769227 -10.336539,-13.67534572 -9.640136,-0.982828 -12.57177,7.97494482 -12.57177,7.97494482 0,0 -2.903554,-2.7912308 -6.843289,-0.5110704 C 7.2055311,9.7154761 7.8289247,13.70014 7.8289247,13.70014 7.8289247,13.70014 0,15.222119 0,23.20268 c 0.17690899,7.969329 8.5056718,8.050763 8.5056718,8.050763"
     id="path4"
     style="fill:#008000;fill-opacity:1"
     inkscape:connector-curvature="0" />
  <path
     d="m 34.864097,11.919895 -13.31872,13.318718 c -0.334162,0.331354 -0.873313,0.331354 -1.210282,0 l -0.269576,-0.266767 0,0.0028 -7.329087,-7.379631 c -0.334161,-0.334162 -0.334161,-0.876121 0,-1.210282 l 1.816827,-1.81402 c 0.334162,-0.334161 0.876121,-0.334161 1.210283,0 L 20.944448,19.788132 31.83418,8.8984017 c 0.334161,-0.3341614 0.876121,-0.3341614 1.210282,0 l 1.816827,1.8168273 c 0.33697,0.334161 0.33697,0.873312 0.0028,1.210282 z"
     id="path4-9"
     inkscape:connector-curvature="0"
     style="fill:#ffffff"
     sodipodi:nodetypes="ccccccccccssccc" />
</svg>
