<svg xmlns="http://www.w3.org/2000/svg" width="100" height="100" viewBox="0 0 900 900">
  <g transform="translate(420 -300.934)">
    <rect width="870" height="870" x="-405" y="315.93" fill="none" stroke="green" stroke-width="30" rx="75.36" ry="72.04" stroke-linecap="round"/>
    <g fill="#0082c9" stroke-width="1.26">
      <path d="M30.62 484.1c-84.42 0-155.97 57.24-178.14 134.78-19.27-41.13-61.04-69.94-109.15-69.94-66.15 0-120.54 54.38-120.54 120.54s54.3 120.57 120.5 120.57c48.1 0 89.9-28.84 109.1-69.97 22.1 77.54 93.7 134.8 178.1 134.8 83.8 0 155-56.4 177.7-133.06 19.6 40.2 60.8 68.23 108.3 68.23 66.1 0 120.5-54.4 120.5-120.57 0-66.16-54.4-120.54-120.6-120.54-47.5 0-88.7 28-108.3 68.2-22.6-76.66-93.8-133.04-177.6-133.04zm0 70.77c63.73 0 114.63 50.9 114.63 114.6 0 63.73-50.9 114.64-114.63 114.64-63.72 0-114.6-50.9-114.6-114.6 0-63.7 50.88-114.6 114.6-114.6zm-287.3 64.83c27.93 0 49.82 21.86 49.82 49.78s-21.9 49.8-49.8 49.8c-27.92 0-49.8-21.88-49.8-49.8 0-27.92 21.88-49.78 49.8-49.78zm573.32 0c27.92 0 49.8 21.86 49.8 49.78s-21.88 49.8-49.8 49.8c-27.92 0-49.78-21.88-49.78-49.8 0-27.92 21.86-49.78 49.78-49.78z" style="line-height:normal;text-indent:0;text-align:start;text-decoration-line:none;text-decoration-style:solid;text-decoration-color:#000000;text-transform:none;isolation:auto;mix-blend-mode:normal" color="#000" font-family="sans-serif" white-space="normal" overflow="visible" solid-color="#000000"/>
      <g>
        <path d="M-169.06 940.05c19.85 0 30.95 14.13 30.95 35.32 0 2.02-1.7 3.7-3.7 3.7h-53.5c.3 18.84 13.4 29.6 28.6 29.6 9.4 0 16.1-4.03 19.5-6.72 2-1.35 3.7-1 4.7 1l1 1.7c1 1.67.7 3.35-1 4.7-4.1 3.02-12.8 8.07-24.6 8.07-21.9 0-38.7-15.8-38.7-38.68.3-24.22 16.5-38.7 36.6-38.7zm20.52 31.62c-.67-15.47-10.1-23.2-20.86-23.2-12.44 0-23.2 8.07-25.56 23.2zm111.44-20.85v-25.9c0-2.36 1.34-3.7 3.7-3.7h2.7c2.34 0 3.35 1.34 3.35 3.7v17.5h15.14c2.3 0 3.7 1.33 3.7 3.7v1c0 2.35-1.4 3.36-3.7 3.36h-15.2v37c0 17.16 10.4 19.17 16.1 19.5 3 .35 4 1.02 4 3.7v2.03c0 2.4-1 3.4-4.1 3.4-16.2 0-25.9-9.7-25.9-27.2zm77.02-10.77c12.78 0 20.86 5.4 24.56 8.4 1.68 1.36 2.02 3.04.33 5.06l-1 1.7c-1.3 2-3 2-5 .7-3.3-2.3-9.7-6.7-18.5-6.7-16.1 0-28.9 12.1-28.9 30 0 17.5 12.8 29.6 29 29.6 10.5 0 17.5-4.7 20.9-7.7 2.1-1.3 3.4-1 4.7 1l1 1.4c1 2 .7 3.4-1 5.1-3.7 3.1-12.8 9.4-26.2 9.4-21.8 0-38.7-15.8-38.7-38.6.3-22.9 17.2-39.1 39-39.1zm44.74-23.88c0-2.35-1.35-3.7 1-3.7h2.7c2.35 0 6.05 1.35 6.05 3.7v80.4c0 9.4 4.4 10.42 7.8 10.76 1.7 0 3.1 1 3.1 3.36v2.3c0 2.3-1 3.7-3.7 3.7-6 0-16.8-2-16.8-18.2zm68.94 23.88c21.54 0 39.03 16.5 39.03 38.35 0 22.2-17.5 39.02-39.02 39.02-21.5 0-39-16.82-39-39.02 0-21.86 17.5-38.35 39-38.35zm0 68.62c15.82 0 28.6-12.78 28.6-30.27 0-16.82-12.78-29.26-28.6-29.26-15.8 0-28.9 12.78-28.9 29.26.32 17.15 13.1 30.27 28.9 30.27zm167.86-68.62c17.82 0 24.2 14.8 24.2 14.8h.35s-.3-2.35-.3-5.7v-33.3c0-2.37-1-3.7 1.4-3.7h2.7c2.4 0 6.1 1.33 6.1 3.7v95.85c0 2.35-1 3.7-3.3 3.7h-2.3c-2.4 0-3.7-1-3.7-3.36v-5.72c0-2.7.7-4.7.7-4.7h-.3s-6.4 15.46-25.54 15.46c-19.82 0-32.3-15.8-32.3-38.68-.63-22.87 13.16-38.35 32.67-38.35zm.33 68.62c12.4 0 23.8-8.74 23.8-29.93 0-15.14-7.8-29.6-23.6-29.6-13.1 0-23.9 10.76-23.9 29.6.3 18.16 9.7 29.93 23.5 29.93zm-614.2 7.07h2.7c2.3 0 3.7-1.35 3.7-3.7V939.8c0-11.42 12.4-19.6 26.5-19.6s26.5 8.18 26.5 19.6v72.24c0 2.35 1.3 3.7 3.7 3.7h2.7c2.3 0 3.3-1.35 3.3-3.7v-72.66c0-19.17-19.2-28.6-36.7-28.6-16.9 0-36 9.43-36 28.6v72.66c0 2.35 1 3.7 3.3 3.7zm561.3-74h-2.7c-2.4 0-3.7 1.34-3.7 3.7v40.7c0 11.43-7.4 21.86-21.9 21.86-14.2 0-21.9-10.43-21.9-21.86v-40.7c0-2.36-1.4-3.7-3.7-3.7h-2.7c-2.4 0-3.4 1.34-3.4 3.7v43.4c0 19.16 14.1 28.58 31.6 28.58s31.6-9.42 31.6-28.6v-43.38c.3-2.36-1-3.7-3.4-3.7zm-332.9-.56c-.8.14-1.6.7-2.4 1.6l-13.6 16.2-10.2 12.16-15.4-18.4-8.4-9.97c-.8-.9-1.6-1.4-2.5-1.47-.9-.08-1.8.26-2.7 1l-2.1 1.74c-1.8 1.52-1.7 3.2-.2 5l13.6 16.22 11.2 13.46-16.6 19.7s0 .03-.1.04l-8.33 9.94c-1.5 1.8-1.35 3.7.45 5.22l2 1.72c1.8 1.52 3.4 1.14 4.94-.67l13.6-16.23 10.2-12.14 15.4 18.4s.04 0 .05.03l8.34 9.94c1.5 1.8 3.4 1.97 5.2.46l2-1.73c1.8-1.52 1.7-3.2.2-5l-13.6-16.22-11.3-13.46 16.5-19.7c.02 0 .02-.03.04-.04l8.32-9.94c1.5-1.8 1.34-3.7-.46-5.22l-2.07-1.73c-.9-.8-1.74-1.1-2.6-.9z"/>
      </g>
    </g>
  </g>
</svg>
