<?xml version="1.0" encoding="UTF-8" standalone="no"?>
<!-- Created with Inkscape (http://www.inkscape.org/) -->

<svg
   xmlns:dc="http://purl.org/dc/elements/1.1/"
   xmlns:cc="http://creativecommons.org/ns#"
   xmlns:rdf="http://www.w3.org/1999/02/22-rdf-syntax-ns#"
   xmlns:svg="http://www.w3.org/2000/svg"
   xmlns="http://www.w3.org/2000/svg"
   xmlns:sodipodi="http://sodipodi.sourceforge.net/DTD/sodipodi-0.dtd"
   xmlns:inkscape="http://www.inkscape.org/namespaces/inkscape"
   width="100"
   height="100"
   viewBox="0 0 900 900"
   id="svg6487"
   version="1.1"
   inkscape:version="0.91 r13725"
   sodipodi:docname="logo-wordpress.svg">
  <defs
     id="defs6489">
    <clipPath
       id="clipPath18-32-3"
       clipPathUnits="userSpaceOnUse">
      <path
         inkscape:connector-curvature="0"
         id="path16-1"
         d="m 19.769,107.039 c -2.234,-2.544 -3.356,-5.696 -3.356,-9.45 l 0,0 c 0,-3.744 1.122,-6.898 3.356,-9.45 l 0,0 c 2.332,-2.675 5.352,-4.018 9.071,-4.018 l 0,0 c 3.709,0 6.738,1.343 9.069,4.018 l 0,0 c 2.235,2.552 3.348,5.706 3.348,9.45 l 0,0 c 0,3.754 -1.113,6.906 -3.348,9.45 l 0,0 c -2.331,2.649 -5.36,3.973 -9.069,3.973 l 0,0 c -3.683,0 -6.713,-1.324 -9.071,-3.973 m 5.255,-13.777 c -0.821,1.192 -1.228,2.64 -1.228,4.327 l 0,0 c 0,1.695 0.407,3.126 1.228,4.284 l 0,0 c 0.91,1.316 2.181,1.969 3.816,1.969 l 0,0 c 1.633,0 2.905,-0.653 3.815,-1.969 l 0,0 c 0.812,-1.158 1.218,-2.589 1.218,-4.284 l 0,0 c 0,-1.687 -0.406,-3.135 -1.218,-4.327 l 0,0 c -0.91,-1.315 -2.182,-1.97 -3.815,-1.97 l 0,0 c -1.635,0 -2.906,0.655 -3.816,1.97" />
    </clipPath>
    <linearGradient
       id="linearGradient28"
       spreadMethod="pad"
       gradientTransform="matrix(24.84375,0,0,-24.84375,16.413086,97.566895)"
       gradientUnits="userSpaceOnUse"
       y2="0"
       x2="1"
       y1="0"
       x1="0">
      <stop
         id="stop24"
         offset="0"
         style="stop-opacity:1;stop-color:#24baed" />
      <stop
         id="stop26"
         offset="1"
         style="stop-opacity:1;stop-color:#3dc6ee" />
    </linearGradient>
    <clipPath
       id="clipPath38-1"
       clipPathUnits="userSpaceOnUse">
      <path
         inkscape:connector-curvature="0"
         id="path36-5-2"
         d="m 50.238,108.177 c -0.724,1.565 -1.872,2.349 -3.444,2.349 l 0,0 c -1.042,0 -1.916,-0.379 -2.623,-1.129 l 0,0 c -0.706,-0.759 -1.06,-1.661 -1.06,-2.703 l 0,0 0,-28.552 c 0,-1.077 0.345,-1.988 1.033,-2.746 l 0,0 c 0.698,-0.752 1.572,-1.132 2.642,-1.132 l 0,0 c 2.613,0 3.92,2.19 3.92,6.58 l 0,0 c 0,0.796 -0.035,1.802 -0.105,3.038 l 0,0 c -0.071,1.228 -0.106,1.997 -0.106,2.315 l 0,0 c 1.66,-1.378 3.69,-2.076 6.084,-2.076 l 0,0 c 3.392,0 6.183,1.439 8.346,4.301 l 0,0 c 2.022,2.614 3.029,5.669 3.029,9.167 l 0,0 c 0,3.497 -1.015,6.553 -3.029,9.175 l 0,0 c -2.172,2.836 -4.954,4.248 -8.355,4.248 l 0,0 c -2.675,0 -4.787,-0.945 -6.332,-2.835 m 1.475,-14.915 c -0.813,1.192 -1.218,2.64 -1.218,4.327 l 0,0 c 0,1.695 0.405,3.126 1.218,4.284 l 0,0 c 0.91,1.316 2.182,1.969 3.815,1.969 l 0,0 c 1.634,0 2.905,-0.653 3.815,-1.969 l 0,0 c 0.813,-1.158 1.228,-2.589 1.228,-4.284 l 0,0 c 0,-1.687 -0.415,-3.135 -1.228,-4.327 l 0,0 c -0.91,-1.315 -2.181,-1.97 -3.815,-1.97 l 0,0 c -1.633,0 -2.905,0.655 -3.815,1.97" />
    </clipPath>
    <linearGradient
       id="linearGradient48"
       spreadMethod="pad"
       gradientTransform="matrix(24.84375,0,0,-24.84375,43.11084,92.638672)"
       gradientUnits="userSpaceOnUse"
       y2="0"
       x2="1"
       y1="0"
       x1="0">
      <stop
         id="stop44"
         offset="0"
         style="stop-opacity:1;stop-color:#24baed" />
      <stop
         id="stop46"
         offset="1"
         style="stop-opacity:1;stop-color:#3dc6ee" />
    </linearGradient>
    <clipPath
       id="clipPath58-7"
       clipPathUnits="userSpaceOnUse">
      <path
         inkscape:connector-curvature="0"
         id="path56-2-0"
         d="m 73.686,107.065 c -2.473,-2.632 -3.709,-5.783 -3.709,-9.476 l 0,0 c 0,-3.877 1.192,-7.083 3.568,-9.636 l 0,0 c 2.375,-2.552 5.484,-3.832 9.335,-3.832 l 0,0 c 2.393,0 4.733,0.433 7.038,1.28 l 0,0 c 3.021,1.13 4.532,2.704 4.532,4.725 l 0,0 c 0,0.875 -0.302,1.634 -0.893,2.262 l 0,0 c -0.601,0.635 -1.325,0.945 -2.181,0.945 l 0,0 c -0.469,0 -1.555,-0.39 -3.241,-1.185 l 0,0 c -1.687,-0.785 -3.126,-1.183 -4.329,-1.183 l 0,0 c -1.545,0 -2.852,0.3 -3.92,0.894 l 0,0 c -1.325,0.758 -1.987,1.845 -1.987,3.258 l 0,0 13.327,0 c 1.227,0 2.136,0.237 2.72,0.705 l 0,0 c 0.582,0.478 0.874,1.326 0.874,2.561 l 0,0 c 0,3.437 -1.149,6.403 -3.427,8.894 l 0,0 c -2.279,2.491 -5.122,3.735 -8.523,3.735 l 0,0 c -3.656,0 -6.72,-1.315 -9.184,-3.947 m 5.723,-3.744 c 1.007,0.927 2.093,1.386 3.259,1.386 l 0,0 c 1.13,0 2.198,-0.459 3.206,-1.386 l 0,0 c 1.007,-0.927 1.528,-1.952 1.563,-3.083 l 0,0 -9.538,0 c 0,1.131 0.504,2.156 1.51,3.083" />
    </clipPath>
    <linearGradient
       id="linearGradient68"
       spreadMethod="pad"
       gradientTransform="matrix(24.842773,0,0,-24.842773,69.977051,97.566895)"
       gradientUnits="userSpaceOnUse"
       y2="0"
       x2="1"
       y1="0"
       x1="0">
      <stop
         id="stop64"
         offset="0"
         style="stop-opacity:1;stop-color:#24baed" />
      <stop
         id="stop66"
         offset="1"
         style="stop-opacity:1;stop-color:#3dc6ee" />
    </linearGradient>
    <clipPath
       id="clipPath78-85-4"
       clipPathUnits="userSpaceOnUse">
      <path
         inkscape:connector-curvature="0"
         id="path76-3-9"
         d="m 104.146,108.177 c -0.689,1.565 -1.916,2.349 -3.683,2.349 l 0,0 c -1.068,0 -1.952,-0.37 -2.64,-1.112 l 0,0 c -0.698,-0.734 -1.042,-1.642 -1.042,-2.712 l 0,0 0,-18.218 c 0,-1.078 0.344,-1.987 1.042,-2.746 l 0,0 c 0.688,-0.752 1.563,-1.132 2.631,-1.132 l 0,0 c 2.544,0 3.816,2.05 3.816,6.138 l 0,0 c 0,0.786 -0.045,2.023 -0.133,3.726 l 0,0 c -0.079,1.697 -0.123,2.942 -0.123,3.728 l 0,0 c 0,4.337 1.395,6.509 4.195,6.509 l 0,0 c 2.8,0 4.204,-2.172 4.204,-6.509 l 0,0 c 0,-0.786 -0.053,-2.031 -0.169,-3.728 l 0,0 c -0.105,-1.703 -0.159,-2.94 -0.159,-3.726 l 0,0 c 0,-4.088 1.29,-6.138 3.869,-6.138 l 0,0 c 1.069,0 1.943,0.38 2.641,1.132 l 0,0 c 0.688,0.759 1.033,1.668 1.033,2.746 l 0,0 0,13.795 c 0,2.764 -0.831,4.936 -2.499,6.518 l 0,0 c -1.635,1.475 -3.86,2.215 -6.659,2.215 l 0,0 c -3.022,0 -5.131,-0.945 -6.324,-2.835" />
    </clipPath>
    <linearGradient
       id="linearGradient88"
       spreadMethod="pad"
       gradientTransform="matrix(22.847656,0,0,-22.847656,96.780273,97.80957)"
       gradientUnits="userSpaceOnUse"
       y2="0"
       x2="1"
       y1="0"
       x1="0">
      <stop
         id="stop84"
         offset="0"
         style="stop-opacity:1;stop-color:#24baed" />
      <stop
         id="stop86"
         offset="1"
         style="stop-opacity:1;stop-color:#3dc6ee" />
    </linearGradient>
    <clipPath
       id="clipPath98-9"
       clipPathUnits="userSpaceOnUse">
      <path
         inkscape:connector-curvature="0"
         id="path96-42"
         d="m 125.051,107.109 c -2.287,-2.597 -3.427,-5.766 -3.427,-9.52 l 0,0 c 0,-3.744 1.122,-6.898 3.355,-9.45 l 0,0 c 2.332,-2.675 5.352,-4.018 9.071,-4.018 l 0,0 c 1.926,0 3.753,0.398 5.484,1.183 l 0,0 c 2.174,0.973 3.258,2.297 3.258,3.965 l 0,0 c 0,0.823 -0.299,1.573 -0.891,2.27 l 0,0 c -0.601,0.689 -1.307,1.042 -2.128,1.042 l 0,0 c -0.565,0 -1.475,-0.22 -2.739,-0.643 l 0,0 c -1.263,-0.434 -2.251,-0.646 -2.975,-0.646 l 0,0 c -1.634,0 -2.916,0.671 -3.824,2.023 l 0,0 c -0.822,1.155 -1.228,2.587 -1.228,4.274 l 0,0 c 0,1.793 0.459,3.241 1.369,4.372 l 0,0 c 0.981,1.254 2.35,1.881 4.107,1.881 l 0,0 c 0.663,0 1.563,-0.194 2.693,-0.602 l 0,0 c 1.13,-0.396 1.995,-0.599 2.597,-0.599 l 0,0 c 0.883,0 1.607,0.353 2.171,1.042 l 0,0 c 0.566,0.698 0.848,1.502 0.848,2.411 l 0,0 c 0,1.802 -1.068,3.125 -3.213,3.973 l 0,0 c -1.537,0.628 -3.383,0.945 -5.529,0.945 l 0,0 c -3.719,0 -6.712,-1.298 -8.999,-3.903" />
    </clipPath>
    <linearGradient
       id="linearGradient108"
       spreadMethod="pad"
       gradientTransform="matrix(21.167969,0,0,-21.167969,121.62402,97.566895)"
       gradientUnits="userSpaceOnUse"
       y2="0"
       x2="1"
       y1="0"
       x1="0">
      <stop
         id="stop104"
         offset="0"
         style="stop-opacity:1;stop-color:#24baed" />
      <stop
         id="stop106"
         offset="1"
         style="stop-opacity:1;stop-color:#3dc6ee" />
    </linearGradient>
    <linearGradient
       id="linearGradient128"
       spreadMethod="pad"
       gradientTransform="matrix(24.841797,0,0,-24.841797,144.79004,97.566895)"
       gradientUnits="userSpaceOnUse"
       y2="0"
       x2="1"
       y1="0"
       x1="0">
      <stop
         id="stop124"
         offset="0"
         style="stop-opacity:1;stop-color:#24baed" />
      <stop
         id="stop126"
         offset="1"
         style="stop-opacity:1;stop-color:#3dc6ee" />
    </linearGradient>
    <linearGradient
       id="linearGradient148"
       spreadMethod="pad"
       gradientTransform="matrix(16.25,0,0,-16.25,172.21973,97.80957)"
       gradientUnits="userSpaceOnUse"
       y2="0"
       x2="1"
       y1="0"
       x1="0">
      <stop
         id="stop144"
         offset="0"
         style="stop-opacity:1;stop-color:#24baed" />
      <stop
         id="stop146"
         offset="1"
         style="stop-opacity:1;stop-color:#3dc6ee" />
    </linearGradient>
    <linearGradient
       id="linearGradient168"
       spreadMethod="pad"
       gradientTransform="matrix(18,0,0,-18,189.73145,101.79688)"
       gradientUnits="userSpaceOnUse"
       y2="0"
       x2="1"
       y1="0"
       x1="0">
      <stop
         id="stop164"
         offset="0"
         style="stop-opacity:1;stop-color:#24baed" />
      <stop
         id="stop166"
         offset="1"
         style="stop-opacity:1;stop-color:#3dc6ee" />
    </linearGradient>
    <linearGradient
       id="linearGradient188"
       spreadMethod="pad"
       gradientTransform="matrix(8.7958984,0,0,-8.7958984,118.20605,117.05811)"
       gradientUnits="userSpaceOnUse"
       y2="0"
       x2="1"
       y1="0"
       x1="0">
      <stop
         id="stop184"
         offset="0"
         style="stop-opacity:1;stop-color:#24baed" />
      <stop
         id="stop186"
         offset="1"
         style="stop-opacity:1;stop-color:#3dc6ee" />
    </linearGradient>
    <linearGradient
       id="linearGradient208"
       spreadMethod="pad"
       gradientTransform="matrix(53.858398,0,0,-53.858398,213.18848,108.96924)"
       gradientUnits="userSpaceOnUse"
       y2="0"
       x2="1"
       y1="0"
       x1="0">
      <stop
         id="stop204"
         offset="0"
         style="stop-opacity:1;stop-color:#24baed" />
      <stop
         id="stop206"
         offset="1"
         style="stop-opacity:1;stop-color:#3dc6ee" />
    </linearGradient>
    <linearGradient
       id="linearGradient228"
       spreadMethod="pad"
       gradientTransform="matrix(7.6914062,0,0,-7.6914062,223.60254,88.064453)"
       gradientUnits="userSpaceOnUse"
       y2="0"
       x2="1"
       y1="0"
       x1="0">
      <stop
         id="stop224"
         offset="0"
         style="stop-opacity:1;stop-color:#24baed" />
      <stop
         id="stop226"
         offset="1"
         style="stop-opacity:1;stop-color:#3dc6ee" />
    </linearGradient>
    <linearGradient
       id="linearGradient248"
       spreadMethod="pad"
       gradientTransform="matrix(7.6914062,0,0,-7.6914062,241.12402,88.064453)"
       gradientUnits="userSpaceOnUse"
       y2="0"
       x2="1"
       y1="0"
       x1="0">
      <stop
         id="stop244"
         offset="0"
         style="stop-opacity:1;stop-color:#24baed" />
      <stop
         id="stop246"
         offset="1"
         style="stop-opacity:1;stop-color:#3dc6ee" />
    </linearGradient>
    <clipPath
       id="clipPath26-1"
       clipPathUnits="userSpaceOnUse">
      <path
         inkscape:connector-curvature="0"
         id="path24-11-2"
         d="m 486.844,545.402 0,0.629 -114.406,66.074 114.41,66.047 114.406,-66.047 -114.406,-66.074 0,-0.629 -0.004,0" />
    </clipPath>
    <clipPath
       id="clipPath38-4-8"
       clipPathUnits="userSpaceOnUse">
      <path
         inkscape:connector-curvature="0"
         id="path36-6-0"
         d="m 486.848,413.895 0,131.507 114.406,66.703 0,-132.132 -114.406,-66.078" />
    </clipPath>
    <clipPath
       id="clipPath50-4"
       clipPathUnits="userSpaceOnUse">
      <path
         inkscape:connector-curvature="0"
         id="path48-2"
         d="m 486.848,545.402 0,0.629 114.406,66.074 -114.41,-66.703" />
    </clipPath>
    <clipPath
       id="clipPath62-0"
       clipPathUnits="userSpaceOnUse">
      <path
         inkscape:connector-curvature="0"
         id="path60-0"
         d="m 486.844,413.895 -114.406,66.078 0,132.132 114.406,-66.703 0,-131.507" />
    </clipPath>
    <clipPath
       id="clipPath74-2"
       clipPathUnits="userSpaceOnUse">
      <path
         inkscape:connector-curvature="0"
         id="path72-4-1"
         d="m 486.844,545.402 -114.406,66.703 114.406,-66.074 0,-0.629" />
    </clipPath>
    <clipPath
       id="clipPath86-3"
       clipPathUnits="userSpaceOnUse">
      <path
         inkscape:connector-curvature="0"
         id="path84-6-9"
         d="m 773.641,709.816 0,1.184 -286.813,165.605 -114.519,-66.121 0,226.056 c 20.675,11.93 41.343,23.87 62.031,35.82 16.383,9.46 34.41,14.18 52.453,14.18 18.102,0 36.219,-4.76 52.684,-14.27 125.828,-72.649 251.652,-145.293 377.492,-217.93 17.668,-10.207 30.781,-23.582 39.48,-39.473 L 773.641,709.816" />
    </clipPath>
    <clipPath
       id="clipPath98-6-7"
       clipPathUnits="userSpaceOnUse">
      <path
         inkscape:connector-curvature="0"
         id="path96-4-3"
         d="m 31.7227,845.004 c 7.0507,6.676 15.3789,12.695 24.9023,18.195 l 144.207,83.254 c 0,-0.664 0,-1.324 0,-1.988 L 53.6992,859.5 C 45.4609,854.742 38.125,849.996 31.7227,845.004" />
    </clipPath>
    <clipPath
       id="clipPath110-6"
       clipPathUnits="userSpaceOnUse">
      <path
         inkscape:connector-curvature="0"
         id="path108-4"
         d="m 18.0898,275.629 c -8.95699,15.922 -13.84371,34.152 -13.84371,52.883 0,150.371 0,300.754 0,451.136 0,27.411 9.64841,48.477 27.47661,65.356 6.4023,4.992 13.7382,9.738 21.9765,14.496 l 147.1328,84.965 c -0.008,-190.68 -0.801,-371.438 -0.801,-562.211 l 0,-2.074 L 18.0898,275.629" />
    </clipPath>
  </defs>
  <sodipodi:namedview
     id="base"
     pagecolor="#ffffff"
     bordercolor="#666666"
     borderopacity="1.0"
     inkscape:pageopacity="0.0"
     inkscape:pageshadow="2"
     inkscape:zoom="0.35"
     inkscape:cx="390.78907"
     inkscape:cy="670.00006"
     inkscape:document-units="px"
     inkscape:current-layer="layer1"
     showgrid="false"
     fit-margin-top="0"
     fit-margin-left="0"
     fit-margin-right="0"
     fit-margin-bottom="0"
     inkscape:window-width="1920"
     inkscape:window-height="1018"
     inkscape:window-x="-8"
     inkscape:window-y="-8"
     inkscape:window-maximized="1" />
  <metadata
     id="metadata6492">
    <rdf:RDF>
      <cc:Work
         rdf:about="">
        <dc:format>image/svg+xml</dc:format>
        <dc:type
           rdf:resource="http://purl.org/dc/dcmitype/StillImage" />
        <dc:title></dc:title>
      </cc:Work>
    </rdf:RDF>
  </metadata>
  <g
     inkscape:label="Capa 1"
     inkscape:groupmode="layer"
     id="layer1"
     transform="translate(618.57141,-302.36225)">
    <g
       id="g6469"
       transform="translate(-3638.3551,-2114.8648)">
      <rect
         inkscape:export-ydpi="88.451927"
         inkscape:export-xdpi="88.451927"
         inkscape:export-filename="C:\Users\BLJ\Documents\_MCLibre.org\Varios\soluciones_phpbb.png"
         ry="72.038681"
         rx="75.356613"
         y="2432.2271"
         x="3034.7837"
         height="870"
         width="870"
         id="rect6916-4-74-0-0-1-7-0-7-7"
         style="fill:none;fill-opacity:1;stroke:#008000;stroke-width:30;stroke-linecap:round;stroke-linejoin:miter;stroke-miterlimit:4;stroke-dasharray:none;stroke-opacity:1" />
      <g
         transform="matrix(0.49906525,0,0,0.49906525,2215.6665,611.00343)"
         id="g6162">
        <path
           style="fill:#00749a"
           inkscape:connector-curvature="0"
           d="m 2434.3442,3806.3051 -81.3215,0 0,8.6268 c 25.4367,0 29.5263,5.4515 29.5263,37.7092 l 0,58.1534 c 0,32.2539 -4.0858,38.1607 -29.5263,38.1607 -19.5298,-2.7238 -32.7091,-13.1755 -50.8809,-33.1644 l -20.8956,-22.7128 c 28.1643,-5.0039 43.1531,-22.7166 43.1531,-42.7093 0,-24.9814 -21.347,-44.0636 -61.3287,-44.0636 l -79.9557,0 0,8.6268 c 25.4367,0 29.5263,5.4515 29.5263,37.7092 l 0,58.1534 c 0,32.2539 -4.0896,38.1607 -29.5263,38.1607 l 0,8.6306 90.4035,0 0,-8.6306 c -25.4366,0 -29.5262,-5.9068 -29.5262,-38.1607 l 0,-16.3507 7.7201,0 50.4295,63.142 132.2024,0 c 64.963,0 93.1312,-34.5225 93.1312,-75.8699 0,-41.3398 -28.1643,-75.4108 -93.1312,-75.4108 z m -190.3482,74.0451 0,-60.4144 18.6232,0 c 20.4404,0 29.5301,14.0821 29.5301,30.4367 0,15.9032 -9.0897,29.9815 -29.5301,29.9815 l -18.6232,0 z m 191.7139,63.1535 -3.1829,0 c -16.3507,0 -18.6232,-4.0858 -18.6232,-24.9852 l 0,-98.5827 c 0,0 19.989,0 21.8061,0 47.2466,0 55.8734,34.5225 55.8734,61.3287 0,27.709 -8.6306,62.2392 -55.8734,62.2392 z"
           id="path8-1" />
        <path
           style="fill:#00749a"
           inkscape:connector-curvature="0"
           d="m 1930.08,3897.1676 31.3472,-92.6835 c 9.0897,-26.8024 5.0001,-34.5225 -24.0747,-34.5225 l 0,-9.0898 85.4072,0 0,9.0898 c -28.6195,0 -35.433,6.8134 -46.7913,39.9778 l -51.7952,155.3704 -5.9029,0 -46.3438,-142.1987 -47.2427,142.1987 -5.9068,0 -50.4256,-155.3704 c -10.9031,-33.1644 -18.1718,-39.9778 -44.5227,-39.9778 l 0,-9.0898 100.8551,0 0,9.0898 c -26.8062,0 -34.0787,6.3582 -24.5338,34.5225 l 30.4368,92.6835 45.8846,-136.2958 8.6345,0 44.9741,136.2958 z"
           id="path10-5" />
        <path
           style="fill:#00749a"
           inkscape:connector-curvature="0"
           d="m 2084.536,3963.4888 c -49.9704,0 -90.8587,-36.7949 -90.8587,-81.7767 0,-44.5189 40.8922,-81.3215 90.8587,-81.3215 49.9743,0 90.8588,36.8026 90.8588,81.3215 0,44.9818 -40.8845,81.7767 -90.8588,81.7767 z m 0,-149.0045 c -41.7912,0 -56.3324,37.7016 -56.3324,67.2316 0,29.9891 14.5412,67.2393 56.3324,67.2393 42.2542,0 56.7916,-37.2502 56.7916,-67.2393 0,-29.53 -14.5374,-67.2316 -56.7916,-67.2316 z"
           id="path12-7" />
        <path
           style="fill:#464342"
           inkscape:connector-curvature="0"
           d="m 2639.6812,3948.5 0,9.0858 -104.0343,0 0,-9.0858 c 30.4406,0 35.8921,-7.7202 35.8921,-53.1572 l 0,-72.6832 c 0,-45.437 -5.4515,-52.7019 -35.8921,-52.7019 l 0,-9.0897 94.0379,0 c 46.7913,0 72.6946,24.0786 72.6946,56.3401 0,31.3472 -25.9033,55.8772 -72.6946,55.8772 l -25.8957,0 0,22.2537 c 0,45.4408 5.4515,53.161 35.8921,53.161 z m -9.9964,-171.2774 -25.8957,0 0,79.0529 25.8957,0 c 25.4443,0 37.254,-17.7165 37.254,-39.0674 0,-21.8061 -11.8097,-39.9855 -37.254,-39.9855 z"
           id="path14-2-1" />
        <path
           style="fill:#464342"
           inkscape:connector-curvature="0"
           d="m 3014.4745,3914.8841 -2.2724,8.1754 c -4.0858,14.9927 -9.0897,20.4442 -41.3436,20.4442 l -6.3621,0 c -23.6194,0 -27.709,-5.4515 -27.709,-37.7054 l 0,-20.8956 c 35.4368,0 38.1645,3.1752 38.1645,26.8023 l 8.6306,0 0,-67.6945 -8.6306,0 c 0,23.6233 -2.7277,26.8024 -38.1645,26.8024 l 0,-50.8771 24.9814,0 c 32.2615,0 37.254,5.4515 41.3436,20.4442 l 2.2762,8.6268 7.2649,0 -3.1753,-42.7017 -133.5681,0 0,8.6268 c 25.4366,0 29.5301,5.4515 29.5301,37.7092 l 0,58.1534 c 0,29.5071 -3.4737,36.9403 -23.5315,38 -19.0631,-2.9113 -32.1506,-13.3093 -50.0584,-33.0037 l -20.8994,-22.7128 c 28.1681,-5.0039 43.1608,-22.7166 43.1608,-42.7093 0,-24.9814 -21.3509,-44.0636 -61.3287,-44.0636 l -79.9558,0 0,8.6268 c 25.4367,0 29.5263,5.4515 29.5263,37.7092 l 0,58.1534 c 0,32.2539 -4.0858,38.1607 -29.5263,38.1607 l 0,8.6306 90.4074,0 0,-8.6306 c -25.4366,0 -29.5301,-5.9068 -29.5301,-38.1607 l 0,-16.3507 7.724,0 50.4256,63.142 186.7138,0 2.7277,-42.6978 -6.8211,0 z m -240.7738,-34.5339 0,-60.4144 18.6232,0 c 20.4442,0 29.5339,14.0821 29.5339,30.4367 0,15.9032 -9.0897,29.9815 -29.5339,29.9815 l -18.6232,0 z"
           id="path16-0-3" />
        <path
           style="fill:#464342"
           inkscape:connector-curvature="0"
           d="m 3106.6952,3963.4888 c -18.1718,0 -34.0749,-9.5373 -40.8884,-15.4479 -2.2724,2.2762 -6.3582,9.0897 -7.2648,15.4479 l -8.6345,0 0,-62.6868 9.0859,0 c 3.6382,29.9815 24.5299,47.698 51.3361,47.698 14.5374,0 26.351,-8.1754 26.351,-21.8023 0,-11.8097 -10.4478,-20.8994 -29.0748,-29.5301 l -25.8957,-12.2649 c -18.1756,-8.6383 -31.8025,-23.631 -31.8025,-43.6161 0,-21.8061 20.4442,-40.4292 48.6123,-40.4292 14.9927,0 27.7091,5.4515 35.4368,11.8097 2.2686,-1.8172 4.5411,-6.8173 5.9068,-12.2726 l 8.6306,0 0,53.6124 -9.5411,0 c -3.1829,-21.3547 -14.9926,-39.0712 -39.0673,-39.0712 -12.7203,0 -24.5376,7.2687 -24.5376,18.6308 0,11.8097 9.5411,18.1679 31.351,28.1643 l 24.9814,12.265 c 21.8099,10.4478 30.4367,27.2653 30.4367,40.8922 0,28.6157 -24.9852,48.6008 -55.4219,48.6008 z"
           id="path18-9-0" />
        <path
           style="fill:#464342"
           inkscape:connector-curvature="0"
           d="m 3246.6177,3963.4888 c -18.1756,0 -34.0788,-9.5373 -40.8884,-15.4479 -2.2724,2.2762 -6.3582,9.0897 -7.2649,15.4479 l -8.6344,0 0,-62.6868 9.0859,0 c 3.6343,29.9815 24.5299,47.698 51.3361,47.698 14.5374,0 26.351,-8.1754 26.351,-21.8023 0,-11.8097 -10.4478,-20.8994 -29.0787,-29.5301 l -25.8957,-12.2649 c -18.1717,-8.6383 -31.8024,-23.631 -31.8024,-43.6161 0,-21.8061 20.4441,-40.4292 48.6123,-40.4292 14.9926,0 27.709,5.4515 35.4368,11.8097 2.2686,-1.8172 4.541,-6.8173 5.8991,-12.2726 l 8.6345,0 0,53.6124 -9.5373,0 c -3.1829,-21.3547 -14.9927,-39.0712 -39.0674,-39.0712 -12.7202,0 -24.5376,7.2687 -24.5376,18.6308 0,11.8097 9.5411,18.1679 31.3511,28.1643 l 24.9814,12.265 c 21.8099,10.4478 30.4367,27.2653 30.4367,40.8922 0,28.6157 -24.9852,48.6008 -55.4181,48.6008 z"
           id="path20-7-2" />
      </g>
      <g
         transform="matrix(1.3760492,0,0,1.3760492,1446.2124,-2359.1913)"
         id="g6171">
        <g
           id="g22-80-3"
           transform="matrix(3.825632,0,0,3.825632,1236.1945,3621.8063)">
          <path
             style="fill:#464342"
             inkscape:connector-curvature="0"
             d="m 8.708,61.26 c 0,20.802 12.089,38.779 29.619,47.298 L 13.258,39.872 c -2.916,6.536 -4.55,13.769 -4.55,21.388 z"
             id="path24-5-6" />
          <path
             style="fill:#464342"
             inkscape:connector-curvature="0"
             d="m 96.74,58.608 c 0,-6.495 -2.333,-10.993 -4.334,-14.494 -2.664,-4.329 -5.161,-7.995 -5.161,-12.324 0,-4.831 3.664,-9.328 8.825,-9.328 0.233,0 0.454,0.029 0.681,0.042 C 87.401,13.938 74.944,8.708 61.262,8.708 c -18.36,0 -34.513,9.42 -43.91,23.688 1.233,0.037 2.395,0.063 3.382,0.063 5.497,0 14.006,-0.667 14.006,-0.667 2.833,-0.167 3.167,3.994 0.337,4.329 0,0 -2.847,0.335 -6.015,0.501 L 48.2,93.547 59.701,59.054 51.513,36.62 c -2.83,-0.166 -5.511,-0.501 -5.511,-0.501 -2.832,-0.166 -2.5,-4.496 0.332,-4.329 0,0 8.679,0.667 13.843,0.667 5.496,0 14.006,-0.667 14.006,-0.667 2.835,-0.167 3.168,3.994 0.337,4.329 0,0 -2.853,0.335 -6.015,0.501 l 18.992,56.494 5.242,-17.517 c 2.272,-7.269 4.001,-12.49 4.001,-16.989 z"
             id="path26-6-8" />
          <path
             style="fill:#464342"
             inkscape:connector-curvature="0"
             d="m 62.184,65.857 -15.768,45.819 c 4.708,1.384 9.687,2.141 14.846,2.141 6.12,0 11.989,-1.058 17.452,-2.979 -0.141,-0.225 -0.269,-0.464 -0.374,-0.724 L 62.184,65.857 Z"
             id="path28-5" />
          <path
             style="fill:#464342"
             inkscape:connector-curvature="0"
             d="m 107.376,36.046 c 0.226,1.674 0.354,3.471 0.354,5.404 0,5.333 -0.996,11.328 -3.996,18.824 l -16.053,46.413 c 15.624,-9.111 26.133,-26.038 26.133,-45.426 0.001,-9.137 -2.333,-17.729 -6.438,-25.215 z"
             id="path30-9-1" />
          <path
             style="fill:#464342"
             inkscape:connector-curvature="0"
             d="M 61.262,0 C 27.483,0 0,27.481 0,61.26 c 0,33.783 27.483,61.263 61.262,61.263 33.778,0 61.265,-27.48 61.265,-61.263 C 122.526,27.481 95.04,0 61.262,0 Z m 0,119.715 c -32.23,0 -58.453,-26.223 -58.453,-58.455 0,-32.23 26.222,-58.451 58.453,-58.451 32.229,0 58.45,26.221 58.45,58.451 0,32.232 -26.221,58.455 -58.45,58.455 z"
             id="path32-9-0" />
        </g>
      </g>
    </g>
  </g>
</svg>
