<svg xmlns="http://www.w3.org/2000/svg" width="100" height="100" xmlns:xlink="http://www.w3.org/1999/xlink" viewBox="0 0 900 900">
  <defs>
    <clipPath id="m">
      <path d="M19.77 107.04c-2.24-2.55-3.36-5.7-3.36-9.45 0-3.8 1.2-6.9 3.4-9.5 2.4-2.7 5.4-4 9.1-4 3.7 0 6.8 1.3 9.1 4 2.3 2.5 3.4 5.7 3.4 9.4s-1.1 6.9-3.3 9.4c-2.3 2.6-5.3 3.9-9 3.9s-6.7-1.3-9-4M25.3 93c-.9 1.22-1.3 2.7-1.3 4.4 0 1.7.4 3.12 1.2 4.27.9 1.34 2.17 2 3.8 2s2.9-.66 3.8-1.98c.83-1.2 1.23-2.6 1.23-4.3 0-1.7-.4-3.2-1.2-4.4-.9-1.3-2.2-2-3.8-2-1.67 0-2.94.6-3.85 1.9"/>
    </clipPath>
    <linearGradient id="n" x2="1" xlink:href="#a" gradientUnits="userSpaceOnUse" gradientTransform="matrix(24.8 0 0 -24.8 16.4 97.6)"/>
    <linearGradient id="a" x2="1" gradientTransform="matrix(24.8 0 0 -24.8 16.4 97.6)" gradientUnits="userSpaceOnUse">
      <stop offset="0" stop-color="#24baed"/>
      <stop offset="1" stop-color="#3dc6ee"/>
    </linearGradient>
    <clipPath id="o">
      <path d="M50.24 108.18c-.73 1.56-1.87 2.35-3.45 2.35-1.1 0-2-.38-2.7-1.13-.7-.76-1.1-1.66-1.1-2.7V78.13c0-1.08.3-2 1-2.74.7-.8 1.6-1.2 2.6-1.2 2.6 0 3.9 2.2 3.9 6.6 0 .8-.1 1.8-.1 3s-.1 2-.1 2.3C52 84.7 54 84 56.4 84c3.4 0 6.17 1.4 8.34 4.3 2.02 2.6 3.02 5.7 3.02 9.2s-1 6.5-3.04 9.1c-2.17 2.85-4.95 4.26-8.35 4.26-2.66 0-4.8-.94-6.3-2.83m1.44-14.9c-.8 1.2-1.2 2.64-1.2 4.33 0 1.7.4 3.14 1.2 4.3.9 1.35 2.2 2 3.9 2s2.9-.64 3.8-1.96c.9-1.1 1.3-2.6 1.3-4.24 0-1.7-.4-3.15-1.2-4.34-.9-1.3-2.1-1.94-3.8-1.94s-2.9.66-3.8 1.97"/>
    </clipPath>
    <linearGradient id="p" x2="1" xlink:href="#b" gradientUnits="userSpaceOnUse" gradientTransform="matrix(24.8 0 0 -24.8 43.1 92.6)"/>
    <linearGradient id="b" x2="1" gradientTransform="matrix(24.8 0 0 -24.8 43.1 92.6)" gradientUnits="userSpaceOnUse">
      <stop offset="0" stop-color="#24baed"/>
      <stop offset="1" stop-color="#3dc6ee"/>
    </linearGradient>
    <clipPath id="q">
      <path d="M73.7 107.06c-2.5-2.63-3.72-5.78-3.72-9.47 0-3.9 1.2-7.1 3.56-9.7 2.38-2.6 5.5-3.9 9.34-3.9 2.4 0 4.73.4 7.04 1.3 3.02 1.1 4.53 2.7 4.53 4.7 0 .9-.3 1.6-.9 2.2-.6.6-1.32.9-2.17.9-.47 0-1.56-.4-3.25-1.2-1.68-.8-3.12-1.2-4.32-1.2-1.5 0-2.8.3-3.9.9-1.3.7-2 1.8-2 3.2h13.4c1.3 0 2.2.2 2.8.7.6.5.9 1.3.9 2.5 0 3.4-1.1 6.4-3.4 8.9s-5.1 3.7-8.5 3.7c-3.6 0-6.7-1.3-9.1-4m5.7-3.74c1 .94 2.1 1.4 3.3 1.4 1.1 0 2.2-.46 3.2-1.4 1-.9 1.5-1.94 1.6-3.1H78c0 1.2.5 2.2 1.5 3.1"/>
    </clipPath>
    <linearGradient id="r" x2="1" xlink:href="#c" gradientUnits="userSpaceOnUse" gradientTransform="matrix(24.8 0 0 -24.8 70 97.6)"/>
    <linearGradient id="c" x2="1" gradientTransform="matrix(24.8 0 0 -24.8 70 97.6)" gradientUnits="userSpaceOnUse">
      <stop offset="0" stop-color="#24baed"/>
      <stop offset="1" stop-color="#3dc6ee"/>
    </linearGradient>
    <clipPath id="s">
      <path d="M104.15 108.18c-.7 1.56-1.92 2.35-3.7 2.35-1.06 0-1.94-.37-2.63-1.12-.7-.7-1.04-1.6-1.04-2.7V88.5c0-1.07.34-1.98 1.04-2.74.7-.75 1.57-1.13 2.63-1.13 2.55 0 3.82 2.07 3.82 6.15 0 .8-.04 2.03-.13 3.73-.08 1.7-.13 3-.13 3.8 0 4.4 1.4 6.5 4.2 6.5 2.8 0 4.2-2.1 4.2-6.5 0-.8 0-2-.1-3.7-.1-1.7-.1-2.9-.1-3.7 0-4.1 1.3-6.1 3.9-6.1 1.1 0 2 .4 2.7 1.2.7.8 1 1.7 1 2.8v13.8c0 2.8-.8 5-2.5 6.5-1.6 1.5-3.8 2.2-6.6 2.2-3 0-5.1-.9-6.3-2.8"/>
    </clipPath>
    <linearGradient id="t" x2="1" xlink:href="#d" gradientUnits="userSpaceOnUse" gradientTransform="matrix(22.8 0 0 -22.8 96.8 97.8)"/>
    <linearGradient id="d" x2="1" gradientTransform="matrix(22.8 0 0 -22.8 96.8 97.8)" gradientUnits="userSpaceOnUse">
      <stop offset="0" stop-color="#24baed"/>
      <stop offset="1" stop-color="#3dc6ee"/>
    </linearGradient>
    <clipPath id="u">
      <path d="M125.05 107.1c-2.3-2.6-3.43-5.76-3.43-9.5 0-3.75 1.13-6.9 3.36-9.46 2.33-2.68 5.35-4.02 9.07-4.02 1.93 0 3.75.4 5.48 1.18 2.18.98 3.26 2.3 3.26 3.97 0 .82-.3 1.57-.9 2.27-.6.7-1.3 1.04-2.2 1.04-.6 0-1.5-.22-2.8-.64-1.3-.44-2.3-.65-3-.65-1.7 0-2.9.6-3.8 2-.9 1.1-1.3 2.6-1.3 4.2 0 1.8.4 3.2 1.3 4.3.9 1.2 2.3 1.9 4.1 1.9.6 0 1.5-.2 2.7-.6 1.1-.4 2-.6 2.6-.6.8 0 1.6.3 2.1 1s.8 1.5.8 2.4c0 1.8-1.1 3.1-3.3 4-1.5.6-3.4.9-5.5.9-3.7 0-6.7-1.3-9-3.9"/>
    </clipPath>
    <linearGradient id="v" x2="1" xlink:href="#e" gradientUnits="userSpaceOnUse" gradientTransform="matrix(21.2 0 0 -21.2 121.6 97.6)"/>
    <linearGradient id="e" x2="1" gradientTransform="matrix(21.2 0 0 -21.2 121.6 97.6)" gradientUnits="userSpaceOnUse">
      <stop offset="0" stop-color="#24baed"/>
      <stop offset="1" stop-color="#3dc6ee"/>
    </linearGradient>
    <linearGradient id="w" x2="1" xlink:href="#f" gradientUnits="userSpaceOnUse" gradientTransform="matrix(24.8 0 0 -24.8 144.8 97.6)"/>
    <linearGradient id="f" x2="1" gradientTransform="matrix(24.8 0 0 -24.8 144.8 97.6)" gradientUnits="userSpaceOnUse">
      <stop offset="0" stop-color="#24baed"/>
      <stop offset="1" stop-color="#3dc6ee"/>
    </linearGradient>
    <linearGradient id="x" x2="1" xlink:href="#g" gradientUnits="userSpaceOnUse" gradientTransform="matrix(16.3 0 0 -16.3 172.2 97.8)"/>
    <linearGradient id="g" x2="1" gradientTransform="matrix(16.3 0 0 -16.3 172.2 97.8)" gradientUnits="userSpaceOnUse">
      <stop offset="0" stop-color="#24baed"/>
      <stop offset="1" stop-color="#3dc6ee"/>
    </linearGradient>
    <linearGradient id="y" x2="1" xlink:href="#h" gradientUnits="userSpaceOnUse" gradientTransform="matrix(18 0 0 -18 189.7 101.8)"/>
    <linearGradient id="h" x2="1" gradientTransform="matrix(18 0 0 -18 189.7 101.8)" gradientUnits="userSpaceOnUse">
      <stop offset="0" stop-color="#24baed"/>
      <stop offset="1" stop-color="#3dc6ee"/>
    </linearGradient>
    <linearGradient id="z" x2="1" xlink:href="#i" gradientUnits="userSpaceOnUse" gradientTransform="matrix(8.8 0 0 -8.8 118.2 117.1)"/>
    <linearGradient id="i" x2="1" gradientTransform="matrix(8.8 0 0 -8.8 118.2 117.1)" gradientUnits="userSpaceOnUse">
      <stop offset="0" stop-color="#24baed"/>
      <stop offset="1" stop-color="#3dc6ee"/>
    </linearGradient>
    <linearGradient id="A" x2="1" xlink:href="#j" gradientUnits="userSpaceOnUse" gradientTransform="matrix(53.9 0 0 -53.9 213.2 109)"/>
    <linearGradient id="j" x2="1" gradientTransform="matrix(53.9 0 0 -53.9 213.2 109)" gradientUnits="userSpaceOnUse">
      <stop offset="0" stop-color="#24baed"/>
      <stop offset="1" stop-color="#3dc6ee"/>
    </linearGradient>
    <linearGradient id="B" x2="1" xlink:href="#k" gradientUnits="userSpaceOnUse" gradientTransform="matrix(7.7 0 0 -7.7 223.6 88.1)"/>
    <linearGradient id="k" x2="1" gradientTransform="matrix(7.7 0 0 -7.7 223.6 88.1)" gradientUnits="userSpaceOnUse">
      <stop offset="0" stop-color="#24baed"/>
      <stop offset="1" stop-color="#3dc6ee"/>
    </linearGradient>
    <linearGradient id="C" x2="1" xlink:href="#l" gradientUnits="userSpaceOnUse" gradientTransform="matrix(7.7 0 0 -7.7 241.1 88.1)"/>
    <linearGradient id="l" x2="1" gradientTransform="matrix(7.7 0 0 -7.7 241.1 88.1)" gradientUnits="userSpaceOnUse">
      <stop offset="0" stop-color="#24baed"/>
      <stop offset="1" stop-color="#3dc6ee"/>
    </linearGradient>
  </defs>
  <g>
    <g transform="translate(-2986.7 17.1)">
      <g>
        <g>
          <g clip-path="url(#m)" transform="matrix(3.7 0 0 -3.7 3025.8 505.8)">
            <g>
              <g>
                <path fill="url(#n)" d="M19.77 107.04c-2.24-2.55-3.36-5.7-3.36-9.45 0-3.8 1.2-6.9 3.4-9.5 2.4-2.7 5.4-4 9.1-4 3.7 0 6.8 1.3 9.1 4 2.3 2.5 3.4 5.7 3.4 9.4s-1.1 6.9-3.3 9.4c-2.3 2.6-5.3 3.9-9 3.9s-6.7-1.3-9-4M25.3 93c-.9 1.22-1.3 2.7-1.3 4.4 0 1.7.4 3.12 1.2 4.27.9 1.34 2.17 2 3.8 2s2.9-.66 3.8-1.98c.83-1.2 1.23-2.6 1.23-4.3 0-1.7-.4-3.2-1.2-4.4-.9-1.3-2.2-2-3.8-2-1.67 0-2.94.6-3.85 1.9"/>
              </g>
            </g>
          </g>
        </g>
        <g>
          <g clip-path="url(#o)" transform="matrix(3.7 0 0 -3.7 3025.8 505.8)">
            <g>
              <g>
                <path fill="url(#p)" d="M50.24 108.18c-.73 1.56-1.87 2.35-3.45 2.35-1.1 0-2-.38-2.7-1.13-.7-.76-1.1-1.66-1.1-2.7V78.13c0-1.08.3-2 1-2.74.7-.8 1.6-1.2 2.6-1.2 2.6 0 3.9 2.2 3.9 6.6 0 .8-.1 1.8-.1 3s-.1 2-.1 2.3C52 84.7 54 84 56.4 84c3.4 0 6.17 1.4 8.34 4.3 2.02 2.6 3.02 5.7 3.02 9.2s-1 6.5-3.04 9.1c-2.17 2.85-4.95 4.26-8.35 4.26-2.66 0-4.8-.94-6.3-2.83m1.44-14.9c-.8 1.2-1.2 2.64-1.2 4.33 0 1.7.4 3.14 1.2 4.3.9 1.35 2.2 2 3.9 2s2.9-.64 3.8-1.96c.9-1.1 1.3-2.6 1.3-4.24 0-1.7-.4-3.15-1.2-4.34-.9-1.3-2.1-1.94-3.8-1.94s-2.9.66-3.8 1.97"/>
              </g>
            </g>
          </g>
        </g>
        <g>
          <g clip-path="url(#q)" transform="matrix(3.7 0 0 -3.7 3025.8 505.8)">
            <g>
              <g>
                <path fill="url(#r)" d="M73.7 107.06c-2.5-2.63-3.72-5.78-3.72-9.47 0-3.9 1.2-7.1 3.56-9.7 2.38-2.6 5.5-3.9 9.34-3.9 2.4 0 4.73.4 7.04 1.3 3.02 1.1 4.53 2.7 4.53 4.7 0 .9-.3 1.6-.9 2.2-.6.6-1.32.9-2.17.9-.47 0-1.56-.4-3.25-1.2-1.68-.8-3.12-1.2-4.32-1.2-1.5 0-2.8.3-3.9.9-1.3.7-2 1.8-2 3.2h13.4c1.3 0 2.2.2 2.8.7.6.5.9 1.3.9 2.5 0 3.4-1.1 6.4-3.4 8.9s-5.1 3.7-8.5 3.7c-3.6 0-6.7-1.3-9.1-4m5.7-3.74c1 .94 2.1 1.4 3.3 1.4 1.1 0 2.2-.46 3.2-1.4 1-.9 1.5-1.94 1.6-3.1H78c0 1.2.5 2.2 1.5 3.1"/>
              </g>
            </g>
          </g>
        </g>
        <g>
          <g clip-path="url(#s)" transform="matrix(3.7 0 0 -3.7 3025.8 505.8)">
            <g>
              <g>
                <path fill="url(#t)" d="M104.15 108.18c-.7 1.56-1.92 2.35-3.7 2.35-1.06 0-1.94-.37-2.63-1.12-.7-.7-1.04-1.6-1.04-2.7V88.5c0-1.07.34-1.98 1.04-2.74.7-.75 1.57-1.13 2.63-1.13 2.55 0 3.82 2.07 3.82 6.15 0 .8-.04 2.03-.13 3.73-.08 1.7-.13 3-.13 3.8 0 4.4 1.4 6.5 4.2 6.5 2.8 0 4.2-2.1 4.2-6.5 0-.8 0-2-.1-3.7-.1-1.7-.1-2.9-.1-3.7 0-4.1 1.3-6.1 3.9-6.1 1.1 0 2 .4 2.7 1.2.7.8 1 1.7 1 2.8v13.8c0 2.8-.8 5-2.5 6.5-1.6 1.5-3.8 2.2-6.6 2.2-3 0-5.1-.9-6.3-2.8"/>
              </g>
            </g>
          </g>
        </g>
        <g>
          <g clip-path="url(#u)" transform="matrix(3.7 0 0 -3.7 3025.8 505.8)">
            <g>
              <g>
                <path fill="url(#v)" d="M125.05 107.1c-2.3-2.6-3.43-5.76-3.43-9.5 0-3.75 1.13-6.9 3.36-9.46 2.33-2.68 5.35-4.02 9.07-4.02 1.93 0 3.75.4 5.48 1.18 2.18.98 3.26 2.3 3.26 3.97 0 .82-.3 1.57-.9 2.27-.6.7-1.3 1.04-2.2 1.04-.6 0-1.5-.22-2.8-.64-1.3-.44-2.3-.65-3-.65-1.7 0-2.9.6-3.8 2-.9 1.1-1.3 2.6-1.3 4.2 0 1.8.4 3.2 1.3 4.3.9 1.2 2.3 1.9 4.1 1.9.6 0 1.5-.2 2.7-.6 1.1-.4 2-.6 2.6-.6.8 0 1.6.3 2.1 1s.8 1.5.8 2.4c0 1.8-1.1 3.1-3.3 4-1.5.6-3.4.9-5.5.9-3.7 0-6.7-1.3-9-3.9"/>
              </g>
            </g>
          </g>
        </g>
        <g>
          <g>
            <g>
              <g>
                <path fill="url(#w)" d="M147.76 106.76c-1.97-2.62-2.97-5.67-2.97-9.17s1-6.6 2.9-9.2c2.2-2.9 5-4.3 8.4-4.3 2.7 0 4.8.9 6.3 2.8.7-1.6 1.8-2.4 3.4-2.4 1 0 1.9.4 2.6 1.1.7.7 1 1.6 1 2.7v18.2c0 1-.4 1.9-1.1 2.7-.7.7-1.6 1.1-2.6 1.1-1.6 0-2.8-.8-3.5-2.4-1.6 1.9-3.7 2.8-6.4 2.8-3.4 0-6.2-1.4-8.4-4.2M153 93c-.8 1.2-1.2 2.6-1.2 4.3 0 1.7.4 3.1 1.24 4.3.9 1.3 2.2 2 3.8 2 1.6 0 2.9-.7 3.8-2 .84-1.18 1.25-2.6 1.25-4.3 0-1.7-.4-3.2-1.3-4.38-.9-1.3-2.2-2-3.8-2-1.7 0-2.9.66-3.9 1.97" transform="matrix(3.7 0 0 -3.7 3025.8 505.8)"/>
              </g>
            </g>
          </g>
        </g>
        <g>
          <g>
            <g>
              <g>
                <path fill="url(#x)" d="M179.6 108.18c-.7 1.56-1.93 2.35-3.7 2.35-1.06 0-1.95-.37-2.65-1.12-.7-.7-1.03-1.6-1.03-2.7V88.5c0-1.07.34-1.98 1.04-2.74.7-.75 1.58-1.13 2.65-1.13 1.1 0 2 .4 2.7 1.15.7.76 1.1 1.67 1.1 2.74v9.06c0 2.4.8 4.03 2.4 4.92 1.4.5 2.8.98 4.3 1.46 1.6.6 2.3 1.68 2.3 3.26 0 1.02-.3 1.92-1.1 2.68-.7.75-1.6 1.13-2.6 1.13-1.8 0-3.5-.92-5.1-2.8" transform="matrix(3.7 0 0 -3.7 3025.8 505.8)"/>
              </g>
            </g>
          </g>
        </g>
        <g>
          <g>
            <g>
              <g>
                <path fill="url(#y)" d="M194.48 113.42v-3.18c-1.52 0-2.62-.18-3.28-.55-.98-.6-1.47-1.5-1.47-2.9s.47-2.4 1.43-2.9c.7-.4 1.8-.6 3.32-.6V88.4c0-1.07.35-2 1.05-2.74.7-.75 1.6-1.13 2.64-1.13 1.07 0 1.95.4 2.65 1.14.7.76 1.04 1.67 1.04 2.74v14.9c2 0 3.32.1 3.95.4 1.3.5 2 1.5 2 3.1s-.6 2.7-1.9 3.1c-.6.2-1.9.4-3.9.4v3.2c0 3.8-1.2 5.6-3.7 5.6s-3.7-1.8-3.7-5.5" transform="matrix(3.7 0 0 -3.7 3025.8 505.8)"/>
              </g>
            </g>
          </g>
        </g>
        <g>
          <g>
            <g>
              <g>
                <path fill="url(#z)" d="M120.9 121.14c-.52-.22-.98-.54-1.4-.95-.4-.5-.74-1-.96-1.5-.23-.6-.33-1.1-.33-1.7 0-.6.1-1.2.4-1.7.2-.6.6-1 1-1.4.5-.4.9-.8 1.5-1 .6-.3 1.1-.4 1.7-.4.6 0 1.2.1 1.7.3s1.1.5 1.5 1c.4.4.8.9 1 1.4.3.5.4 1.1.4 1.7 0 .5-.1 1.1-.3 1.7-.2.5-.5 1-.9 1.4-.4.4-.9.7-1.4.9-.53.2-1.1.3-1.7.3-.6 0-1.15-.2-1.7-.4m.2-7.7c-.5.2-.9.5-1.3.8-.36.4-.66.8-.85 1.3-.2.5-.3 1-.3 1.5s.1 1 .3 1.5c.2.5.5.9.9 1.3.4.3.8.6 1.3.8.46.2.97.3 1.5.3.54 0 1.06-.1 1.5-.3.5-.2.9-.5 1.3-.9s.7-.8.88-1.3c.2-.47.3-.98.3-1.5s-.1-1.05-.3-1.5c-.2-.47-.4-.9-.8-1.26-.4-.4-.8-.7-1.3-.9-.5-.2-1-.3-1.5-.3s-1.02.1-1.5.3m-.2 6.3v-5.2h.7v2.3h1.3l1.1-2.3h.76l-1.1 2.4c.37.03.67.2.9.4.22.25.33.55.33.9 0 .5-.2.84-.5 1.06-.3.3-.9.4-1.6.4zm.7-.5h1c.54 0 .9-.1 1.17-.2.24-.2.36-.4.36-.7 0-.4-.1-.6-.3-.8s-.6-.2-1.2-.2h-1z" transform="matrix(3.7 0 0 -3.7 3025.8 505.8)"/>
              </g>
            </g>
          </g>
        </g>
      </g>
      <g>
        <g>
          <g>
            <g>
              <g>
                <path fill="url(#A)" d="M244.58 110.85c28.06.43 10.94-7.24 5.96-15.9 15.7 14.02 26.9 19.68 1.46 19.68-25.45 0-31.9 1.1-38.8 8.36 2.9-4.4 4.48-12.6 31.38-12.2" transform="matrix(14.2 0 0 -14.2 29.8 1994.5)"/>
              </g>
            </g>
          </g>
        </g>
        <g>
          <g>
            <g>
              <g>
                <path fill="url(#B)" d="M223.6 88.06c0-2.12 1.72-3.84 3.85-3.84 2.12 0 3.84 1.72 3.84 3.84 0 2.13-1.8 3.85-3.9 3.85-2.2 0-3.9-1.7-3.9-3.8" transform="matrix(14.2 0 0 -14.2 29.8 1994.5)"/>
              </g>
            </g>
          </g>
        </g>
        <g>
          <g>
            <g>
              <g>
                <path fill="url(#C)" d="M241.12 88.06c0-2.12 1.73-3.84 3.85-3.84s3.85 1.72 3.85 3.84c0 2.13-1.72 3.85-3.85 3.85-2.12 0-3.85-1.7-3.85-3.8" transform="matrix(14.2 0 0 -14.2 29.8 1994.5)"/>
              </g>
            </g>
          </g>
        </g>
      </g>
      <rect width="870" height="870" x="3001.74" y="-2.09" fill="none" stroke="green" stroke-width="30" ry="72.04" rx="75.36" stroke-linecap="round"/>
    </g>
  </g>
</svg>
