<svg xmlns="http://www.w3.org/2000/svg" width="280" height="280" xmlns:xlink="http://www.w3.org/1999/xlink" viewBox="0 0 2520 2520">
  <defs>
    <clipPath id="a">
      <path d="M76 2v46H54v23H35.58c-.08.67-.14 1.33-.2 2-1.16 12.53 1.03 24.1 6.06 33.97l1.7 3.03c1 1.82 2.18 3.52 3.42 5.2 1.25 1.65 1.7 2.57 2.47 3.67C62.33 133.8 82.13 141 105 141c50.65 0 93.63-22.44 112.66-72.84 13.5 1.38 26.44-2.08 32.34-13.6-9.4-5.42-21.48-3.68-28.44-.2L240 2.02l-72 46h-23V2z"/>
    </clipPath>
  </defs>
  <g transform="translate(-546.92 600.847)">
    <rect width="2490" height="2490" x="561.92" y="-585.85" fill="none" stroke="green" stroke-width="140" rx="200" ry="200" stroke-linecap="round"/>
    <g>
      <g>
        <path fill="#394d54" d="M1986.54 126.46h205.8v210.37h104.05c48 0 97.4-8.56 142.9-23.98 22.3-7.58 47.4-18.13 69.5-31.4-29.1-37.93-43.9-85.82-48.3-133.03-6-64.2 7-147.78 50.5-198.04l21.6-25.02 25.7 20.72c64.9 52.15 119.5 125 129.1 208.07 78.2-23 169.9-17.55 238.8 22.2l28.2 16.3-14.9 29.04c-58.3 113.7-180.1 148.9-299.1 142.6-178.2 443.7-566.1 653.8-1036.4 653.8-243 0-465.9-90.9-592.9-306.4-7.5-13.4-13.9-27.4-20.6-41.2-42.9-94.9-57.2-198.9-47.5-302.8l2.9-31.1h176V126.4h206V-79.3h411.5v-205.8h246.93v411.6"/>
        <g clip-path="url(#a)" transform="matrix(9 0 0 9 659.155 -285.128)">
          <g id="d">
            <g id="c" transform="translate(0 -22.866)">
              <path fill="#00acd3" d="M123.86 3.8h19.82v19.83h-19.82z"/>
              <path fill="#20c2ef" d="M123.86 26.68h19.82v19.8h-19.82z"/>
              <path id="b" stroke="#394d54" stroke-width="1.56" d="M126.3 21.98V5.46m2.96 16.52V5.46m3 16.52V5.46m3 16.52V5.46m3 16.52V5.46m2.98 16.52V5.46"/>
              <use width="100%" height="100%" transform="translate(0 22.866)" xlink:href="#b"/>
            </g>
            <use width="100%" height="100%" transform="matrix(1 0 0 -1 22.866 4.573)" xlink:href="#c"/>
          </g>
          <use width="100%" height="100%" transform="translate(-91.464 45.732)" xlink:href="#d"/>
          <use width="100%" height="100%" transform="translate(-45.732 45.732)" xlink:href="#d"/>
          <use width="100%" height="100%" transform="translate(0 45.732)" xlink:href="#d"/>
        </g>
        <path fill="#17b5eb" d="M221.57 54.38c1.53-11.92-7.38-21.28-12.9-25.72-6.4 7.37-7.38 26.68 2.62 34.8-5.6 4.96-17.4 9.46-29.4 9.46H34C32.83 85.48 34 146 34 146h217l-1-91.42c-9.4-5.43-21.47-3.7-28.43-.2" clip-path="url(#a)" transform="matrix(9 0 0 9 659.155 -285.128)"/>
        <path fill-opacity=".17" d="M34 89v57h217V89" clip-path="url(#a)" transform="matrix(9 0 0 9 659.155 -285.128)"/>
        <path fill="#d4edf1" d="M111.24 140.9c-13.54-6.44-20.97-15.17-25.1-24.7L45 118l21 28 45.24-5.1" clip-path="url(#a)" transform="matrix(9 0 0 9 659.155 -285.128)"/>
        <path fill-opacity=".09" d="M222.5 53.94v.03c-20.86 26.9-50.78 50.38-82.9 62.72-28.66 11-53.64 11-70.88 2.2-1.86-1.1-3.68-2.2-5.5-3.3-12.64-8.9-19.76-23.5-19.16-42.7H34V146h217V50h-25z" clip-path="url(#a)" transform="matrix(9 0 0 9 659.155 -285.128)"/>
        <path fill="none" stroke="#394d54" stroke-width="30.6" d="M1069.78 768.15c127.5 6.98 263.54 8.23 382.22-28.97" stroke-linecap="round"/>
        <path fill="#d4edf1" d="M1578.7 677.5c0 27.18-22.04 49.2-49.2 49.2-27.2 0-49.22-22.02-49.22-49.2 0-27.16 22.03-49.2 49.2-49.2 27.18 0 49.2 22.04 49.2 49.2z"/>
        <path fill="#394d54" d="M1542.25 644.64c-4.3 2.48-7.2 7.14-7.2 12.46 0 7.94 6.44 14.37 14.38 14.37 5.44 0 10.17-3.02 12.6-7.48 1.74 4.1 2.7 8.7 2.7 13.5 0 19.4-15.78 35.2-35.24 35.2-19.5 0-35.3-15.8-35.3-35.3 0-19.5 15.8-35.3 35.2-35.3 4.5 0 8.8.8 12.7 2.4zm-883.1-118.3H2948.1c-49.84-12.65-157.7-29.73-139.9-95.04-90.62 104.86-309.18 73.56-364.33 21.86-61.42 89.08-419 55.22-443.93-14.18-77 90.37-315.6 90.37-392.6 0-24.96 69.4-382.52 103.26-443.95 14.18-55.2 51.7-273.7 83-364.4-21.86 17.8 65.3-90.1 82.4-139.9 95.03"/>
      </g>
      <path fill="#364548" fill-rule="evenodd" d="M1003.12 1238.7v-147.27c0-19.34 12.1-34.9 32.13-34.9h5.55c20.02 0 32.06 15.57 32.06 34.9v310.02c0 75.6-37.35 135.76-102.43 174.08-30.18 17.76-63.53 26.87-98.5 26.87H858.1c-75.64 0-135.7-37.38-174.1-102.43-17.8-30.2-26.86-63.5-26.86-98.52v-13.82c0-75.62 37.38-135.74 102.4-174.13 30.2-17.83 63.5-26.87 98.54-26.87h13.82c51.17 0 94.6 19.84 131.2 52.06zm-276.24 155.83c0 54.6 26.47 95.67 74.33 121.85 19.4 10.6 40.4 16.28 62.5 16.28 53.6 0 93.4-25.3 120.8-70.7 12.8-21.15 18.7-44.26 18.7-68.84 0-47.34-22.4-84.28-60.5-111.73-23.1-16.7-49.1-25-77.5-25-58.4 0-100.4 29.5-125.7 81.9-8.5 17.7-12.4 36.5-12.4 56.1zm587.92-207.9h9.67c80.8 0 142.25 39.2 181.2 109.73 15.57 28.22 23.9 59 23.9 91.27v13.82c0 75.6-37.28 135.84-102.47 174.1-30.18 17.7-63.5 26.85-98.5 26.85h-13.8c-75.6 0-135.7-37.38-174.08-102.43-17.8-30.2-26.88-63.5-26.88-98.52v-13.82c0-75.63 37.52-135.55 102.4-174.1 30.16-17.94 63.5-26.9 98.56-26.9zm-131.22 207.9c0 53 26 92 70.8 119.42 21 12.88 44.16 18.7 68.73 18.7 52.4 0 91.1-26.55 118.1-70.76 12.9-21.1 18.7-44.3 18.7-68.8 0-49.3-23.7-87-64.3-114.3-22.2-15-47-22.5-73.8-22.5-58.4 0-100.4 29.5-125.7 81.9-8.5 17.7-12.4 36.5-12.4 56.1zm635.9-132.54c-10.52-5-30.23-6.6-41.6-7-58.28-2.2-100.43 30.6-125.17 82-8.5 17.7-12.4 36.5-12.4 56.1 0 59.7 31.4 101.5 84.7 127 19.5 9.3 44.6 11.1 65.9 11.1 18.8 0 45.2-11.5 61.8-19.4l2.9-1.4h12.9l1.4.3c15.9 3.3 27.9 13.3 27.9 30.4v6.9c0 42.4-77.6 52.2-107.2 54.2-104.5 7.2-182.6-50.2-212.4-149.8-5.2-17.3-7.5-34.5-7.5-52.5v-13.8c0-75.6 37.5-135.5 102.4-174.1 30.2-17.9 63.6-26.9 98.6-26.9h13.9c37.2 0 71.4 10.5 102.1 31.5l2.5 1.7 1.6 2.6c3.4 5.5 6.2 11.8 6.2 18.4v6.9c0 17.8-13.3 27.4-29.4 30.5l-1.3.2h-4.2c-10.4 0-34-10.8-43.3-15.2zm226.2 47.2c27.1-27.1 54.3-54.2 81.77-80.9 7.67-7.5 36.68-39 48.1-39h12.5l1.4.3c15.92 3.3 27.84 13.3 27.84 30.4v6.9c0 11.6-13.7 25.2-21.2 33.2-16.1 17-32.9 33.4-49.3 50l-84.3 85.5c36.3 36.3 72.5 72.7 108.5 109.4 9.9 10.1 19.9 20.2 29.7 30.5 3.5 3.6 8.6 8.1 11.5 13.2 3.1 4.7 5 10 5 15.7v7.2l-.4 1.7c-3.9 15.9-14 28.7-31.7 28.7h-5.6c-11.5 0-24.6-13.1-32.5-20.5-16.3-15.4-32-31.6-48-47.2l-53.5-52.6v84c0 19.3-12.1 34.9-32.1 34.9h-5.5c-20.1 0-32.2-15.6-32.2-34.9v-473.3c0-19.4 12.1-34.9 32.1-34.9h5.5c20 0 32.1 15.5 32.1 34.84V1309zm869.2-119.8h6.93c21 0 34.9 14.1 34.9 34.9 0 28.8-27.6 36.2-51.5 36.2-31.3 0-61.2 18.9-82.8 40.2-26.9 26.5-38.7 60.5-38.7 97.9v168.8c0 19.3-12 34.9-32.1 34.9h-5.5c-20 0-32.1-15.6-32.1-34.9V1389c0-68.57 33.4-124.52 89-163.77 33.3-23.45 71.3-35.83 112-35.83zm-495.68 334.5c25.4 8.8 54.4 7.6 80.4 3 13.3-5.7 47.4-20.5 59.9-18.4l2 .3 1.8.9c7.63 3.7 14.94 8.9 18.84 16.7 9.13 18.2 4.74 36.6-13.2 46.9l-5.95 3.4c-66.2 38.2-136.5 32.9-202.5-2.8-31.6-17.1-55.7-42.4-73.5-73.2l-4.2-7.2c-42.5-73.6-36.8-150.9 11.1-220.9 16.5-24.2 38.1-42.9 63.4-57.5l9.5-5.5c62.3-36 129-33.5 193-1.9 34.4 16.9 62.2 42.2 81.4 75.5l3.4 6c13.93 24.1-4.1 45.2-22.8 59.6-21.6 16.7-43.5 36.8-64.28 54.7-46.24 39.9-92.45 80-138.7 120zm-59.82-42.1c51.76-44.4 103.53-88.8 155.13-133.4 17.7-15.2 37-31 54.5-47-14-17.7-37.5-30.5-57.4-38.1-40.2-15.4-79.9-10.2-116.7 11.1-48.3 27.9-68.8 72.3-67 127.5.7 21.7 6.6 42.7 18.1 61.2 4.1 6.5 8.6 12.6 13.6 18.5z"/>
    </g>
  </g>
</svg>
